<?xml version="1.0" encoding="utf-8"?>
<!-- Generator: Adobe Illustrator 26.5.0, SVG Export Plug-In . SVG Version: 6.00 Build 0)  -->
<svg version="1.1" id="Réteg_1" xmlns="http://www.w3.org/2000/svg" xmlns:xlink="http://www.w3.org/1999/xlink" x="0px" y="0px"
	 width="206px" height="173.9px" viewBox="0 0 206 173.9" style="enable-background:new 0 0 206 173.9;" xml:space="preserve">
<style type="text/css">
	.st0{fill:#FFFFFF;}
	.st1{fill:#EF7917;}
	.st2{fill:#F59934;}
	.st3{fill:#FACA8A;}
	.st4{fill:#E94E10;}
	.st5{display:none;}
	.st6{display:inline;}
	.st7{fill:#F5C000;}
	.st8{fill:#F1E51F;}
	.st9{fill:#81BB2B;}
	.st10{fill:#E2391B;}
</style>
<g>
	<g>
		<path class="st0" d="M185,103h-8.6c0-40.5-32.9-73.4-73.4-73.4c-40.5,0-73.4,32.9-73.4,73.4H21c0-45.2,36.8-82,82-82
			S185,57.8,185,103z"/>
	</g>
</g>
<g>
	<g>
		<path class="st0" d="M163,103h-19.4c0-22.4-18.2-40.6-40.6-40.6S62.4,80.6,62.4,103H43c0-33.1,26.9-60,60-60S163,69.9,163,103z"/>
	</g>
</g>
<g>
	<g>
		<path class="st0" d="M132.1,103h-8.6c0-11.3-9.2-20.5-20.5-20.5S82.5,91.7,82.5,103h-8.6c0-16.1,13.1-29.1,29.1-29.1
			S132.1,86.9,132.1,103z"/>
	</g>
</g>
<g>
	<g>
		<path class="st0" d="M206,103h-8.6c0-52-42.3-94.4-94.4-94.4S8.6,50.9,8.6,103H0C0,46.2,46.2,0,103,0S206,46.2,206,103z"/>
	</g>
</g>
<g>
	<path class="st0" d="M33.2,163.3H14.4l-3.1,9.6h-11L16.6,125h14.4L47,172.9H36.3L33.2,163.3z M30.2,154l-6.1-18.8h-0.8l-6,18.8
		H30.2z"/>
	<path class="st0" d="M48.7,149c0-14,10.2-24.8,24.8-24.8c11,0,20.2,6.4,23.4,17.8H86.1C84,136.8,79,134,73.6,134
		c-8.6,0-14.3,6.4-14.3,15c0,8.6,5.8,15.2,14.4,15.2c5.8,0,10.5-2.3,12.9-7.5H73.9v-8.6h24c-0.3,18.7-13.4,25.8-24.3,25.8
		C58.9,173.8,48.7,163.1,48.7,149z"/>
	<path class="st0" d="M102,125h6l9.8,42.9h0.4l10.1-42.9h8.4l10.1,42.9h0.4l9.8-42.9h6l-11.6,47.9h-8.8l-9.9-42.9h-0.4l-9.9,42.9
		h-8.8L102,125z"/>
	<path class="st0" d="M170.3,155.7V125h5.5v30.7c0,7.9,4.2,13,12.3,13c8.1,0,12.4-5.1,12.4-13.1V125h5.5v30.7
		c0,10.8-6.5,18.1-17.9,18.1C176.6,173.8,170.3,166.6,170.3,155.7z"/>
</g>
</svg>
