<svg width="598" height="1912" viewBox="0 0 598 1912" fill="none" xmlns="http://www.w3.org/2000/svg">
<path d="M238.008 956.828C106.682 957.325 0.000185519 850.956 0.000208521 719.402L0.000292792 237.426C0.000315736 106.203 106.186 -0.000347645 237.016 -0.00032477L715.512 -0.000241107C846.507 -0.000218203 952.527 106.369 952.527 237.426L952.527 241.402C952.527 372.624 1058.71 478.828 1189.54 478.828L1674.98 478.828C1805.98 478.828 1912 585.198 1912 716.255L1912 719.237C1912 850.79 1805.32 957.16 1674.16 956.663L1668.53 956.663C1537.37 956.331 1430.69 1062.87 1430.69 1194.42L1430.69 1433.5C1430.69 1697.77 1216.83 1912 953.023 1912C688.882 1912 474.857 1697.27 475.354 1432.67L475.85 1194.75C476.181 1063.2 369.334 956.331 238.008 956.828Z" fill="#FAD785"/>
</svg>
