<svg width="1680" height="1970" viewBox="0 0 1680 1970" fill="none" xmlns="http://www.w3.org/2000/svg">
<path d="M-7.88708 0.00710125C128.01 -1.01742 238.811 108.948 238.811 245.039V248.625C238.811 384.545 349.612 494.51 485.509 493.656H486.363C622.602 492.632 733.573 603.11 733.061 739.542V740.396C732.549 875.633 841.813 985.768 977.028 986.281L1229.36 987.135C1500.13 988.16 1719 1207.92 1719 1478.57C1719 1750.92 1497.57 1971.36 1225.43 1969.99H1214.51C941.175 1968.8 721.452 1744.77 725.378 1471.56L728.793 1237.29C730.671 1100.69 620.553 988.842 483.973 988.842H-6.00909C-141.224 988.842 -251 879.219 -251 743.811V244.868C-251 110.484 -142.419 1.03162 -7.88708 0.00710125Z" fill="#FAD785"/>
</svg>
