<?xml version="1.0" encoding="UTF-8"?>
<svg id="Ebene_2" data-name="Ebene 2" xmlns="http://www.w3.org/2000/svg" viewBox="0 0 463.15 404.19">
  <defs>
    <style>
      .cls-1, .cls-2 {
        stroke-width: .89px;
      }

      .cls-1, .cls-2, .cls-3, .cls-4, .cls-5, .cls-6, .cls-7, .cls-8, .cls-9, .cls-10, .cls-11, .cls-12, .cls-13, .cls-14 {
        fill: none;
      }

      .cls-1, .cls-2, .cls-3, .cls-4, .cls-5, .cls-6, .cls-7, .cls-8, .cls-10, .cls-11, .cls-12, .cls-13, .cls-14 {
        stroke-linecap: round;
        stroke-linejoin: round;
      }

      .cls-1, .cls-6 {
        stroke: #aa3f37;
      }

      .cls-2, .cls-11 {
        stroke: #233332;
      }

      .cls-3 {
        stroke-width: .89px;
      }

      .cls-3, .cls-14 {
        stroke: #d85145;
      }

      .cls-15 {
        fill: #007f7a;
      }

      .cls-16 {
        fill: #aa3f37;
      }

      .cls-4 {
        stroke: #007f7a;
      }

      .cls-5 {
        stroke: #852b22;
      }

      .cls-7 {
        stroke: #f9f9f9;
      }

      .cls-8 {
        stroke: #e6817d;
      }

      .cls-17 {
        fill: #233332;
      }

      .cls-9 {
        stroke-miterlimit: 10;
        stroke-width: 3px;
      }

      .cls-9, .cls-13 {
        stroke: #3c4a77;
      }

      .cls-18 {
        fill: #d85145;
      }

      .cls-10 {
        stroke: #769494;
      }

      .cls-19 {
        fill: #f9f9f9;
      }

      .cls-20 {
        fill: #e6817d;
      }

      .cls-21 {
        fill: #769494;
      }

      .cls-12 {
        stroke: #fadb81;
      }

      .cls-22 {
        fill: #9bb9b9;
      }

      .cls-23 {
        fill: #4d60a4;
      }

      .cls-24 {
        fill: #e78c60;
      }

      .cls-25 {
        fill: #fadb81;
      }

      .cls-26 {
        fill: #852b22;
      }

      .cls-27 {
        fill: #00918c;
      }

      .cls-28 {
        fill: #3c4a77;
      }
    </style>
  </defs>
  <g id="OBJECTS">
    <g>
      <g>
        <path class="cls-22" d="M334.5,350.2l8.21,28.73s5.96,7.43,8.69,14.42h-46.5l8.01-11.87-6.27-31.29h27.85Z"/>
        <path class="cls-17" d="M312.91,381.49l-8.01,11.87h46.5c-2.74-6.99-8.69-14.42-8.69-14.42-22.6-6.29-29.79,2.55-29.79,2.55Z"/>
        <path class="cls-22" d="M304.9,393.36s6.98-12.4,24.65-10.2c17.67,2.2,21.85,10.2,21.85,10.2h-46.5Z"/>
        <line class="cls-7" x1="315.23" y1="364.78" x2="317.12" y2="378.68"/>
        <line class="cls-7" x1="324.48" y1="364.78" x2="326.47" y2="376.71"/>
        <line class="cls-7" x1="333.73" y1="364.78" x2="335.6" y2="377.35"/>
      </g>
      <g>
        <g>
          <path class="cls-22" d="M235.07,345.78l2,31.51s-18.33,8.15-21.33,15.82h49.88v-47.33h-30.55Z"/>
          <g>
            <path class="cls-17" d="M265.61,382.06c-5.38,4.35-11.51,2.27-15.55,1.22-2.68-.69-8.62-4.32-13.12-5.93-1.5,.68-18.35,8.44-21.22,15.77h49.88v-11.06Z"/>
            <path class="cls-22" d="M233.73,390.09c-.47-3.25-5.04-5.78-7.55-6.93-4.54,2.88-9.09,6.47-10.45,9.96h49.88v-3.02h-31.88Z"/>
          </g>
        </g>
        <line class="cls-7" x1="240.67" y1="364.78" x2="240.67" y2="379.28"/>
        <line class="cls-7" x1="250.48" y1="364.78" x2="250.48" y2="383.39"/>
        <line class="cls-7" x1="260.15" y1="364.78" x2="259.15" y2="384.65"/>
      </g>
      <g>
        <path class="cls-23" d="M234.23,187.45s-9.89,89.33-6.86,117.33c3.03,28,4.1,60,4.1,60h41.26s3-34.33-2.03-60.8l2.03-40.87,29.99,101.67h40.33s4.17-35-13.33-65c-7.52-12.89-4.67-68.83-25.33-112.33h-70.17Z"/>
        <path class="cls-28" d="M240.67,294.78c0-10.31-5.58-18.67-12.47-18.67-.37,0-.73,.04-1.1,.08-.44,11.66-.46,21.88,.27,28.58,.31,2.86,.6,5.76,.87,8.66,6.87-.03,12.43-8.37,12.43-18.66Z"/>
        <path class="cls-13" d="M272.74,263.12s-23.02-20.11-14.52-75.67"/>
        <ellipse class="cls-28" cx="300.97" cy="295.5" rx="10.92" ry="18" transform="translate(-49.94 61.47) rotate(-10.77)"/>
        <path class="cls-13" d="M250.47,187.45s-8.46,40.91,7.9,45.11"/>
        <polyline class="cls-13" points="291.22 187.45 301.4 227.13 318.39 232.56"/>
        <path class="cls-13" d="M335.6,364.78s-4.22-41.86-12.89-64.52c-8.67-22.67-11.38-69.95-11.38-69.95"/>
        <path class="cls-13" d="M264.53,364.78l-5.12-59.42c-.18-2.06-.16-4.14,.06-6.2l5.06-47.95"/>
      </g>
      <g>
        <path class="cls-20" d="M237.82,32.7c-1.35-.13-2.52,.67-3.74,.49,1.34-2.03,3.05-4.22,3.57-6.69,.42-2.03,.41-4.34,.03-6.38-.11-.6-.8-2.8-1.79-2.35-.82,.38-.82,3.74-.81,4.5-.27-1.54-.26-3.11-.88-4.56-.34-.8-.87-2.09-1.71-2.48-1.67-.76-.92,3.15-.66,4.04-.19-.72-1.44-3.94-2.47-2.06-.88,1.62,.53,4.16,.07,5.84-.38-1.12-1.53-4.79-3.23-4.59-1.24,.15-.41,2.36-.2,3.18,.26,.98,.71,2.39-.09,3.21-.41,.42-.93,.65-1.34,1.11-.48,.53-.85,1.07-1.25,1.66-1,1.48-1.57,2.86-1.67,4.66,0,.02,0,.03,0,.05-2.75,1.05-22.12,9.12-29.96,31.63-8.45,24.25-6.95,31.27,3.8,38.76,4.84,3.37,13.99,10.86,22.59,18.06,2.82-10.17,6.75-24.38,8.97-32.62l-11.81-6.76s7.31-33.03,13.36-42.22c1.19-.46,2.42-.55,3.74-1,1.84-.63,3.04-2.54,4.93-2.9,.67-.13,3.65,.36,3.82-.64,.2-1.23-2.47-1.85-3.26-1.92Z"/>
        <path class="cls-16" d="M215.23,81.38s-14.99,7-24.92,16.92c1.38,1.53,3.1,2.96,5.17,4.4,4.84,3.37,13.99,10.86,22.59,18.06,2.82-10.17,6.75-24.38,8.97-32.62l-11.81-6.76h0Z"/>
        <path class="cls-14" d="M223.9,34.45s1.68-5.87,10.18-1.27"/>
        <path class="cls-14" d="M225.91,24.85s4.31-.55,7.49,1.94"/>
      </g>
      <g>
        <path class="cls-27" d="M315.98,213.2s-1.92-5.38-4.4-12.48l-3.13,13.43c5.78-3.23,7.53-.95,7.53-.95Z"/>
        <path class="cls-27" d="M309.21,193.87c-4.07-11.83-8.47-25.08-8.47-27.12,0-3.8,.8-9.32,.8-9.32l9.45,23.27,31.37-10.8c-2.75-7.09-7.66-19.36-13.37-31.06-7.75-15.89-19.25-29.72-40.75-32.66l-6.65-1.81,.78-4.63-25.04-2-.68,4.97-41.4-21.33c-14.06,15.55-11.56,22.81-18.93,31.56,10.49,8.79,35.43,22.01,35.43,22.01,0,0-1.75,28.13-1.75,48.21,0,11.79-5.19,22.04-5.19,22.04,0,0,15.56,11.75,30.25,14.25l9.65-12.25,3.54,17.5s20,6.75,32.25-4.5c1.47-1.35,2.8-2.46,4.02-3.4,1.49-1.14,2.8-2.01,3.95-2.66,5.78-3.23,7.53-.95,7.53-.95,0,0-1.92-5.38-4.4-12.48-.75-2.16-1.56-4.48-2.37-6.85Z"/>
        <path class="cls-28" d="M257.31,97.74s5.12,4.93,11.39,5.9c0,0,1.52,.8,13.65-3.9l-25.04-2Z"/>
        <path class="cls-4" d="M264.7,207.2s-7.7-47.72,0-82.07c0,0,3.35-13.66,3.7-21.5"/>
        <path class="cls-4" d="M231.73,134.95s1.75-16.53,8.25-27"/>
        <line class="cls-4" x1="301.53" y1="157.43" x2="304.48" y2="132.2"/>
        <line class="cls-4" x1="206.01" y1="119.91" x2="223.13" y2="85.9"/>
        <line class="cls-4" x1="307.16" y1="171.28" x2="337.33" y2="157.43"/>
        <rect class="cls-4" x="273.55" y="133.43" width="21.31" height="5.5" transform="translate(10.54 -20.11) rotate(4.13)"/>
        <polyline class="cls-4" points="256.64 102.71 261.27 109.76 268.36 104.26 273.55 111.26 281.58 104.37"/>
      </g>
      <g>
        <path class="cls-20" d="M342.94,172.71l-1.31-2.55-26.33,9.08,.93,1.52-9.25,39.7,.04,.02c-1.12,2.13-3.6,2.74-5.79,3.2-1.18,.25-2.18,.55-3.05,1.46-1.36,1.43-1.23,3.43-2.27,5.01-.52,.78-2.18,2.92,.17,2.31,1.17-.3,2.39-1.84,3.16-2.7,1.6-1.8,3.16-2.12,5.44-1.69,2.19,.42,4.46,1.07,6.65,1.64,1.49,.39,2.88,1.18,4.38,1.48,.77-1.76,1.4-3.64,1.82-5.52,1.03-.66,20.72-13.7,26.64-44.09,.59-3.01,.16-6.14-1.24-8.88Z"/>
        <path class="cls-16" d="M342.94,172.71l-1.31-2.55-26.33,9.08,.88,1.44,27.72-5.47c-.24-.86-.56-1.7-.97-2.5Z"/>
      </g>
      <g>
        <path class="cls-20" d="M263.7,86.72l-1.77,14.39s2.87,2,6.47,2.52c2.05,.3,2.68,.12,6.45-1.21v-14.65l-11.14-1.05Z"/>
        <path class="cls-16" d="M263.7,86.72l-.77,6.27c2.36,5.2,11.91,5.47,11.91,5.47v-10.68l-11.14-1.05Z"/>
        <g>
          <path class="cls-16" d="M263.56,77s-4.05-7.95-6.4-3.49c-1.95,3.71,1.95,7.76,6.05,6.93l.36-3.44Z"/>
          <path class="cls-16" d="M275.19,77.68s5.59-6.96,6.98-2.11c1.16,4.03-3.49,7.2-7.34,5.55l.36-3.44Z"/>
          <path class="cls-17" d="M260.58,78.7c-1.46-1.08-2.04-3.38-2.21-5.08-.08-.8-.28-1.72-.25-2.5,.03-.68,.56-1.62,.62-2.24-2.12-.27-1.44-3.41-.69-4.59,1.49-2.34,3.53-3.87,6.26-4.44,1.49-.31,3.01,.08,4.49,.27-.54-.37-.85-.89-.81-1.56,.39,1.35,3.91,1.22,4.99,1.43,2.27,.44,3.46,1.59,4.51,3.51,1.25-.93,3.96,.35,4.46,1.52,.83,1.95,.14,4.13-.28,6.1-.49,2.3-.13,5.54-1.49,7.5-1.56,2.26-6.42,1.19-8.61,.92-2.6-.32-5.26-.95-7.9-.84-.78,.03-2.17-.11-3.1,0Z"/>
          <path class="cls-20" d="M279.34,71.97c.04-1.07-.89-1.93-1.95-1.78-.93,.13-1.89,.34-2.61,.48-.47,.09-1.2,.64-1.57,.66-.75,.05-1.78-.73-2.52-.85,.2,.25,.28,.57,.42,.85-2.82-.66-5.83-1.36-8.69-2.01-1.03-.23-2.03,.5-2.11,1.56-.15,2.13-.28,5.11-.26,5.48,.82,12.53,1.22,14.12,8.7,15.31,7.48,1.2,9.49-7.47,9.89-11.27,.09-.83,.12-1.89,.4-3.4,.06-.33,.09-.66,.1-.99,.01-.94,.16-2.66,.21-4.03Z"/>
          <path class="cls-17" d="M260,77.86c.26,.29,.08,1.86,0,2.41-.17,1.11-.62,2.05-1,3.09-.87,2.39-.98,4.95,.58,7.13,2.34,3.24,7.7,3.91,11.34,3.19,1.75-.35,3.88-.87,5.18-2.16,1.2-1.2,1.82-2.88,2.23-4.5,.6-2.38,1.03-5.49,.42-7.87-.69,1.45-1.01,4.85-3,5.22-1.88,.36-2.14-1.5-3.27-2.32-1.3-.94-3.62-1.03-5.15-1.04-1.21,0-2.26,.28-3.25,1.02-.59,.44-1.09,1.06-1.88,.71-1.5-.67-1.38-3.43-2.21-4.88Z"/>
        </g>
        <path class="cls-17" d="M267.18,76.46c0,.53-.43,.96-.96,.96s-.96-.43-.96-.96,.43-.96,.96-.96,.96,.43,.96,.96Z"/>
        <path class="cls-17" d="M273.64,77.03c0,.53-.43,.96-.96,.96s-.96-.43-.96-.96,.43-.96,.96-.96,.96,.43,.96,.96Z"/>
        <g>
          <path class="cls-20" d="M268.19,75.07c.26,.59,.13,1.27,.05,1.9-.15,1.27-.51,2.52-.8,3.76-.21,.91-.87,2.39-.52,3.31,.15,.39,.57,.69,.98,.73,1,.11,1.61-1.02,1.92-1.79l.36-.85c.4-.94,.52-1.98,.35-2.98l-.71-4.08h-1.62Z"/>
          <path class="cls-6" d="M268.19,75.07c.26,.59,.13,1.27,.05,1.9-.15,1.27-.51,2.52-.8,3.76-.21,.91-.87,2.39-.52,3.31,.15,.39,.57,.69,.98,.73,1,.11,1.61-1.02,1.92-1.79"/>
        </g>
        <path class="cls-19" d="M266.33,85.67c.68,.55,1.86,.61,2.69,.45,.9-.17,1.44-.8,2.15-1.26-.15,1.35-.52,2.64-2.08,2.96-.9,.18-2.15,0-2.82-.66,.14-.24,.17-1.01,.06-1.49Z"/>
        <path class="cls-11" d="M264.57,73.62c.45-.79,2-.67,2.37-.17"/>
        <path class="cls-11" d="M271.52,73.99c.28-.28,.94-.48,1.46-.37,.33,.07,1.14,.35,1.12,.71"/>
      </g>
    </g>
    <g>
      <g>
        <g>
          <path class="cls-23" d="M25,364.26l-5.25,14.75S-.25,385.26,0,392.51s40.5-1.25,40.5-1.25l8.5-27H25Z"/>
          <path class="cls-25" d="M29.42,382.26c3.78,3.58,8.54-1.26,14.31-1.25l5.27-16.75H25l-5.25,14.75s4.75-1.42,9.67,3.25Z"/>
          <path class="cls-10" d="M8.09,383.58s6.33-.4,10.17,4.68"/>
          <path class="cls-10" d="M11.81,382.08s4.92-2.86,9.11,4.51"/>
          <path class="cls-10" d="M16.37,380.2s5.72-3.19,7.3,5.06"/>
        </g>
        <g>
          <path class="cls-23" d="M149.18,363.19l1.34,15.6s17.76,11.12,15.68,18.07c-2.08,6.95-38.86-11.48-38.86-11.48l-1.37-28.27,23.21,6.09Z"/>
          <path class="cls-25" d="M140.35,379.48c-4.56,2.51-7.94-3.39-13.52-4.84l-.85-17.54,23.21,6.09,1.34,15.6s-4.23-2.57-10.17,.69Z"/>
          <path class="cls-10" d="M160.65,386.17s-6.02-2-11.02,1.95"/>
          <path class="cls-10" d="M157.42,383.77s-4.03-4.02-9.95,2.06"/>
          <path class="cls-10" d="M153.49,380.79s-4.72-4.54-8.35,3.04"/>
        </g>
        <g>
          <path class="cls-17" d="M70.75,163.26s-6.5,26.5-23.5,69c-17,42.5-27,138-27,138H57.92l47.83-115,16.92,112.5,31.42-2.5s18.08-90.5,5.16-138.5c-9.14-33.98-17-59-17-59l-71.5-4.5Z"/>
          <path class="cls-10" d="M105.75,255.26s10.63-37.22,9.46-74.44"/>
          <line class="cls-10" x1="21.6" y1="358.55" x2="62.79" y2="358.55"/>
          <line class="cls-10" x1="120.66" y1="354.43" x2="155.58" y2="357.1"/>
        </g>
        <path class="cls-10" d="M60.76,195.89s17.64-1.08,23.88-21.85"/>
        <path class="cls-10" d="M134.36,177.85s2.02,16.98,16.69,19.44"/>
        <path class="cls-10" d="M113.79,212.42s7.43-1.16,8.26-5.82c.83-4.67,.7-26.27,.7-26.27"/>
      </g>
      <path class="cls-25" d="M69.81,166.82s18.63,11.28,38.28,13.61c19.65,2.33,36.08-6.39,36.08-6.39l-11.18-73.02s-16.19-6.27-27.35-8.5c-11.16-2.23-27.9-2.12-27.9-2.12,0,0-4.72,62.22-7.94,76.43Z"/>
      <g>
        <g>
          <path class="cls-20" d="M190.05,65.06c.34-2.13,.73-5.05,1.8-6.91,.44-.76,1.12-1.2,1.8-1.75,1.05-.84,1.67-2.22,2.16-3.43,.52-1.3,.93-2.63,1.51-3.89,.26-.57,.87-1.51,.88-2.11,.01-1.08-.94-1-1.58-.35-.91,.92-.95,2.71-1.92,3.5-.27,.22-.83,.5-1.11,.17-.34-.4,.4-1.29,.59-1.66,.28-.54,3.02-5.73,.4-5.22-1.01,.2-1.58,2.65-1.9,3.5-.29,.75-.78,3.08-1.85,3.15-1.85,.12,1.98-6.76-.23-7.59-1.55-.59-1.89,2.31-2.13,3.23-.14,.56-.49,3.26-1.24,3.3-1.09,.05,.54-5.71-.93-6.62-1.81-1.12-1.57,3.04-1.66,3.76-.17,1.45-.53,2.84-.86,4.27-.09,.4-.09,1.31-.59,1.49-1.01,.36-1.43-2.21-1.65-2.82-.26-.69-.55-2.07-1.33-2.38-.98-.39-1.19,.65-1.11,1.41,.17,1.53,.66,2.93,.59,4.49-.08,1.56-.08,2.91,1.22,4.02,.55,.47,1.27,.59,1.66,1.22,.69,1.14,.67,3.04,.69,4.3,.02,1.28-.1,2.57-.01,3.84,2.32,.13,4.39,.01,6.56-.66,0,.11-.06,.19,.25-.26Z"/>
          <path class="cls-14" d="M187.75,56.48s-.88-3.12-4.57-4.58"/>
          <line class="cls-14" x1="194.29" y1="52.02" x2="185.24" y2="49.37"/>
        </g>
        <path class="cls-28" d="M125.25,173.51v10s5.5,4.5,13.25,3.75,11.02-1.54,11.02-1.54l-1.77-12.21h-22.5Z"/>
        <path class="cls-28" d="M180.25,67.18l1.12-9.26s5.87-.41,11.75,2.84l-3,9.12-9.87-2.7Z"/>
        <path class="cls-23" d="M111.92,94.3s6,3.38,6,15.12-1.75,63.11,8.5,67.55,25.5,4.7,25-4.55-7.25-17.5-7.5-25.5-1.72-16.91-1.72-16.91c0,0,29.47-.06,43.21-.9,2.95-.18,5.68-1.67,7.35-4.1,1.93-2.81,3.95-7.02,3.4-11.83-.87-7.62-4.97-28.89-3.04-40.53,.44-2.68-1.18-5.27-3.76-6.12l-7.08-2.33c-2.95-.97-6.13,.67-7.05,3.64l-8.83,28.59s-10.75,.2-19.75-2.12c-11.75-3.04-24-.33-24-.33,0,0,5-2.01,5-4.78s-15.75-3.51-15.75-3.51v8.62Z"/>
        <path class="cls-13" d="M119.88,99.04s-.7-2.95,2.79-5.07"/>
        <path class="cls-13" d="M166.42,96.43s8.83,1,11.5,9.5"/>
        <path class="cls-9" d="M137.38,146.93s9.01,7.68,11.32,15"/>
      </g>
      <g>
        <path class="cls-16" d="M117.5,73.18s2.25-3.04,4-2.04,.25,6.38-2.62,6.5l-1.37-4.46Z"/>
        <path class="cls-20" d="M98.38,77.63l-2.12,14.88s2.25,8.88,13.12,10.62c0,0,3.62,.38,3.87-7.5,0,0-1.5-12.75-1-16.25l-13.87-1.75Z"/>
        <path class="cls-16" d="M113.13,94.55c-.27-2.42-.88-8.36-.97-12.3l-13.68-1.22c0,10.48,10.64,13.52,14.65,13.52Z"/>
        <path class="cls-20" d="M119.58,75.93c-.83-6.67,3-17.33-9.67-19.17,0,0-10.5-1.83-12.17,6.33-.43,2.13-.78,5.01-.78,8.08-1-.76-2.35-1.25-3.84-.29-2.88,1.84,.61,8.12,4.59,7.54,1.16,5.04,3.82,9.47,9.2,10.84,11.17,2.83,13.5-6.67,12.67-13.33Z"/>
        <g>
          <path class="cls-17" d="M110.34,72.06c0,.62-.5,1.12-1.12,1.12s-1.12-.5-1.12-1.12,.5-1.12,1.12-1.12,1.12,.5,1.12,1.12Z"/>
          <path class="cls-11" d="M107.25,69.13c.58-.6,2.33-.88,3.37-.1"/>
          <path class="cls-17" d="M118.03,72.48c0,.62-.5,1.12-1.12,1.12s-1.12-.5-1.12-1.12,.5-1.12,1.12-1.12,1.12,.5,1.12,1.12Z"/>
          <path class="cls-11" d="M118.59,69.65c-.55-.64-2.28-1-3.36-.29"/>
          <path class="cls-14" d="M113.81,71.38c-.69,1.07,.68,3.88,1.06,5.02,.26,.77,.74,2.11,.3,2.92-.6,1.13-1.54-.02-1.93-.69"/>
          <g>
            <path class="cls-17" d="M114.75,81.26c-1.85,.26-3.61-.16-5.36-.83-.96-.37-1.9-.7-2.51-1.52-.28,.85-.04,2.28,.25,3.09,.58,1.62,2.12,2.66,3.83,2.58,1.63-.07,3.42-1.42,3.73-3.05-.01,.09,.03,.09,.06-.27Z"/>
            <path class="cls-19" d="M112.79,82.39c.17-.23,.23-.76,.32-1.04,0-.01,0-.02,.01-.03-1.27-.07-2.51-.41-3.74-.89-.96-.37-1.9-.7-2.51-1.52-.14,.43-.15,1.01-.09,1.58,1.39,.97,2.99,1.7,4.67,2.01,.42,.08,1.07,.27,1.33-.1Z"/>
          </g>
        </g>
        <path class="cls-17" d="M116.25,55.01c-1.31-1.03-3.01-1.21-4.58-1.66-1.14-.33-2.35-.66-3.55-.46-1.02,.17-2.06,.54-3.09,.62,.54,.11,1.1,.28,1.62,.48-2.32,.19-4.3,.24-6.21,1.87-.9,.77-1.71,2.26-2.84,2.67,.44,.39,1.08,.76,1.57,1.32,.02-.01,.04-.02,.06-.04-.68,.86-1.2,1.93-1.48,3.29-.43,2.13-.78,5.01-.78,8.08-.05-.04,.97,.46,1.84,2.02,.47,.84,.97,1.81,1.63,2.48-.03-2.32-.46-4.47,.5-6.73,.52-1.24,1.21-2.36,1.25-3.75,.05-1.42-.27-2.82-.13-4.24,.06-.61,.15-1.11,.36-1.61,.39,.05,.76,.11,1.07,.17,1.47,.29,2.82,1.09,4.14,1.75,2.24,1.13,4.71,1.75,7.22,1.75,1.34,0,3.19-.18,3.6-1.65,.6-2.11-.5-5.02-2.18-6.35Z"/>
      </g>
      <g>
        <g>
          <path class="cls-20" d="M42.39,22.15c.36-2.12,.94-5.02,.52-7.12-.17-.86-.67-1.5-1.14-2.23-.72-1.13-.87-2.64-.94-3.94-.07-1.4-.04-2.79-.17-4.17-.06-.62-.33-1.71-.15-2.28,.34-1.03,1.21-.64,1.61,.18,.57,1.17,.02,2.87,.69,3.93,.19,.3,.62,.74,.99,.52,.45-.27,.04-1.35-.02-1.76-.09-.6-1.01-6.39,1.3-5.07,.89,.51,.64,3.01,.67,3.93,.03,.8-.26,3.17,.74,3.58,1.71,.71,.31-7.03,2.67-7.11,1.65-.06,1.04,2.8,.97,3.74-.04,.57-.59,3.25,.11,3.52,1.02,.4,1.33-5.58,3.01-5.97,2.08-.48,.51,3.39,.36,4.09-.31,1.42-.41,2.86-.56,4.31-.04,.41-.34,1.27,.08,1.6,.84,.67,2.07-1.64,2.47-2.13,.46-.57,1.18-1.78,2.02-1.82,1.05-.05,.92,1,.59,1.69-.65,1.39-1.57,2.56-2,4.06-.43,1.5-.86,2.78-2.45,3.41-.67,.27-1.4,.15-1.96,.62-1.02,.85-1.62,2.66-2.04,3.85-.43,1.2-.73,2.47-1.23,3.64-2.24-.63-4.16-1.4-5.99-2.74-.03,.1,0,.2-.15-.32Z"/>
          <path class="cls-14" d="M47.33,14.76s1.84-2.67,5.8-2.86"/>
          <line class="cls-14" x1="42.58" y1="8.43" x2="52" y2="8.84"/>
        </g>
        <path class="cls-28" d="M39.25,27.01v-10.12s3.75-2.5,14,2.25l-2.33,11.88-11.67-4Z"/>
        <path class="cls-28" d="M61.58,167.76l-3.67,8s4.83,5.83,13.17,6.33c12.69,.76,20,2.17,20,2.17l3.5-11.5-33-5Z"/>
        <path class="cls-23" d="M99.74,93.45c3.39-5.43-.47-11.52-5.65-12.42-6.33-1.1-10-3.39-10-3.39l.9,5.89c-1.81-.5-3.79-.94-5.99-1.27-13.5-2-27.25-15.08-27.25-15.08,0,0,2.25-15.67,1.5-25.67-.34-4.5-.27-7.79-.09-10.04,.19-2.42-1.25-4.67-3.51-5.55l-7.36-2.86c-3.25-1.26-6.85,.75-7.44,4.19-.6,3.45-1.52,7.5-2.84,10.27-2.44,5.11-15.74,28.96-15.52,48.77,.05,4.28,2.38,8.2,6.13,10.25,5.18,2.83,13.33,7.05,20.89,9.98,16.77,6.5,28,18,28,18,0,0-1.5,22.75-11.23,35.25-7.29,9.37,5.82,14.43,10.98,15.5,7.5,1.56,23.96,6.25,27.23-5,3.13-10.77,10.1-52.95,1.25-76.81Z"/>
        <path class="cls-13" d="M84.99,83.53s7.76,3.4,10.43,9.73"/>
        <line class="cls-13" x1="51.75" y1="67.18" x2="50.08" y2="82.59"/>
        <path class="cls-9" d="M68.29,159.09s5.17-12.67,12-17.5"/>
      </g>
    </g>
    <g>
      <g>
        <path class="cls-24" d="M128.14,126.47s2.02-7.29,1.9-8.22c-.21-1.61-2.89-3.56-4-4.84-1.23-1.41-2.05-3.07-3.29-4.38-.53-.56-4.34-3.71-2.79-4.46,1.39-.67,3.87,3.15,5.36,3.49-1.25-1.35-3.82-4.59-3.6-6.88,.06-.59,.82-.84,1.22-.39,.94,1.03,2.19,2.56,2.71,3.49-.55-.88-3.39-5.7-1.53-6.17,1.29-.33,3.94,6.81,6.05,7.18,.25-2.04-1.58-6.65-.33-7.46,1.87-1.22,2.08,3.11,2.3,4.05,.5,2.17,1.58,4.96,3.4,6.35-.37-3.01,2.01-6.86,3.03-4.78,.25,.52-.47,2.28-.43,3,.1,1.61,.77,3.11,.84,4.73,.13,2.9-1.35,4.45-2.3,6.93-1.11,2.9-1.34,9.14-1.34,9.14l-7.21-.79Z"/>
        <path class="cls-14" d="M133.76,114.63c-1.25-1.59,.85-5.01,1.33-6.33"/>
        <path class="cls-14" d="M126.59,110.46c.59-1.17,1.73-2.02,2.7-2.88,.93-.82,2.75-2.56,3.71-2.7"/>
      </g>
      <g>
        <path class="cls-18" d="M237.88,91.36c-.03-.36-.37-.73-.54-1.04-.45-.82-.64-1.73-.74-2.65-.12-1.09-.11-2.15,.04-3.23,.03-.2,.11-1.2,.37-1.34,.71-.38,.91,2.89,.92,3.3-.24-.67-.09-1.75,.05-2.45,.15-.77,.47-.61,.63,.04,.33,1.37,.49,2.82,.76,4.21-.16-.53-.15-1.15-.11-1.72,.04-.44-.06-1.31,.38-1.62,.58-.39,.65,.76,.73,1.14,.3,1.5,.8,2.98,1.68,4.25,.46,.67,1.11,1.22,1.35,2.02,.24,.77,.28,1.6,.39,2.39-.53-.12-1.14-.45-1.69-.63-.97-.31-1.91-.61-2.77-1.17-.41-.26-.76-.54-1.07-.92-.11-.13-.26-.43-.39-.58Z"/>
        <path class="cls-24" d="M245.92,103.69c-.46-2.12-3.14-5.61-5.07-7.16-3.44-2.78-6.13-3.6-6.63-8.46-.09-.92,0-1.94-.13-2.87-.11-.85-.58-1.57-.47-2.47,1.89-.49,2.42,3.98,3.17,5.14,.97,1.49,2.98,3.52,4.61,4.38,.06,.06,.06,.06,0,0-.97-1.11-2.65-4.18-1.02-5.39,.94,1.47,.83,2.09,2.67,2.92,1.12,.51,2.71,.62,4.46,2.33,1.29,1.26,1.28,4.05,2.17,5.59,1.02,1.77,2.25,4.21,3.16,5.99h-6.92Z"/>
      </g>
      <g>
        <path class="cls-24" d="M117.67,353.21l-7.33,27s-9.84,2.66-18.22,5.49c-3.04,1.02-2.3,5.51,.9,5.51h29.15c1.3,0,2.45-.83,2.86-2.06l11.98-35.93h-19.33Z"/>
        <polygon class="cls-18" points="115.91 359.72 134.3 361.32 137.01 353.21 117.67 353.21 115.91 359.72"/>
        <path class="cls-17" d="M104.24,381.93c-3.49,1.01-7.98,2.37-12.12,3.76-3.04,1.02-2.3,5.51,.9,5.51h29.15c1.3,0,2.45-.83,2.86-2.06l1.67-5.02c-15.12,4.77-20.86-.18-22.46-2.19Z"/>
      </g>
      <g>
        <path class="cls-24" d="M197.84,353.21l-5.67,27s9.84,2.66,18.22,5.49c3.04,1.02,2.3,5.51-.9,5.51h-29.15c-1.3,0-2.45-.83-2.86-2.06l1.02-35.93h19.33Z"/>
        <polygon class="cls-18" points="178.34 359.17 196.68 358.73 197.84 353.21 178.51 353.21 178.34 359.17"/>
        <path class="cls-17" d="M198.28,381.93c3.49,1.01,7.98,2.37,12.12,3.76,3.04,1.02,2.3,5.51-.9,5.51h-29.15c-1.3,0-2.45-.83-2.86-2.06l.16-5.78c15.12,4.76,19.02,.58,20.63-1.42Z"/>
      </g>
      <path class="cls-21" d="M147.85,216.79l74.83,.08s-1.93-18.26-2.9-29.05-1.39-18.94-1.39-18.94l-59.37,.82s4.34,23.17-11.17,47.09Z"/>
      <g>
        <path class="cls-28" d="M209.24,190.79l-13.43-1.14-30.41-2.61s-8.26,8.24-17.59,36.5c-9.34,28.26-25.95,94.89-35.88,134.5h30.93l40.33-107.27-13.6,104.77h31.75s8.06-83,14.81-114c5.65-25.97-6.91-50.75-6.91-50.75Z"/>
        <path class="cls-11" d="M183.19,250.78s17.43-27.89,15.79-57.23"/>
        <path class="cls-11" d="M198.58,206.35s6.01-1.95,5.19-13.47"/>
        <line class="cls-11" x1="114.64" y1="347.22" x2="146.48" y2="348.42"/>
        <line class="cls-11" x1="170.83" y1="345.99" x2="201.82" y2="345.24"/>
      </g>
      <path class="cls-18" d="M165.4,187.04s30.94,11.67,43.84,3.75c0,0,10.35-33.4,7.66-40.5-3.3-8.69-6.6-19.33-17.03-20.75,0,0-22.22-4-27.72,1.5s-9.25,14.5-4.75,30.75-2,25.25-2,25.25Z"/>
      <g>
        <path class="cls-22" d="M197.9,129.23s16,21.07,15,45.32-5.25,56-5.25,56c0,0,10.5-2,15.25-11.25,0,0-6-54.17-4.5-62.17,0,0,48.75,8.58,55,2.17,6.25-6.42,6.25-19-.75-29.5s-18-31.48-18-31.48l-11.5,1.58,8.89,34.65s-21.14-1-30.64-3-12.16-4.88-23.5-2.32Z"/>
        <path class="cls-10" d="M253.59,141.74l-1.55-7.19s7.3,3.25,9.8,8.25"/>
        <line class="cls-10" x1="218.4" y1="157.13" x2="219.59" y2="144.79"/>
      </g>
      <g>
        <path class="cls-24" d="M186.73,113.48l-2.65,17.75s5.36,9.06,9.76,9.32c2.04,.12,3.62-4.5,4.51-7.69l.62-17.15-12.25-2.23Z"/>
        <path class="cls-18" d="M187.13,117.94s-2.15,13.16,11.22,14.91l.38-13.25-11.6-1.66Z"/>
        <path class="cls-24" d="M199.88,97.26c-5.09-.85-10.27,4.33-12.18,11.84-.19-.48-.69-2.46-3.19-1.71-1.8,.54-2.33,6.92,2.43,7.6-.03,6.92,3.07,12.56,7.75,13.35,5.54,.92,11.19-5.28,12.62-13.86,1.43-8.58-1.9-16.29-7.43-17.21Z"/>
        <g>
          <path class="cls-17" d="M195.43,112.79c0-.46,.37-.83,.83-.83s.83,.37,.83,.83-.37,.83-.83,.83-.83-.37-.83-.83Z"/>
          <path class="cls-17" d="M202.55,114.88c0-.46,.37-.83,.83-.83s.83,.37,.83,.83-.37,.83-.83,.83-.83-.37-.83-.83Z"/>
          <path class="cls-11" d="M194.55,109.42s2.33-1.79,4.18,.25"/>
          <path class="cls-11" d="M202.97,111s2.29-.67,2.92,1.79"/>
          <path class="cls-14" d="M201.25,111.25c-1.17,1.79-.47,3.76-.81,5.76-.1,.6-.46,1.75-1.21,1.79-.31,.01-.63-.21-.84-.43-.13-.14-.29-.52-.34-.53"/>
          <path class="cls-14" d="M194.55,119.99c.46,.5,1.04,.92,1.58,1.22,.93,.52,1.81,.83,2.88,.88"/>
        </g>
        <path class="cls-17" d="M185.69,107.7s.11,1.28,.58,2.27c.48,.99,1.54,2.17,1.54,2.17l2.88-7.98c.67-1.36,1.87-2.39,3.32-2.84,1.47-.45,3.48-.9,5.58-.83,1.29,.04,2.52,.49,3.55,1.26,1.31,.98,3.12,2.65,4.18,4.95,0,0,.73,4.43-.24,8.99,0,0,1.7-.64,1.99-2.91,.29-2.27,.26-7.19-.42-9.44-.54-1.79-1.5-6.29-9.54-7.29-2.44-.3-4.54,.09-6.18,.66-2.28,.8-4.06,2.63-4.92,4.9l-2.32,6.09Z"/>
      </g>
      <g>
        <path class="cls-22" d="M184.5,128.42s-12-.76-19,4.43c-7,5.19-30.71,20.09-30.71,20.09l3.12-31.39h-11.39s-21.36,34-19.36,66.5c0,0,5,4.75,12,0s39.72-21.75,39.72-21.75c0,0,.72,12.75,0,18.75-.72,6-11.02,31.75-11.02,31.75,0,0,10.05,15,30.05,18.25,0,0,1.86-44.21,7.79-58.67,7.18-17.5-1.19-47.96-1.19-47.96Z"/>
        <g>
          <path class="cls-10" d="M184.08,157.08l-.42,4.43s-4.86-.08-6.93,1.73c-.83,.73-1.64,1.27-2.31,1.67-.95,.56-2.15,.48-3-.23h0c-1.77-1.46-3.73-2.66-5.84-3.57l-1.65-.72,.43-4.6,19.72,1.28Z"/>
          <path class="cls-21" d="M171.95,160.56c.05-.55,.54-.95,1.09-.9,.55,.05,.95,.54,.9,1.09-.05,.55-.54,.95-1.09,.9-.55-.05-.95-.54-.9-1.09Z"/>
          <path class="cls-10" d="M164.25,160.55l-.61,10.62c-.13,2.24,1.19,4.32,3.28,5.15l3.86,1.55c1.34,.54,2.84,.57,4.2,.09l3.5-1.24c1.89-.67,3.23-2.35,3.46-4.33l1.25-10.86"/>
        </g>
        <path class="cls-10" d="M134.78,152.94s.06,5.36-4.19,13.11"/>
      </g>
      <path class="cls-17" d="M183.61,112.44c-.47,.1-.66,2.76-1.08,3.51-1.78,3.15-4.73,5.64-7.24,8.2-4.2,4.28-9.31,8.57-11.14,14.49-2.95,9.56,2.33,17.51,9.51,23.37,2.74,2.23,7.02,5.02,7.14,9.03,1.45-2.71,3.6-5.29,4.82-8.27,1.36-3.32,1.3-6.83,1.55-10.33,.57,.59,1.15,1.46,1.7,2.11,.3-2.89,1-5.72,.67-8.68-.34-2.94-1.27-5.57-2.51-8.21-.94-2.01-1.81-4.29-2.28-6.48-.41-1.94-.09-4.16,.25-6.09,.6-3.43,1.22-6.9,1.76-10.27-1.07-.28-2.48-.77-3.14-2.38Z"/>
    </g>
    <g>
      <g>
        <g>
          <path class="cls-16" d="M340.44,362.67l-2.95,30.55,29.13,1.8c2,.12,2.92-2.44,1.3-3.62l-13.69-9.93,5.24-20.85-19.03,2.04Z"/>
          <polygon class="cls-26" points="359.46 360.62 340.44 362.67 339.95 367.67 357.4 368.84 359.46 360.62"/>
          <path class="cls-17" d="M361.33,386.63c-2.11,5.23-17.62,.79-23.11-.97l-.73,7.56,29.13,1.8c2,.12,2.92-2.44,1.3-3.62l-6.59-4.78Z"/>
        </g>
        <path class="cls-15" d="M359.84,196.16l10.08-1.08s21,57.75-9.04,169.08h-25.5s5.02-18.94,1.79-37.33c-3.23-18.4,6.14-43.33,6.14-43.33,0,0-32.38-55.33-14.43-87.33h30.96Z"/>
        <g>
          <path class="cls-16" d="M327.37,335.64l-16.2,32.77,28.73,13c1.82,.83,3.59-1.24,2.5-2.92l-10.12-15.44,13.1-18.78-18-8.63Z"/>
          <polygon class="cls-26" points="322.1 346.3 341.16 350.31 345.37 344.27 327.37 335.64 322.1 346.3"/>
          <path class="cls-17" d="M337.4,370.87c-4.08,4.41-17.84-5.87-22.65-9.71l-3.58,7.25,28.73,13c1.82,.83,3.59-1.24,2.5-2.92l-5-7.62Z"/>
        </g>
        <g>
          <path class="cls-27" d="M325.56,196.16s-19.45,27.67-8.67,47.17c10.78,19.5,35.98,39.5,35.98,39.5,0,0-18.96,6.5-22.21,30.5s-8.69,27.7-8.69,27.7l24.21,6.8s47.2-49,46.6-63.5c-.61-14.5-32.94-88.17-32.94-88.17h-34.28Z"/>
          <line class="cls-4" x1="325.48" y1="335.31" x2="353.22" y2="340.32"/>
          <path class="cls-4" d="M337.17,337.42l30.58-54.5s-50.6-41.14-34.65-73.74"/>
          <path class="cls-4" d="M330.75,230.31s11.07-1.9,10.68-20.31"/>
        </g>
      </g>
      <path class="cls-17" d="M323.15,94.38c-9.61,.88-6.24,8.06-9.52,10.93-1.5,1.32-3.15,2.64-3.44,4.65-.3,2.11,.81,3.97-.79,5.83-1.31,1.51-2.96,1.84-3.59,3.87-.64,2.06,.61,3.93-.24,5.92-.8,1.87-2.16,2.95-2.49,5.09-.3,1.92-1.15,5.89,.23,7.49,2.9,3.37,8.15,5.5,13.6,4.83,5.65-.69,14.73-4.1,20.27-3.83,8.97,.43,19.6,3.87,26.29-5.02,1.07-1.43,1.68-2.78,1.7-4.49,.03-2.2-1.51-3.27-1.84-5.19-.41-2.41,1.97-4.83,1.85-7.37-.14-2.78-2.24-4.75-4.92-5.91-1.73-.75-4.88-1.21-5.79-3.02-1.08-2.15,.83-4.48-1.12-6.58-1.87-2.02-4.47-1.27-6.88-2.05-2.47-.79-2.16-1.96-2.88-3.83-1.07-2.77-3.95-2.09-6.57-3.36-2.73-1.33-7.8-2.68-9.46,.12-1.21,2.04-3.3,1.73-4.4,1.93Z"/>
      <g>
        <path class="cls-16" d="M375.68,90.33c-2.81-3-5.99-6.05-7.12-6.16-2.23-.23-5.41,.16-7.43-.75-.12-1.65,.17-3.28,.12-4.95-.04-1.42-.65-2.71-.7-3.96-.07-1.8,.9-.79,1.98-1.46,1.22-.76,1.93-2.06,3.08-2.92,2.25-1.69,5.42,.12,7.29,1.78,1.26,1.12,.17,2.21,.79,3.58,.46,1.01,1.92,.84,2.52,2.01,.36,.71,.13,1.36,.32,2.12,.13,.54,2.97,3.41,5.71,6.55l-6.56,4.17Z"/>
        <path class="cls-5" d="M362.18,77.16c2.04-.42,3.59-2.11,5.34-3.15,1.62-.96,1.63,1.03,1.21,2.15-.31,.83-.93,1.55-1.68,2.01,2.1-.54,5.75-.1,5.55,2.83"/>
        <path class="cls-5" d="M369.51,77.74c1.69-1.29,3.76-2.39,4.75-4.42"/>
      </g>
      <g>
        <path class="cls-25" d="M402.68,93.99c-7-2.75-11.28-5.32-13.65-7.01-1.22-.87-2.73-1.16-4.16-.87l-2.69-4.05-10.58,7.19,3.59,2.99c-.57,1.23-.68,2.66-.21,4.02l.46,1.32c1.56,14.92,11.13,22.48,11.13,22.48l-43.25,14.06-10.89,.21s-18.26,1.03-26.13,12.09c-7.87,11.07-19.87,22.08-19.87,22.08,0,0-8.75-7.54-17-6.61-1.04,.12-2.05,.5-3,1.09-3.18-.25-6.56,1.43-8.56,4.6-2.58,4.1-1.93,9.22,1.37,11.83,.12,3.72,1.22,7.41,3.69,10.36,8,9.55,31.5,19.05,42.25,14.05s17.22-20.5,17.22-20.5c0,0,3.72,9.5,0,15.75-3.72,6.25,15.03,12,31.03,10.75s21.32-8.19,17.5-14.75c-7.95-13.62,8.49-28.5,5.84-39.92,14-5.52,35-14.81,41.79-23.15,10.5-12.9-1.89-32.52-15.89-38.02Z"/>
        <path class="cls-8" d="M377,156.57c-.15-1.66-.67-3.25-1.69-4.76-3.68-5.48-9.25-8.78-16.82-13.41"/>
        <path class="cls-8" d="M322.39,183.33s1.59-15.6-1.73-20.8"/>
        <path class="cls-8" d="M286.43,168.5s10.08,4.33,12.75,13.49"/>
        <path class="cls-8" d="M386.56,120.06s9.61,1.1,12.45,4.52"/>
      </g>
      <g>
        <path class="cls-16" d="M261.79,176.6c-2.72-1.8-10.77-6.4-10.77-6.4-1.85-.38-4.31-.56-5.96-1.51-2.39-1.39-.93-5.31,.08-7.19,1.18-2.2,.32-2.87,0-5.12-.39-2.76,1.34-3.08,3.48-2.62,1.66,.36,1.29-.35,2.73-.98,.89-.39,1.34-.05,2.19,.51,.91,.6,1.66,1.44,2.56,2.08,1.09,.77,2.27,1.17,2.84,2.45,.73,1.62,.41,3.54,.92,5.18,.92,2.95,7.04,7.06,7.04,7.06,1.5,4.49-2.17,7.66-5.12,6.55Z"/>
        <path class="cls-5" d="M249.93,153.64c-.02,.35-.31,.92-.41,1.32-.16,.59-.28,1.19-.45,1.78-.25,.89-.65,2.04-.27,2.95,.31,.74,1.53,1.63,2.05,.58,.41-.84,.54-1.82,.99-2.65-.31,1.23-.45,2.81,.04,4.01,.63,1.52,2.35,2.69,3.98,2.83"/>
        <path class="cls-5" d="M252.14,162.12c.17,.2,.12,.71,.12,.97,0,.68-.02,1.35-.1,2.03-.16,1.35-.87,3.28-2.52,3.29"/>
      </g>
      <g>
        <path class="cls-12" d="M341.53,117.22c2.85-1.4,6.38-.66,8.39,1.95,2.31,2.98,1.76,7.26-1.21,9.57-2.98,2.31-7.26,1.76-9.57-1.21-2.08-2.68-1.84-6.42,.4-8.82"/>
        <path class="cls-16" d="M343.17,136.46l-2.7-15.83-11.58-.56,1.65,15.92c-1.65,.26-2.77,1.33-2.94,2.18-.75,3.75,4.24,6.09,9.13,7.19,4.88,1.1,9.37-.35,10.02-3.25,.45-1.99-1.03-4.13-3.57-5.64Z"/>
        <path class="cls-26" d="M343.31,137.3h0l-2.85-16.68-11.58-.56s4.81,12.31,14.43,17.25Z"/>
        <path class="cls-16" d="M344.63,113.75c.25-2.67-.32-5.46-1.67-7.71-.15-.06-.31-.1-.45-.1-1.01,0-1.71,.03-2.76-.26-1.16-.32-1.6-.6-2.54,.19-1.11,.93-2.92,.49-4.25,.14-.88-.23-2.49-1.15-3.32-.43-.39,.35-.36,.96-.34,1.48,.03,.51,.15,.99-.06,1.5-.18,.43-.7,.68-.79,1.11-.15,.76,.64,1.57,.57,2.39-.05,.54-.42,.87-.5,1.35-.26,1.6,1.44,2.69,1.61,4.11,.17,1.43-1.95,.39-2.45-.16-.35-.38-.57-.92-1.04-1.15-.5-.24-1.12-.06-1.64-.19-.62-.16-1.19-1-1.79-1.22-.06,.08-.12,.15-.18,.24-2.11,3.31,1.33,6.46,5.91,6.3,1.78,4.18,5.88,11.25,12.72,9.22,8.47-2.52,2.33-10.17,2.97-16.83Z"/>
        <path class="cls-17" d="M334.12,115.11c-.19-.42,0-.91,.42-1.09,.42-.19,.91,0,1.09,.42s0,.91-.42,1.09c-.42,.19-.91,0-1.09-.42Z"/>
        <path class="cls-17" d="M340.88,114.09c-.19-.42,0-.91,.42-1.09,.42-.19,.91,0,1.09,.42,.19,.42,0,.91-.42,1.09-.42,.19-.91,0-1.09-.42Z"/>
        <path class="cls-11" d="M331.88,111.32s1.99-1.52,4.51-.41"/>
        <path class="cls-11" d="M340.42,110.5s1.75-1.7,4.11,0"/>
        <path class="cls-5" d="M339.34,111.32c-.34,2.11,1.11,3.63,1.62,5.59,.15,.59,.3,1.79-.38,2.13-.28,.14-.66,.07-.94-.05-.17-.07-.48-.36-.53-.35"/>
        <path class="cls-14" d="M341.26,122.69c-1.05,.23-1.97,.17-3.01-.08-.6-.15-1.27-.39-1.85-.75,.48-.06,.77-.36,1.18-.61,.53-.32,.65-.28,1.22-.06,.15,.06,.48,.28,.63,.27,.3-.01,.2-.15,.46-.27,.44-.22,.78-.33,1.2,.02,.38,.31,.46,1.05,.17,1.49Z"/>
        <path class="cls-12" d="M327.65,120.47c3.11,.64,5.44,3.38,5.44,6.68,0,3.77-3.05,6.82-6.82,6.82s-6.82-3.05-6.82-6.82c0-3.39,2.47-6.2,5.71-6.73"/>
      </g>
    </g>
    <g>
      <g>
        <path class="cls-20" d="M389.05,81.21c.71-4.05,1.78-14.24,2.66-14.96,1.74-1.41,4.61-2.83,5.8-4.7-.8-1.44-1.94-2.65-2.82-4.07-.75-1.21-.94-2.62-1.59-3.7-.92-1.54-1.18-.17-2.46-.14-1.44,.03-2.74-.66-4.17-.75-2.81-.18-4.47,3.06-5.12,5.49-.44,1.63,1.07,1.94,1.3,3.43,.17,1.1-1.15,1.76-1,3.06,.09,.79,.64,1.21,.89,1.95,.18,.52-.7,10.39-1.27,14.51l7.77-.11Z"/>
        <path class="cls-14" d="M396.21,61.49c-2.04-.42-3.59-2.11-5.34-3.15-1.62-.96-1.63,1.03-1.21,2.15,.31,.83,.93,1.55,1.68,2.01-2.1-.54-5.75-.1-5.55,2.83"/>
        <path class="cls-14" d="M388.88,62.08c-1.69-1.29-3.76-2.39-4.75-4.42"/>
      </g>
      <g>
        <path class="cls-20" d="M449.8,71.53c.36-2.88,1.92-14.99,1.92-14.99,.81-1.47,2.13-3.24,2.43-4.91,.45-2.42-3.05-3.71-4.91-4.12-2.17-.48-2.13-1.45-3.46-2.97-1.64-1.86-2.86-.88-3.79,.84-.72,1.33-.98,.67-2.24,1.28-.78,.38-.81,.88-.92,1.78-.12,.96,.01,1.96-.08,2.93-.11,1.19-.53,2.21,0,3.34,.67,1.43,2.15,2.33,2.96,3.63,1.46,2.34,.69,12.85,.69,12.85,2.17,3.62,6.44,2.97,7.4,.33Z"/>
        <path class="cls-3" d="M441.15,46.19c.25,.19,.8,.32,1.13,.48,.49,.24,.97,.5,1.47,.73,.75,.35,1.76,.75,2.15,1.52,.32,.63,.22,1.98-.8,1.72-.81-.21-1.54-.69-2.37-.86,1.01,.5,2.16,1.32,2.68,2.35,.66,1.31,.46,3.15-.4,4.33"/>
        <path class="cls-3" d="M445.61,52.6c.04,.23,.41,.49,.59,.65,.46,.4,.93,.77,1.43,1.1,1.01,.67,2.72,1.32,3.69,.2"/>
      </g>
      <g>
        <path class="cls-20" d="M441.58,356.34s9.75,20.25,10.5,33c0,0-10.39,5-29.57,3.5,0,0-6.18-2.59,2.82-6.8s9.75-5.98,9.75-5.98l-7.5-21.48,14-2.25Z"/>
        <path class="cls-16" d="M441.58,356.34l-14,2.25,5.56,15.92,15.31-1.14c-3.04-9.08-6.87-17.03-6.87-17.03Z"/>
        <path class="cls-23" d="M422.51,392.84c19.18,1.5,29.57-3.5,29.57-3.5-.06-1.09-.2-2.24-.38-3.42-3.99,.49-8.47,1.04-12.37,1.42-8.5,.82-9.59-3.5-9.59-3.5h0c-1.19,.65-2.63,1.38-4.41,2.2-9,4.2-2.82,6.8-2.82,6.8Z"/>
      </g>
      <g>
        <path class="cls-20" d="M393.53,354.84l-9.04,29.99s-10.42,10.15-9.08,17.64c1.14,6.35,16.25-6.62,20.84-10.73,.86-.77,1.52-1.71,1.95-2.78l13.71-34.12h-18.38Z"/>
        <polygon class="cls-16" points="411.25 356.5 403.47 354.84 393.53 354.84 387.54 374.73 403.92 374.73 411.25 356.5"/>
        <path class="cls-23" d="M380.8,389.02c-2.85,3.64-6.18,9.01-5.38,13.45,1.14,6.35,16.25-6.62,20.84-10.73,.86-.77,1.52-1.71,1.95-2.78l.93-2.32c-2.15,2.07-5.27,4.37-9.05,5.2-4.95,1.08-7.87-1.18-9.28-2.82Z"/>
      </g>
      <path class="cls-17" d="M400.4,135.41c-.25-3.67-2.51-8.37-1.72-13.01,.83-4.9,2.82-8.98,7.08-11.64,9.45-5.91,16.53-2.06,23.76,5.45,7.15,7.44,8.68,17.69,12.43,26.92,3.63,8.94,11.71,15.6,16.65,23.69,5.31,8.7,8.05,25.31-3.8,29.85-3.08,1.18-6.57,.87-9.81,1.4-4.67,.76-8.93,2.9-13.36,4.39-5.33,1.79-10.2,4.4-15.71,5.77-6.87,1.72-18.31,2.1-23.87-3.33-7.81-7.63,.68-24.63,4.17-32.36,5.38-11.91,7.48-23.7,5.08-36.16-.08,.28-.19,.56-.91-.96Z"/>
      <g>
        <path class="cls-18" d="M402.12,202.32s-19.62,18.96-20.34,37.95c-1.78,46.95,45.7,107.14,44.23,131.84l27.22-2.39s-6.66-50.55-25.47-85.44c0,0,24.41-42.46,15.05-78.98l-40.69-2.98Z"/>
        <path class="cls-18" d="M416.32,203.36l-30.97,168.75h28.89s10.08-78.35,20.99-95.55c10.91-17.2,19.17-30.29,7.58-71.26l-26.49-1.94Z"/>
        <path class="cls-6" d="M397.65,305.08s6.36-90.15,12.72-102.16"/>
        <line class="cls-6" x1="417.65" y1="348.6" x2="422.51" y2="320.72"/>
        <path class="cls-1" d="M428.58,210.74s8.16,20.36,19.83,29.11"/>
        <path class="cls-6" d="M404.72,202.51s-7.08,21.29,1,21.29"/>
        <line class="cls-6" x1="387.45" y1="360.62" x2="415.83" y2="360.62"/>
        <line class="cls-6" x1="424.42" y1="361.16" x2="451.33" y2="358.15"/>
      </g>
      <g>
        <path class="cls-28" d="M443.24,185.11c2.71-18.73,13.36-30.41,8.91-57.07-3.15-18.86,1-59.82,1-59.82h-13.36c-8.8,13.09-10.63,54.3-11.81,68.51-.34,4.11-3.78,7.27-7.9,7.27,0,0-3.92,.85-7.52,2.76-19.65-11.53-20.98-70.8-20.98-70.8h-13.96l-1.48,25.31c-5.24,33.73,13.48,57.19,22.47,66.27-.43,.78-.82,1.61-1.1,2.52-2.08,6.62,2.67,8.52,4.75,14.76,1.08,3.25-1.06,12.64-3.36,20.88-2.11,7.56,43.98,5.97,43.9-.39-.14-10.44,.44-20.19,.44-20.19Z"/>
        <path class="cls-2" d="M397.52,170.05c2.08-6.62,8.91-9.27,9.2-16.26"/>
        <path class="cls-2" d="M406.72,183.59s9.68-1.75,17.02,1"/>
        <line class="cls-2" x1="428.11" y1="135.03" x2="426.58" y2="153.79"/>
      </g>
      <g>
        <path class="cls-20" d="M412.74,148.63l.89-11.03,10.12-3.33,1.54,7.4c.45,2.18-.24,4.44-1.83,5.99l-8.02,9.71-2.69-8.75Z"/>
        <path class="cls-18" d="M423.74,134.27l-10.12,3.33-.89,11.03c11-3.79,11-14.36,11-14.36Z"/>
        <path class="cls-20" d="M427.21,126.24l-3.47,3.71c-1.64-2.63-5.31-3.33-8.89-4.49-4.45-1.45-5.68-4.79-5.68-4.79-1.32,7.49-4.24,10.04-4.3,10.09,.03,.29,.05,.58,.08,.88,.98,7.46,5.94,12.96,11.08,12.28,3.58-.47,6.58-4.25,7.71-9.67,6.06-2.14,3.47-8.03,3.47-8.03Z"/>
        <g>
          <path class="cls-11" d="M416.73,126.76s-2.5-1.55-4.13,.67"/>
          <path class="cls-11" d="M408.57,128.52s-2.18-.97-3.13,1.37"/>
          <path class="cls-14" d="M410.21,128.72c1.08,1.84,.29,3.78,.52,5.79,.07,.6,.37,1.78,1.12,1.85,.31,.03,.64-.18,.86-.39,.13-.13,.31-.51,.37-.51"/>
          <path class="cls-19" d="M412.21,138.03c1.07,0,2.21-.6,3.17-1.08,.56-.27,1.15-.66,1.64-1.14,0,0,1.07,3.39-2.35,4.44l-2.46-2.22Z"/>
          <path class="cls-14" d="M409.12,130.75c-.71-.32-2.13,.41-2.46,1"/>
          <path class="cls-14" d="M415.95,129.02c-.63-.46-2.17-.05-2.61,.45"/>
        </g>
      </g>
    </g>
  </g>
</svg>