<?xml version="1.0" encoding="UTF-8"?>
<svg id="Ebene_2" data-name="Ebene 2" xmlns="http://www.w3.org/2000/svg" viewBox="0 0 426.01 124.86">
  <defs>
    <style>
      .cls-1 {
        fill: #fff;
      }

      .cls-2 {
        fill: #fdfefe;
      }

      .cls-3 {
        fill: #9ddffa;
      }

      .cls-4 {
        fill: #fefefe;
      }

      .cls-5 {
        fill: #fcfcfc;
      }
    </style>
  </defs>
  <g id="Ebene_1-2" data-name="Ebene 1">
    <g>
      <path class="cls-1" d="M307.58,57.51c7.37-17.44,14.81-34.84,22.03-52.34,1.21-2.93,2.73-4.28,5.88-3.83,4.33,.61,10.46-2.1,12.56,1.23,1.7,2.69-2.58,7.68-4.3,11.59-10.6,24.18-21.34,48.3-31.87,72.52-1.25,2.88-2.7,3.91-5.85,3.9-12.82-.07-12.66,.04-13.35-12.75-.8-14.74-1.93-29.47-3.69-44.4-2.76,6.13-5.53,12.25-8.28,18.39-5.23,11.67-10.53,23.31-15.62,35.03-1.13,2.6-2.37,3.93-5.44,3.73-4.64-.3-9.33-.23-13.98-.02-2.9,.13-4.06-.52-4.04-3.78,.15-27.28-.14-54.57,.3-81.84,.12-7.61,6.96-2.45,10.48-3.8,2.77-1.06,4.98-.12,4.94,3.83-.17,16.8-.1,33.6-.11,50.4,0,1.91,0,3.82,.92,5.86,8.06-16.89,16.54-33.61,23.98-50.77,3.11-7.17,6.91-10.71,14.73-9.11,.64,.13,1.34,.11,1.99,0,4.24-.69,5.73,.8,5.77,5.33,.16,16.3,.8,32.59,1.25,48.88,.92,.34-.93,3.09,1.7,1.95Z"/>
      <path class="cls-1" d="M364.14,1.36q8.89,0,7.37,9c-2.41,14.08-4.89,28.15-7.27,42.24-.84,4.95-1.01,9.91,.27,14.85,1.2,4.63,4.2,6.9,8.91,7.32,12.05,1.08,21.73-4.95,24.94-16.87,2.45-9.11,3.62-18.57,5.26-27.89,1.46-8.34,2.85-16.7,4.13-25.08,.4-2.6,1.43-3.76,4.2-3.61,3.82,.2,7.66,.12,11.49,.02,2.2-.06,2.87,.62,2.46,2.91-3.28,18.64-5.33,37.55-10.02,55.89-5.85,22.88-28.81,36.22-51.87,31.23-10.61-2.3-17.09-10.28-18.39-22.08-1.15-10.47,1.52-20.49,3.11-30.64,1.67-10.67,3.82-21.27,5.23-31.97,.6-4.53,2.49-5.95,6.69-5.33,1.14,.17,2.33,.03,3.49,.03Z"/>
      <path class="cls-5" d="M83.52,101.39c-4.39-1.63-8.23-3.11-12.11-4.46-2.58-.89-1.65-2.99-1.65-4.63-.06-21.79-.17-43.59,.07-65.38,.05-4.37-.96-6.4-5.49-7.44-8.44-1.94-16.89-3.71-25.52-4.47-2.55-.22-3.27-1.06-3.36-3.6-.43-12.25-.5-12.37,11.5-10.58,11.22,1.68,22.08,4.73,32.62,8.97,3.16,1.27,4.1,3.02,4.02,6.34-.24,9.48,.11,18.97-.18,28.44-.11,3.57,1.21,5.24,4.25,6.78,5.3,2.69,10.33,5.92,16.1,9.29V24.2c5.69,3.39,9.59,7.38,13.33,11.51,.56,.62,.61,1.85,.61,2.79,.03,28.42,.02,56.84,.02,86.04-4.66-3.83-8.82-7.23-12.96-10.66-1.39-1.15-.87-2.77-.87-4.21-.04-9.98-.14-19.97,.05-29.95,.06-3.04-.85-4.97-3.52-6.4-4.25-2.27-8.43-4.68-12.52-7.23-3.94-2.45-4.53-.91-4.46,2.96,.19,10.6,.07,21.2,.07,32.33Z"/>
      <path class="cls-1" d="M196.17,19.43c-8.65,1.44-15.57,4.18-23.21,7.45,0-4.64,.08-8.69-.03-12.73-.06-1.95,1.19-2.59,2.59-3.18,13.43-5.66,27.35-9.31,41.91-10.5,3.05-.25,3.63,.91,3.62,3.61-.09,14.97-.13,29.95,.04,44.92,.03,3.07-1.08,3.92-3.9,4.29-9.8,1.28-9.78,1.38-9.78-8.46v-15.67c-16.35,19.22-29.21,39.04-40.44,60.03,1.95,.96,3.21-.57,4.6-1.22,13.82-6.52,28.39-10.24,43.5-12.29,4.84-.66,6.32,.61,6.08,5.61-.43,8.78-.1,8.91-7.98,9.91-28.01,3.54-52.96,13.74-73.72,33.66-1.22-1.58-.64-3.27-.64-4.79-.04-25.79,.08-51.58-.13-77.37-.04-4.57,1.04-8,4.7-10.73,2.91-2.18,5.23-5.1,9.1-7.19v56.75c13.94-20.92,27.83-41.48,43.72-62.1Z"/>
      <path class="cls-1" d="M58.5,29.14c-6.32-7.47-14.34-11.68-24.54-11.81-2.74,.16-5.69,.23-8.63,1.08C.02,25.73-8.58,60.35,9.97,80.38c13.82,14.92,36.07,14.23,48.89-1.53,11.49-14.12,11.39-35.82-.36-49.71Zm-24.98,46.21c-10.5-.2-18.87-9.56-18.89-21.12-.02-11.79,8.68-21.31,19.32-21.14,10.49,.17,18.92,9.56,18.92,21.07,.01,11.74-8.8,21.39-19.35,21.19Z"/>
      <path class="cls-3" d="M307.58,57.51c-.17,.94-.77,2.49-1.38,2.04-1.21-.9-.52-2.6-.32-3.99,.57,.65,1.13,1.3,1.7,1.95Z"/>
      <path class="cls-2" d="M205.62,13.14c-9.85,1.55-19.11,3.97-28.17,7.07-1.33-3.83-.06-5.64,3.47-6.97,10.63-4.04,21.57-6.65,32.79-8.3,2.34-.34,3.29,.19,3.27,2.75-.1,12.81-.09,25.62,0,38.43,.02,2.49-1.21,3.14-3.31,3.28-2.9,.2-2.15-1.97-2.16-3.42-.06-8.9-.03-17.81-.03-28.09-22.24,25.32-40.13,51.78-53.17,81.88,2.38-1.3,4.77-2.59,7.14-3.9,14.86-8.22,30.68-13.54,47.59-15.44,1.53-.17,3.87-1.65,3.9,1.74,.02,2.29,.51,4.33-3.16,4.73-17,1.86-33.21,6.54-48.5,14.33-7.72,3.93-14.78,8.84-21.7,14.15-1.37-1.64-.73-3.35-.73-4.88-.05-22.46,.09-44.92-.14-67.37-.04-4.43,1.52-7.16,5.8-9.47v62.3c18.03-28.5,36.59-56.27,57.13-82.82Z"/>
      <path class="cls-4" d="M33.52,33.09c.14,0,.29,0,.43,0"/>
      <path class="cls-4" d="M31.74,33.2c.59-.07,1.18-.1,1.78-.11"/>
      <path class="cls-4" d="M30,33.48c.57-.12,1.15-.22,1.74-.28"/>
      <path class="cls-4" d="M26.32,34.72c1.17-.54,2.4-.96,3.68-1.24"/>
      <path class="cls-4" d="M23.88,36.09c.78-.52,1.59-.98,2.44-1.37"/>
      <path class="cls-4" d="M22.5,37.1c.45-.36,.91-.7,1.38-1.01"/>
      <path class="cls-4" d="M20.12,39.37c.74-.83,1.53-1.59,2.38-2.27"/>
      <path class="cls-4" d="M18.38,41.61c.53-.79,1.11-1.54,1.73-2.24"/>
      <path class="cls-4" d="M17.12,43.75c.38-.74,.81-1.46,1.26-2.14"/>
      <path class="cls-4" d="M16.3,45.54c.25-.61,.52-1.21,.82-1.79"/>
      <path class="cls-4" d="M15.5,47.85c.22-.79,.49-1.56,.79-2.31"/>
      <path class="cls-4" d="M15.06,49.69c.12-.62,.27-1.23,.44-1.84"/>
      <path class="cls-4" d="M14.85,50.99c.06-.44,.13-.88,.22-1.31"/>
      <path class="cls-4" d="M14.74,51.94c.03-.32,.07-.63,.11-.95"/>
      <path class="cls-4" d="M14.63,54.23c0-.77,.03-1.54,.11-2.29"/>
      <path class="cls-4" d="M14.72,56.32c-.06-.69-.09-1.39-.1-2.09"/>
      <path class="cls-4" d="M15.49,60.5c-.17-.59-.31-1.2-.43-1.81"/>
      <path class="cls-4" d="M16.58,63.51c-.43-.96-.79-1.97-1.08-3.01"/>
      <path class="cls-4" d="M17.23,64.85c-.23-.44-.45-.89-.65-1.35"/>
      <path class="cls-4" d="M18.42,66.83c-.43-.63-.83-1.3-1.19-1.98"/>
      <path class="cls-4" d="M19.61,68.43c-.42-.51-.82-1.04-1.19-1.59"/>
      <path class="cls-4" d="M20.21,69.13c-.21-.23-.41-.46-.6-.7"/>
      <path class="cls-4" d="M21.31,70.25c-.38-.36-.74-.73-1.09-1.12"/>
      <path class="cls-4" d="M23.18,71.81c-.65-.48-1.28-1-1.87-1.56"/>
      <path class="cls-4" d="M24.22,72.52c-.36-.23-.7-.46-1.04-.71"/>
      <path class="cls-4" d="M27.31,74.1c-1.08-.43-2.11-.96-3.09-1.58"/>
      <path class="cls-4" d="M29.65,74.85c-.8-.2-1.58-.45-2.34-.75"/>
      <path class="cls-4" d="M30.88,75.1c-.42-.07-.83-.16-1.23-.26"/>
      <path class="cls-4" d="M31.97,75.25c-.37-.04-.73-.09-1.09-.15"/>
      <path class="cls-4" d="M33.52,75.35c-.52,0-1.04-.04-1.55-.1"/>
      <path class="cls-4" d="M34.51,75.34c-.33,.01-.66,.02-.99,.01"/>
      <path class="cls-4" d="M36.25,75.18c-.57,.08-1.15,.14-1.73,.16"/>
      <path class="cls-4" d="M37.94,74.85c-.56,.14-1.12,.25-1.69,.33"/>
      <path class="cls-4" d="M39.23,74.47c-.43,.14-.86,.27-1.3,.38"/>
      <path class="cls-4" d="M41.64,73.46c-.78,.4-1.58,.73-2.41,1.01"/>
      <path class="cls-4" d="M43.27,72.53c-.53,.34-1.07,.65-1.63,.94"/>
      <path class="cls-4" d="M44.34,71.79c-.35,.26-.7,.51-1.07,.74"/>
      <path class="cls-4" d="M45.9,70.49c-.5,.46-1.02,.9-1.57,1.3"/>
      <path class="cls-4" d="M46.73,69.69c-.27,.28-.54,.54-.82,.8"/>
      <path class="cls-4" d="M47.34,69.02c-.2,.23-.41,.45-.62,.67"/>
      <path class="cls-4" d="M48.41,67.73c-.34,.45-.69,.88-1.06,1.3"/>
      <path class="cls-4" d="M49.04,66.83c-.21,.3-.42,.6-.64,.89"/>
      <path class="cls-4" d="M49.68,65.84c-.2,.34-.41,.67-.63,.99"/>
      <path class="cls-4" d="M50.58,64.18c-.28,.57-.58,1.13-.9,1.66"/>
      <path class="cls-4" d="M51.25,62.65c-.21,.52-.43,1.03-.68,1.53"/>
      <path class="cls-4" d="M51.94,60.68c-.2,.67-.43,1.33-.68,1.98"/>
      <path class="cls-4" d="M52.28,59.38c-.1,.44-.21,.87-.34,1.29"/>
      <path class="cls-4" d="M52.48,58.41c-.06,.33-.13,.65-.2,.97"/>
      <path class="cls-4" d="M52.62,57.6c-.04,.27-.09,.54-.14,.81"/>
      <path class="cls-4" d="M52.75,56.53c-.04,.36-.08,.71-.13,1.07"/>
      <path class="cls-4" d="M52.87,54.16c0,.8-.04,1.59-.12,2.37"/>
      <path class="cls-4" d="M52.81,52.51c.04,.54,.06,1.09,.06,1.65"/>
      <path class="cls-4" d="M52.6,50.63c.1,.62,.17,1.25,.21,1.89"/>
      <path class="cls-4" d="M52.28,48.95c.13,.55,.23,1.11,.32,1.67"/>
      <path class="cls-4" d="M51.94,47.67c.13,.42,.24,.85,.34,1.29"/>
      <path class="cls-4" d="M51.51,46.37c.15,.43,.3,.86,.43,1.3"/>
      <path class="cls-4" d="M50.92,44.9c.21,.48,.41,.97,.59,1.46"/>
      <path class="cls-4" d="M50.36,43.75c.2,.38,.38,.76,.56,1.16"/>
      <path class="cls-4" d="M49.77,42.68c.21,.35,.41,.71,.59,1.07"/>
      <path class="cls-4" d="M49.04,41.54c.25,.37,.49,.75,.72,1.13"/>
      <path class="cls-4" d="M48.73,41.09c.11,.15,.21,.3,.32,.45"/>
      <path class="cls-4" d="M48.02,40.17c.24,.3,.48,.6,.7,.92"/>
      <path class="cls-4" d="M47.34,39.37c.23,.26,.46,.53,.68,.8"/>
      <path class="cls-4" d="M46.73,38.72c.21,.21,.42,.43,.62,.66"/>
      <path class="cls-4" d="M45.9,37.92c.28,.26,.55,.52,.82,.79"/>
      <path class="cls-4" d="M45.12,37.25c.27,.22,.53,.44,.78,.67"/>
      <path class="cls-4" d="M44.27,36.59c.29,.21,.58,.43,.86,.66"/>
      <path class="cls-4" d="M42.42,35.4c.64,.36,1.26,.76,1.85,1.19"/>
      <path class="cls-4" d="M41.33,34.84c.37,.18,.73,.36,1.09,.57"/>
      <path class="cls-4" d="M40.54,34.48c.27,.11,.53,.23,.79,.36"/>
      <path class="cls-4" d="M39.55,34.1c.33,.12,.66,.24,.98,.38"/>
      <path class="cls-4" d="M38.59,33.79c.33,.09,.65,.2,.97,.31"/>
      <path class="cls-4" d="M37.6,33.53c.33,.08,.66,.16,.99,.26"/>
      <path class="cls-4" d="M36.45,33.31c.39,.06,.77,.14,1.15,.22"/>
      <path class="cls-4" d="M35.34,33.17c.38,.04,.75,.08,1.12,.14"/>
      <path class="cls-4" d="M33.95,33.09c.47,0,.93,.03,1.39,.08"/>
    </g>
  </g>
</svg>