<?xml version="1.0" encoding="UTF-8"?>
<svg id="Ebene_2" data-name="Ebene 2" xmlns="http://www.w3.org/2000/svg" viewBox="0 0 113.88 105.23">
  <defs>
    <style>
      .cls-1, .cls-2, .cls-3 {
        fill: none;
      }

      .cls-1, .cls-2, .cls-3, .cls-4 {
        stroke-miterlimit: 10;
      }

      .cls-1, .cls-3 {
        stroke-width: 6px;
      }

      .cls-1, .cls-4 {
        stroke: #fad785;
      }

      .cls-2, .cls-3 {
        stroke: #b7e1f6;
      }

      .cls-2, .cls-4 {
        stroke-width: 5px;
      }

      .cls-4 {
        fill: #b6e1f6;
      }
    </style>
  </defs>
  <g id="Ebene_1-2" data-name="Ebene 1">
    <circle class="cls-1" cx="92.23" cy="83.58" r="18.65"/>
    <path class="cls-3" d="M3,27.86h0Z"/>
    <path class="cls-3" d="M95.43,52.29V11.39H3c0,5.52,0,11.05,0,16.57,0,21.43,0,42.86,0,64.29H60.73"/>
    <path class="cls-2" d="M15.09,7.76c.02,3.08,.04,6.15,.06,9.23-.18,2.39,1.79,4.34,3.91,4.24,1.98-.09,3.69-1.95,3.55-4.17-.02-3.2-.03-6.39-.05-9.59,.18-2.75-1.71-4.86-3.48-4.97-1.95-.12-4.33,2.14-4,5.26Z"/>
    <path class="cls-2" d="M31.19,7.76c.02,3.08,.04,6.15,.06,9.23-.18,2.39,1.79,4.34,3.91,4.24,1.98-.09,3.69-1.95,3.55-4.17-.02-3.2-.03-6.39-.05-9.59,.18-2.75-1.71-4.86-3.48-4.97-1.95-.12-4.33,2.14-4,5.26Z"/>
    <path class="cls-2" d="M75.66,7.76c.02,3.08,.04,6.15,.06,9.23-.18,2.39,1.79,4.34,3.91,4.24,1.98-.09,3.69-1.95,3.55-4.17-.02-3.2-.03-6.39-.05-9.59,.18-2.75-1.71-4.86-3.48-4.97-1.95-.12-4.33,2.14-4,5.26Z"/>
    <path class="cls-2" d="M59.34,7.76c.02,3.08,.04,6.15,.06,9.23-.18,2.39,1.79,4.34,3.91,4.24,1.98-.09,3.69-1.95,3.55-4.17-.02-3.2-.03-6.39-.05-9.59,.18-2.75-1.71-4.86-3.48-4.97-1.95-.12-4.33,2.14-4,5.26Z"/>
    <path class="cls-1" d="M84.77,85.33c1.52,1.57,3.04,3.14,4.56,4.7,2.78-4.05,5.55-8.1,8.33-12.15"/>
    <rect class="cls-2" x="13.57" y="42.69" width="21.37" height="15.82"/>
    <rect class="cls-2" x="34.94" y="42.69" width="21.37" height="15.82"/>
    <rect class="cls-2" x="34.94" y="58.52" width="21.37" height="15.82"/>
    <rect class="cls-2" x="56.19" y="42.69" width="21.37" height="15.82"/>
    <rect class="cls-2" x="13.57" y="58.52" width="21.37" height="15.82"/>
    <path class="cls-4" d="M16.84,46.13c4.64,3,9.27,6,13.91,9"/>
    <path class="cls-4" d="M16.93,55.36c4.32-3.16,8.65-6.31,12.97-9.47"/>
  </g>
</svg>