<?xml version="1.0" encoding="UTF-8"?>
<svg id="Ebene_2" data-name="Ebene 2" xmlns="http://www.w3.org/2000/svg" viewBox="0 0 103.22 105.81">
  <defs>
    <style>
      .cls-1 {
        fill: #fff;
      }

      .cls-2, .cls-3 {
        opacity: .5;
      }

      .cls-4 {
        fill: #facf49;
      }

      .cls-5 {
        fill: #c69c6c;
      }

      .cls-6, .cls-3 {
        fill: #f8cb15;
      }

      .cls-7 {
        fill: #b6d0e3;
      }

      .cls-8 {
        fill: #b6e1f6;
      }

      .cls-9 {
        fill: #e7d4cf;
      }

      .cls-3 {
        isolation: isolate;
      }

      .cls-10 {
        fill: #696e6f;
      }

      .cls-11 {
        opacity: .75;
      }

      .cls-12 {
        fill: #f9d5e7;
      }

      .cls-13 {
        fill: #ed6aa4;
      }

      .cls-14 {
        fill: #4b9ad5;
      }

      .cls-15 {
        fill: #08baeb;
      }

      .cls-16 {
        opacity: .23;
      }
    </style>
  </defs>
  <g id="Ebene_1-2" data-name="Ebene 1">
    <path class="cls-8" d="M27.84,.13C66.38-.03,94.61-.04,96.88,.1c.88,.04,1.74,.32,2.46,.83,.79,.59,1.35,1.42,1.6,2.37l-.16,98.61c-.01,.67-.19,1.32-.52,1.91-.66,1.06-1.74,1.78-2.97,1.99l-69.85-.18L27.84,.13Z"/>
    <path class="cls-15" d="M27.88,.17c-1.33-.26-2.71,.04-3.82,.83-1.14,.89-1.83,2.25-1.89,3.7-.05,31.99-.11,63.97-.16,95.96-.24,2.47,1.55,4.68,4.02,4.96l1.72,.03L27.88,.17Z"/>
    <g class="cls-2">
      <path class="cls-6" d="M.1,56.88L0,16.12l5.6,.18,.39,40.65-5.89-.07Z"/>
      <g class="cls-11">
        <path class="cls-4" d="M.1,56.88L0,16.12l5.6,.18,.39,40.65-5.89-.07Z"/>
      </g>
    </g>
    <path class="cls-9" d="M.1,56.89l2.08,5.95c.35-.14,.71-.22,1.09-.24,.35-.02,.71,.02,1.05,.11,.56-1.94,1.12-3.88,1.68-5.82H.1Z"/>
    <g class="cls-16">
      <path class="cls-5" d="M.1,56.89l2.08,5.95c.35-.14,.71-.22,1.09-.24,.35-.02,.71,.02,1.05,.11,.56-1.94,1.12-3.88,1.68-5.82H.1Z"/>
    </g>
    <path class="cls-7" d="M0,16.15l5.61,.14,.06-3.64L.01,12.5c0,1.22,0,2.43-.01,3.65Z"/>
    <g class="cls-16">
      <path class="cls-14" d="M0,16.15l5.61,.14,.06-3.64L.01,12.5c0,1.22,0,2.43-.01,3.65Z"/>
    </g>
    <path class="cls-12" d="M.03,12.48c-.1-1.78,1.23-3.19,2.67-3.26,1.59-.08,3.17,1.48,2.96,3.43L.03,12.48Z"/>
    <g class="cls-16">
      <path class="cls-13" d="M.03,12.48c-.1-1.78,1.23-3.19,2.67-3.26,1.59-.08,3.17,1.48,2.96,3.43L.03,12.48Z"/>
    </g>
    <path class="cls-3" d="M100.93,17.08c-.02,5.02-.04,10.05-.06,15.07,.34,.06,.69,.02,1.01-.11,.8-.36,1.27-1.38,1.17-2.57l.17-10.38c-.08-.62-.4-1.18-.89-1.56-.4-.3-.89-.45-1.4-.45Z"/>
    <path class="cls-12" d="M100.89,37.1c-.01,5.11-.02,10.21-.03,15.32,.34-.02,.68-.13,.97-.31,.78-.49,1.17-1.52,1.04-2.65l.03-10.82c-.21-.93-1.05-1.58-2-1.55h0Z"/>
    <rect class="cls-1" x="53.45" y="7.65" width="20.08" height="40.18" rx="3.22" ry="3.22" transform="translate(35.67 91.2) rotate(-89.93)"/>
    <path class="cls-10" d="M2.2,62.82l1.18,1.92,.97-2.02c-.34-.1-.69-.14-1.05-.13-.38,.02-.75,.1-1.1,.24Z"/>
  </g>
</svg>