<?xml version="1.0" encoding="UTF-8" standalone="no"?>
<!DOCTYPE svg PUBLIC "-//W3C//DTD SVG 1.1//EN" "http://www.w3.org/Graphics/SVG/1.1/DTD/svg11.dtd">
<svg width="100%" height="100%" viewBox="0 0 9934 3544" version="1.1" xmlns="http://www.w3.org/2000/svg" xmlns:xlink="http://www.w3.org/1999/xlink" xml:space="preserve" xmlns:serif="http://www.serif.com/" style="fill-rule:evenodd;clip-rule:evenodd;stroke-linecap:round;stroke-miterlimit:5;">
    <g transform="matrix(1.23905,0,0,1.23905,-1479.36,-7124.68)">
        <path d="M7708.88,6152.27L7564.44,7148.03C7564.44,7148.03 7523.12,7546.2 7692.8,7672.02C7915.78,7837.36 8597.43,7852.39 8822.79,7204.79L8999.83,6152.27L8673.79,6151.06L8515.11,7152.35C8515.11,7152.35 8478.28,7297.75 8368.13,7390.91C8225.38,7511.65 7821.17,7624.12 7862.12,7131.45L8028.39,6157.66L7708.88,6152.27Z" style="fill:rgb(0,175,250);"/>
    </g>
    <g transform="matrix(1.23905,0,0,1.23905,-1479.36,-7124.68)">
        <path d="M3817.98,6800.13L3814.06,8355.03C3814.06,8355.03 4363.46,7763.62 5250.45,7730.05L5253.44,7520.14C5253.44,7520.14 4555.39,7564.61 4208.19,7850.85C4208.19,7850.85 4606.22,7032.1 5066.97,6557.33L5063.26,7060.07L5267.32,7056.29L5254.45,6148.72C5254.45,6148.72 4723.3,6196.68 4442.35,6355.8L4444.37,6575.62C4444.37,6575.62 4741.68,6436.92 4939.95,6398.03C4939.95,6398.03 4266.57,7200.96 4012.66,7759.38L4023.08,6616.16L3817.98,6800.13Z" style="fill:none;stroke:rgb(0,177,251);stroke-width:60.53px;"/>
    </g>
    <g transform="matrix(1.23905,0,0,1.23905,-1479.36,-7124.68)">
        <path d="M1935.67,6108.78C1935.67,6108.78 2477.15,6152.01 2786.38,6336.49L2788.24,6997.83C2788.24,6997.83 3012.13,7115.04 3169.29,7230.34L3170.56,6557.19C3170.56,6557.19 3309.07,6659 3407.28,6773.47L3414.49,8387.54C3414.49,8387.54 3302.82,8274.33 3155.64,8174.15L3164.81,7499.77C3164.81,7499.77 3017.39,7395.1 2798.25,7284.61L2801.38,7963.36C2801.38,7963.36 2674.02,7898.78 2550.36,7854.49L2537.41,6504.46C2537.41,6504.46 2355.16,6408.45 1943.29,6383.06L1935.67,6108.78Z" style="fill:rgb(0,175,250);"/>
    </g>
    <g transform="matrix(1.23905,0,0,1.23905,-1479.36,-7124.68)">
        <path d="M1888.91,6443.96C2218.67,6443.96 2486.4,6742.78 2486.4,7110.84C2486.4,7478.9 2218.67,7777.72 1888.91,7777.72C1559.15,7777.72 1291.43,7478.9 1291.43,7110.84C1291.43,6742.78 1559.15,6443.96 1888.91,6443.96ZM1887.17,6712.71C2079.76,6712.71 2236.12,6887.79 2236.12,7103.44C2236.12,7319.1 2079.76,7494.18 1887.17,7494.18C1694.58,7494.18 1538.22,7319.1 1538.22,7103.44C1538.22,6887.79 1694.58,6712.71 1887.17,6712.71Z" style="fill:rgb(0,175,250);"/>
    </g>
    <g transform="matrix(1.23905,0,0,1.23905,-1479.36,-7124.68)">
        <path d="M5662.11,6149.98L5659.85,7749.75L6041.34,7740.76L6519.01,6724.35L6599.92,7753.42L6902.45,7757.31L7608.79,6154.73L7283.39,6154.82L6834.71,7219.24L6800.29,6150.81L6476.88,6153L5943.88,7238.63L5952.4,6153.49L5662.11,6149.98Z" style="fill:rgb(0,175,250);"/>
    </g>
</svg>
