<?xml version="1.0" encoding="UTF-8"?>
<svg id="Ebene_2" data-name="Ebene 2" xmlns="http://www.w3.org/2000/svg" viewBox="0 0 111.73 169.56">
  <defs>
    <style>
      .cls-1 {
        fill: #d69c77;
      }

      .cls-2 {
        fill: #ddd;
      }

      .cls-3 {
        fill: #555;
      }

      .cls-4 {
        fill: #e0710a;
      }

      .cls-5 {
        fill: #567788;
      }

      .cls-6 {
        fill: #bfbfbf;
      }

      .cls-7 {
        fill: #f4ba94;
      }

      .cls-8 {
        fill: #fe8e28;
      }

      .cls-9 {
        fill: #fea01e;
      }

      .cls-10 {
        fill: #d06500;
      }

      .cls-11 {
        fill: #fed8b2;
      }

      .cls-12 {
        fill: #8a1f00;
      }

      .cls-13 {
        fill: #737373;
      }

      .cls-14 {
        fill: #00adee;
      }

      .cls-15 {
        fill: #b9daec;
      }

      .cls-16 {
        fill: #9bbcce;
      }

      .cls-17 {
        fill: #7d0d00;
      }

      .cls-18 {
        fill: #febe3c;
      }

      .cls-19 {
        fill: #fef6d0;
      }

      .cls-20 {
        fill: #ee8200;
      }

      .cls-21 {
        fill: #c25300;
      }

      .cls-22 {
        fill: #905731;
      }

      .cls-23 {
        fill: #fefefe;
      }

      .cls-24 {
        fill: #ededed;
      }

      .cls-25 {
        fill: #feac46;
      }
    </style>
  </defs>
  <g id="Ebene_1-2" data-name="Ebene 1">
    <g>
      <path class="cls-5" d="M33.07,156.66c-.18-2.19-.17-3.64,2.98-3.91,2.87-.24,1.04-3.27,1.38-5.05-1.55-2.29-.86-4.86-.95-7.34,.01-1.41-.01-2.83,1-3.99,1.31-.92,2.63-.93,3.97-.05,1.52,2.53,.81,5.31,.9,8,0,1.21,.05,2.43-.03,3.64-.18,2.31-.11,4.42,3.16,4.03,1.04-.1,2.47,.32,2.7-1.19,.19-1.27-1.19-1.33-2.01-1.77-.34-.19-.6-.44-.81-.75-.5-1.14-.49-2.27,.04-3.4,.22-.33,.51-.59,.85-.78,1.8-.65,2.26-2.04,2.29-3.81,.03-1.56-.22-3.29,1.41-4.37,3.9-.88,7.79-.8,11.69-.08,1.75,.96,1.51,2.69,1.57,4.26,.06,1.69,.23,3.24,2.13,3.89,.35,.17,.66,.41,.92,.7,.63,1.08,.63,2.21,.26,3.36-.15,.33-.38,.61-.67,.83-.83,.59-2.51,.45-2.31,1.94,.19,1.52,1.66,1.08,2.71,1.17,3.16,.38,3.43-1.58,3.2-3.95-.08-1.21-.03-2.42-.03-3.63,.07-2.68-.58-5.44,.82-7.99,1.29-.99,2.61-.97,3.96-.12,1.08,1.13,1.07,2.57,1.09,3.99-.08,2.5,.62,5.1-.95,7.41-.11,2.64-1.18,5.64,3.54,5.5,1.52-.05,.53,2.26,.81,3.46-.14,.15-.28,.3-.42,.44-1.33,.71-2.78,.55-4.21,.61-1.23,.06-2.46,.03-3.69,.03-1.47,.06-2.93,.04-4.4,.01-1.3,.07-2.6,.03-3.9,0-1.59,.03-3.18,.12-4.54-.95-1.4-2.47-.76-5.16-.84-7.76-.09-2.29,.37-4.64-.55-7.45-1.83,2.62-.75,5.09-1.06,7.35-.05,2.61,.54,5.28-.77,7.76-1.31,1.18-2.92,1.07-4.51,1.05-1.3,.01-2.61,.08-3.91,0-1.47,.02-2.94,.04-4.41-.01-1.24,0-2.47,.04-3.71-.02-1.44-.05-2.91,.11-4.25-.61-.14-.15-.28-.3-.43-.45Z"/>
      <path class="cls-17" d="M95.17,95.34c.56,3.07-.65,4.1-3.76,3.78-2.94-.3-5.93-.04-8.9-.03-1.18,.86-2.4,1-3.68,.25-1.01-.88-1.25-2.13-1.12-3.31,.31-2.82-1.17-4.22-3.56-5.05-1.05-2.03-2.56-3.15-5-2.93-1.21,.11-2.47-.08-3.42-1.05-.87-1.43-.87-2.86-.04-4.3,.69-.79,1.67-1.18,2.62-1.05,3.2,.43,4.9-1.32,6.11-3.92,2.68-1.07,5.34-1.18,7.97,.14,1.6,1.91,1.05,4.22,1.15,6.4,.08,1.73,0,3.46,.02,5.19,.06,4.38,.32,4.61,4.59,4.74,2.2,.06,4.46-.36,6.56,.67,.16,.16,.31,.32,.46,.48Z"/>
      <path d="M82.38,156.8c.05,3.96,.11,7.92,.16,11.88-.61,1.22-1.74,.7-2.63,.71-6.56,.05-13.12,.06-19.68,.03-.89,0-2.03,.51-2.62-.73-.91-1.26-.91-2.55-.1-3.85,1.29-1.04,2.83-.93,4.35-.94,2.12,.11,3.09-.89,3.08-3.02,0-1.43-.12-2.94,1.03-4.1,1.47,0,2.94-.01,4.41-.02,1.19,1.04,1.04,2.47,1.08,3.82,.05,1.76,.3,3.23,2.57,3.33,2.18,.09,3.73-.41,3.61-3.02,.03-1.45-.09-2.94,1.19-4.01,0,0-.16-.22-.16-.22,1.24,.04,2.48,.09,3.72,.13Z"/>
      <path d="M41.36,156.75c1.47,0,2.94,.01,4.41,.02,1.14,1.16,1.02,2.66,1.02,4.08,0,2.1,.92,3.15,3.06,3.04,1.52,0,3.05-.1,4.35,.91,.85,1.31,.85,2.6-.07,3.88-2.82,1.64-5.89,.38-8.82,.74-1.33,.16-2.68,.1-4.03,.14-3.99-.75-8.16,.91-12.08-.86,.04-2.69,.31-5.39,.06-8.05-.27-3.03,.45-4.66,3.81-3.98,0,0-.16,.22-.16,.22,1.28,1.08,1.14,2.57,1.19,4.01-.13,2.59,1.41,3.11,3.6,3.01,2.26-.1,2.52-1.56,2.58-3.33,.04-1.35-.11-2.79,1.08-3.82Z"/>
      <path class="cls-24" d="M54.12,168.68l-.24-3.7c-1.46-2.75-1.49-5.5,0-8.26l.24-8.23c1.17-1,2.34-1,3.51,0,.08,2.74,.16,5.49,.24,8.23,1.48,2.75,1.45,5.51,0,8.26-.08,1.23-.16,2.47-.24,3.7-1.16,0-2.33,0-3.49,0Z"/>
      <path class="cls-12" d="M86.82,107.31c.05,4.2,.1,8.41,.14,12.61,.91,1.28,1.04,2.59,.16,3.95-1.51,1.08-3.05,1.04-4.62,.13-1.07-1.06-1.11-2.43-1.12-3.8-.04-1.5-.06-2.99,0-4.49,0-1.24-.04-2.49,.02-3.73,.04-1.44-.11-2.91,.59-4.26,.15-.15,.29-.29,.44-.44,1.46,.01,2.93,.03,4.39,.04Z"/>
      <path class="cls-22" d="M86.89,123.8c.02-1.29,.05-2.59,.07-3.88,3-.4,4.24,.79,3.72,3.88-.2,1.19,.04,2.45,.08,3.68-.07,2.56,.3,5.51-3.89,4.48-.14-.15-.27-.3-.41-.45-.58-1.14-.51-2.38-.55-3.6-.02-1.45-.08-2.92,.98-4.11Z"/>
      <path class="cls-17" d="M103.4,90.84c-.02,1.46-.05,2.91-.07,4.37-2.72,.04-5.44,.08-8.15,.12l-.05-.05c-1.13-1.47-1.15-2.97-.14-4.51,2.56-1.56,5.23-1.28,7.92-.42,.16,.16,.33,.32,.49,.48Z"/>
      <path class="cls-22" d="M82.4,140.16c-2.71,.03-5.42,.07-8.13,.1-.02-1.26-.05-2.52-.07-3.78,.14-.13,.28-.27,.41-.4,1.26-.64,2.62-.49,3.96-.54,1.15,.02,2.32-.02,3.39,.52,.14,.13,.28,.27,.42,.4,0,1.23,0,2.47,.01,3.7Z"/>
      <path class="cls-12" d="M78.77,98.97c1.25,.04,2.49,.08,3.74,.12-.02,2.73-.05,5.46-.07,8.19,0,0-.02,.02-.02,.02-1.25,.99-2.54,1.05-3.88,.18-1.4-2.63-1.21-5.32-.27-8.03,.17-.16,.34-.32,.51-.47Z"/>
      <path class="cls-22" d="M86.88,131.97c.76,3.77-.74,5.25-4.49,4.49,0,0,.06,.05,.06,.05-1.16-1.5-1.22-3.03-.12-4.6,1.56-1.13,3.09-1.07,4.6,.1l-.04-.04Z"/>
      <path class="cls-22" d="M24.85,131.97c-1.25-.02-2.49-.04-3.74-.06-.05-1.47-.1-2.95-.15-4.42,.05-2.47,.11-4.93,.16-7.4,1.21-.06,2.43-.11,3.64-.17,1.12,.97,1.06,2.3,1.09,3.6,.03,1.46,.04,2.92-.02,4.37-.03,1.23,.03,2.48-.56,3.63-.14,.15-.28,.3-.42,.45Z"/>
      <path class="cls-17" d="M21.09,99.17c-2.56-.03-5.48,.36-4.53-3.83,.14-.14,.27-.29,.41-.44,1.98-1,4.12-.61,6.19-.64,5.01-.08,4.94-.14,5.14-5.28,.12-3.04-.4-5.37-3.68-6.26-.78-1.15-.78-2.35-.2-3.58,2.17-1.16,4.15-2.51,4.95-5.03,1.14-.73,2.3-.73,3.47-.1,1.08,2.14,2.33,4.12,4.87,4.8,.91,1.94,2.34,2.92,4.58,2.78,1.31-.08,2.68,.01,3.72,1.07,.86,1.4,.85,2.82,.07,4.24-1.01,1.15-2.41,1.25-3.74,1.17-2.29-.15-3.71,.94-4.69,2.85-2.51,.9-4.03,2.41-3.65,5.35,.14,1.06-.16,2.17-1,3.01-1.16,.83-2.49,.83-3.83,.84-2.72-.1-5.55,.69-8.09-.95Z"/>
      <path class="cls-17" d="M4.51,66.11c.42-1.62-.87-4.33,2.75-3.83,1.59,.22,1.08-1.36,1.08-2.21,.01-4.98-.06-9.96-.1-14.95-1.75-3.37-1.1-6.95-.69-10.43,.28-2.36,2.23-2.61,4.24-2.33,.43,.11,.83,.3,1.18,.57,.95,1.23,.83,2.69,.87,4.11-.42,2.25,.68,3.46,2.75,4.03,.3,.26,.51,.57,.66,.94,.44,1.4,.36,2.83,.39,4.26-.02,2.51,.4,5.05-.51,7.49-.75,1.38-2.86,1.25-3.23,3.21-.54,2.82,.87,4.32,3.08,5.49,.59,1.18,.58,2.33-.08,3.48-.9,1.04-2.17,1.23-3.38,1.12-2.66-.23-4.15,1-4.88,3.43-1.02,1.01-2.23,1.05-3.51,.68-.41-.17-.72-.44-.96-.82-.61-1.47-.63-2.9,.34-4.24Z"/>
      <path class="cls-17" d="M4.6,87.1c-3.74,.72-4.88-.82-4.54-4.54,.36-3.93,.1-7.92,.11-11.88,1.45-1.25,2.93-1.26,4.43-.11l.05,.05c2.01,5.27,1.3,10.62,.45,15.97-.16,.17-.33,.34-.5,.51Z"/>
      <path class="cls-12" d="M24.84,123.8c-.03-1.29-.05-2.59-.08-3.88,.05-4.2,.09-8.4,.14-12.6,1.21-1.21,2.61-1,4.05-.57,.39,.19,.68,.48,.88,.85,.58,1.38,.47,2.84,.5,4.29,.06,1.24,.03,2.48,.02,3.72,.06,1.49,.04,2.98,0,4.47,0,1.36-.04,2.71-1,3.82-1.53,1.02-3.03,1.01-4.5-.11Z"/>
      <path class="cls-17" d="M16.57,95.34c-1.24,0-2.51-.2-3.71,0-3.71,.64-5.23-.77-4.52-4.5,.15-.15,.29-.3,.44-.45,2.43-.9,4.89-.74,7.36-.16,.4,.18,.71,.46,.93,.84,.61,1.49,.61,2.91-.45,4.22l-.05,.05Z"/>
      <path class="cls-17" d="M8.34,90.84c-3.04,.55-4.29-.7-3.74-3.74,0,0,.05-.05,.05-.05,1.25-.96,2.52-1.02,3.81-.07,.96,1.29,.9,2.56-.07,3.82l-.05,.05Z"/>
      <path class="cls-17" d="M103.49,45.15c-.03,5.73-.06,11.45-.09,17.18-.15,.15-.31,.3-.46,.45-1.46,.65-2.86,.65-4.18-.35-1.53-2.46-.73-5.2-.89-7.82-.1-1.74-.06-3.46-2.07-4.21-.32-.16-.61-.38-.87-.63-.79-.81-.54-2.8-2.17-2.54-1.7,.27-.94,1.94-1.1,3.06-.05,1.45,.04,2.94-1.12,4.08-1.29,.75-2.55,.76-3.8-.09-1.78-3.52-.72-7.31-.92-10.97-.12-2.2-.15-4.15-2.71-5.09-1.63-.6-1.8-2.33-1.74-3.81,.13-3.19-1.5-4.08-4.38-3.91-2.1,.12-4.21,.1-6.32-.02-1.51,.02-3.03,.09-4.54-.01-1.29,.01-2.58,.06-3.87,0-1.49,.03-2.98,.05-4.46,0-1.27,.03-2.54,.05-3.81,0-1.48,.04-2.96,.04-4.43,0-1.27,.03-2.54,.05-3.81,0-1.5,.04-3,.04-4.51,0-1.34,0-2.66-.03-3.78-.92-1.04-1.35-1.01-2.8-.35-4.29,1.71-1.19,3.35-2.46,4.33-4.39,1.28-.77,2.7-.74,4.11-.72,2.06-.03,3.97,.22,5.01,2.38,.27,.57,.76,1.03,1.48,.77,.68-.25,.74-.94,.83-1.54,.27-1.8-.26-3.77,1.19-5.31,1.19-.73,2.39-.76,3.61-.08,1.13,1.14,1.02,2.6,1.07,4.02,.11,1.12-.56,2.69,.88,3.15,1.71,.56,1.53-1.39,2.19-2.23,.23-.31,.52-.53,.87-.69,1.16-.36,2.27-.33,3.29,.41,2.77,4.24,5.38,4.16,8.37-.27,1.33-.65,2.67-.64,4.01-.06,1.34,1.25,1.73,3.81,4.42,3.22,1.45,0,2.91-.06,4.16,.89,1.02,1.2,.96,2.66,.98,4.09-.48,2.33,1.18,3.31,2.76,4.34,1.37,1.57,.7,3.54,1.06,5.3,.15,.74,.39,1.51,1.36,1.38,.74-.1,.8-.81,.95-1.4,.72-2.91-.92-4.3-3.32-5.22-.95-.89-1.04-1.98-.75-3.15,.12-.34,.31-.66,.56-.92,2.09-.57,4.04-1.3,4.21-3.94,.12-.11,.25-.22,.38-.33,1.22,.01,2.43,.02,3.65,.03,1.85,2.1,1.11,4.67,1.12,7.04,.01,2.38,.44,4.35,2.7,5.55,1.65,2.38,.25,5.12,.88,7.62Z"/>
      <path class="cls-17" d="M41.29,.09c6.73,0,13.45,0,20.18,0,2.74,.04,5.51,.37,8.2,.05,3.75-.45,5.28,.8,4.52,4.57-.15,.14-.31,.29-.46,.44-1.18,.62-2.47,.54-3.73,.59-2.56,.08-5.12,.08-7.68,.03-1.51,.04-3.03,.06-4.54,0-1.3,.07-2.61,.04-3.91,0-3.87,.09-7.75,.06-11.62,0-1.19-.11-2.4-.05-3.58-.3-.38-.08-.73-.24-1.05-.47-.3-.3-.36-.65-.19-1.04-.45-3.04,.84-4.33,3.88-3.88Z"/>
      <path class="cls-17" d="M86.9,12.96c1.79,.09,4.27-.88,3.78,2.59-.1,.74,.39,1.23,1.1,1.1,4.2-.73,3.32,2.24,3.36,4.55,.02,1.24,0,2.48,0,3.72,0,0-.02,.02-.02,.02-1.13,1-2.44,.97-3.79,.65-.34-.12-.64-.31-.91-.56-.48-1.89-1.61-3.16-3.58-3.59-.27-.27-.47-.58-.61-.94-.41-2.39-.65-4.76,.23-7.1,.14-.15,.28-.29,.43-.44Z"/>
      <path class="cls-17" d="M74.19,4.71c1.49,0,3,.2,4.46-.02,3.05-.46,4.39,.59,3.8,3.73-.13,.14-.27,.28-.4,.42-1.07,.59-2.25,.53-3.41,.57-1.37-.02-2.76,.08-4.08-.43-.38-.18-.66-.46-.86-.83-.49-1.23-.41-2.39,.48-3.43h0Z"/>
      <path class="cls-17" d="M82.45,8.42c3.75-.71,5.19,.84,4.45,4.54,0,0,.03-.03,.03-.03-1.25,1.08-2.64,1.05-4.11,.56-.39-.19-.69-.47-.9-.86-.56-1.47-.57-2.88,.49-4.16l.05-.05Z"/>
      <path class="cls-17" d="M16.62,24.95c0-1.61,.07-3.23-.05-4.83-.17-2.21-.08-3.74,2.96-3.52,2.83,.2,1-2.37,1.58-3.57,2.62-1.43,3.8-4.28,5.94-6.27,3.47-3.22,6.82-2.36,10.48-2.07l.02,.02c.97,1.73,2.1,3.19,4.43,2.67,2.58,.12,5.24-.57,7.66,.87,1.04,1.52,1.03,3.06,.1,4.62-1.06,1.05-2.42,1.11-3.78,1.12-2.59,.08-5.18,.08-7.77,0-2.18-.07-3.89,.5-4.77,2.66-1.18,1.13-2.69,1.1-4.13,1.03-2.22-.1-3.39,.97-3.92,2.99-1.04,1.48-3.51,1.59-3.74,3.86-.18,.33-.43,.59-.74,.8-1.29,.55-2.57,.59-3.86,0-.14-.13-.27-.27-.41-.4Z"/>
      <path class="cls-17" d="M12.87,33.17c.02-2.74,.05-5.48,.07-8.22,1.23,0,2.45,0,3.68,0,0,0-.05-.05-.05-.05,1.69,2.71,1.5,5.48,.29,8.29-1.35,1.06-2.69,.97-4.02-.05l.03,.03Z"/>
      <path class="cls-17" d="M107.22,65.35c-.03,1.74-.06,3.48-.09,5.22-.17,.15-.33,.3-.5,.46-1.39,.55-2.66,.5-3.69-.74-.91-2.68-1.23-5.34,.4-7.9l.05-.05c2.17-.13,4.3-.21,3.83,3.02Z"/>
      <path class="cls-17" d="M107.14,70.57c3.8-.74,4.87,.88,4.54,4.57-.33,3.7,0,7.46,.04,11.19-1.31,1.53-3.08,.35-4.58,.77-.16-.17-.33-.34-.49-.51-.86-5.35-1.57-10.7,.45-15.97l.05-.05Z"/>
      <path class="cls-17" d="M107.14,87.1c.56,3.05-.69,4.3-3.74,3.74l-.05-.05c-.96-1.25-1.02-2.52-.07-3.81,1.29-.96,2.56-.91,3.81,.06l.05,.05Z"/>
      <path class="cls-15" d="M70.51,136.58c-.06,2.7-.11,5.4-.17,8.1-1.45,1.25-2.92,1.16-4.41,.07h0c-1.89-4.21-1.53-8.47-.27-12.75,1.56-1.24,3.19-1.21,4.86-.24,1.19,1.61,1.07,3.22-.02,4.83Z"/>
      <path class="cls-15" d="M41.39,144.68c-.06-2.7-.11-5.4-.17-8.1-1.08-1.58-1.2-3.17-.07-4.79,1.65-1.01,3.27-1.03,4.87,.13,1.36,4.3,1.66,8.59-.23,12.83h0c-1.49,1.09-2.96,1.18-4.41-.07Z"/>
      <path class="cls-15" d="M62.22,136.53h-12.7c-1.31-1.56-1.2-3.15-.1-4.77,4.28-1.46,8.57-1.43,12.86-.03,1.15,1.61,1.25,3.21-.05,4.8Z"/>
      <path class="cls-16" d="M62.22,136.53c0-1.47,0-2.94-.01-4.41,1.26-1.22,2.52-1.22,3.78,0-.01,4.21-.03,8.42-.04,12.63-3.03,.46-4.17-.84-3.75-3.85,.2-1.43,.03-2.91,.03-4.37Z"/>
      <path class="cls-16" d="M49.53,132.12c0,1.47,0,2.94-.01,4.41,0,1.46-.17,2.94,.03,4.37,.41,3.01-.72,4.31-3.75,3.85-.01-4.21-.03-8.42-.04-12.63,1.26-1.22,2.52-1.22,3.78,0Z"/>
      <path class="cls-13" d="M41.36,156.75c-.03,1.12-.05,2.24-.07,3.36-.11,5.41,.82,4.58-4.69,4.9-3.08,.17-4.05-.89-3.43-3.77,2.13-.85,3.59-2.34,4.35-4.51,1.28,0,2.56,.01,3.83,.02Z"/>
      <path class="cls-13" d="M78.57,161.24c.43,2.43,.17,4.25-3.05,3.71-2.21-.37-5.7,1.41-5.1-3.35,.2-1.59-.01-3.24-.04-4.86,1.28,0,2.56-.01,3.83-.02,.76,2.17,2.22,3.66,4.35,4.51Z"/>
      <path class="cls-22" d="M53.87,156.72c0,2.75,0,5.51,0,8.26-1.48-.04-2.96-.09-4.44-.13-1.53-2.69-1.55-5.37,.04-8.05,1.46-.03,2.92-.05,4.39-.08Z"/>
      <path class="cls-22" d="M57.85,164.98c0-2.75,0-5.51,0-8.26,1.46,.03,2.92,.05,4.39,.08,1.59,2.67,1.58,5.36,.04,8.05-1.48,.04-2.96,.09-4.44,.13Z"/>
      <path class="cls-22" d="M37.46,140.25c-1.48,0-2.99-.2-4.43,.01-3.13,.46-4.32-.74-3.68-3.82,.14-.13,.28-.26,.42-.39,1.07-.54,2.23-.49,3.38-.52,1.34,.03,2.71-.11,3.97,.53,.14,.14,.27,.27,.41,.41-.02,1.26-.05,2.52-.07,3.78Z"/>
      <path class="cls-2" d="M57.62,148.49c-1.17,0-2.34,0-3.51,0-.04-2.09-.04-4.17-.12-6.26-.05-1.35,.4-2.01,1.87-2.01,1.48,0,1.92,.66,1.87,2.01-.08,2.09-.08,4.17-.12,6.26Z"/>
      <path class="cls-7" d="M49.49,156.8c-.01,2.68-.03,5.36-.04,8.05-2.75,.64-4.17-.11-3.72-3.27,.23-1.57,.04-3.21,.03-4.81,1.24,.01,2.48,.02,3.72,.03Z"/>
      <path class="cls-7" d="M62.29,164.84c-.01-2.68-.03-5.36-.04-8.05,1.24-.01,2.48-.02,3.72-.03,0,1.61-.19,3.24,.03,4.81,.46,3.16-.96,3.91-3.72,3.26Z"/>
      <path class="cls-15" d="M45.72,152.85c-3.72,.83-5.16-.62-4.33-4.34,1.45-1.25,2.92-1.16,4.41-.07h0c1.09,1.48,1.18,2.95-.07,4.4Z"/>
      <path class="cls-15" d="M70.35,148.52c.82,3.72-.62,5.17-4.33,4.34-1.25-1.45-1.16-2.92-.07-4.41h0c1.49-1.09,2.96-1.18,4.41,.07Z"/>
      <path class="cls-3" d="M37.52,156.73c.72,3.61-.82,5.02-4.35,4.51-.08-1.45-.17-2.91-.26-4.36,1.54-.05,3.07-.1,4.61-.15Z"/>
      <path class="cls-3" d="M78.57,161.24c-3.54,.51-5.08-.9-4.35-4.51,1.54,.05,3.07,.1,4.61,.15-.08,1.45-.17,2.91-.26,4.36Z"/>
      <path class="cls-16" d="M45.79,148.45c-1.47,.02-2.94,.04-4.41,.07,0-1.28,0-2.56,0-3.84,1.47,.02,2.94,.04,4.41,.07,0,1.23,0,2.47,0,3.7Z"/>
      <path class="cls-16" d="M70.35,148.52c-1.47-.02-2.94-.04-4.41-.07,0-1.23,0-2.47,0-3.7,1.47-.02,2.94-.04,4.41-.07,0,1.28,0,2.56,0,3.84Z"/>
      <path class="cls-16" d="M45.72,152.85c.02-1.47,.04-2.94,.07-4.41,1.67,.18,3.95-.73,3.75,2.49-.19,3.04-2.31,1.76-3.81,1.92Z"/>
      <path class="cls-16" d="M65.94,148.45c.02,1.47,.04,2.94,.07,4.41-1.5-.16-3.62,1.13-3.81-1.92-.21-3.22,2.07-2.31,3.74-2.49Z"/>
      <path class="cls-16" d="M41.3,132.12c-.03,1.49-.05,2.97-.08,4.46-1.23-.03-2.46-.07-3.69-.1,0,0,.03,.03,.03,.03-1.17-1.51-1.25-3.07-.19-4.67,1.38-.85,2.71-.99,3.93,.29Z"/>
      <path class="cls-16" d="M70.51,136.58c-.03-1.49-.05-2.97-.08-4.46,1.22-1.27,2.54-1.13,3.92-.3,1.08,1.6,1,3.16-.18,4.68,0,0,.03-.03,.03-.03-1.23,.03-2.46,.07-3.69,.1Z"/>
      <path class="cls-21" d="M95.22,90.89c-.03,1.47-.06,2.93-.09,4.4-3.33,0-6.67-.08-9.99,.05-2.13,.09-2.78-.77-2.74-2.82,.11-4.82,.04-9.63,.05-14.45,.16-.14,.31-.28,.46-.43,1.44-.61,2.82-.61,4.12,.36,.96,1.5,1.29,3.39,3.3,4.24,1.4,.59,1.41,2.29,1.29,3.62-.23,2.55,.96,3.92,3.26,4.59,.12,.15,.23,.29,.35,.44Z"/>
      <path class="cls-12" d="M74.26,90.74c3.48-.46,5.02,.91,4.45,4.52-.19,1.2,.02,2.47,.05,3.7,0,0-.16,.15-.16,.15-4.52,1.22-3.21,4.94-3.4,8.01-.03,1.42,.07,2.86-.46,4.23-.19,.4-.48,.7-.86,.91-1.27,.47-2.48,.46-3.58-.44-.58-.7-.88-1.56-.79-2.42,.35-3.02-.94-4.91-3.76-5.87-.88-1.32-.86-2.69-.26-4.09,1.36-1.54,4.13-1.47,4.64-4.01,1.83-.95,3.32-2.19,3.71-4.37,.14-.11,.27-.21,.41-.32Z"/>
      <path class="cls-22" d="M45.55,87.05c.03-1.45,.07-2.9,.1-4.36,.14-.16,.29-.33,.43-.5,1.19-.71,2.51-.62,3.81-.66,3.86-.11,7.71-.07,11.57-.03,1.23,.1,2.49,.01,3.69,.42,.4,.15,.7,.41,.93,.77l.1,4.36c-.17,.16-.33,.32-.5,.48-6.32,1.2-12.67,.73-19.02,.31-.45-.16-.82-.42-1.12-.79Z"/>
      <path class="cls-22" d="M74.32,78.22c.35,3.41-.94,5.03-4.56,4.39-1.19-.21-2.45,.04-3.68,.08,0,0-.22-.22-.22-.22-1.09-1.43-.99-2.89-.09-4.37,2.39-1.62,4.99-1.11,7.57-.71,.42,.16,.75,.44,.98,.82Z"/>
      <path class="cls-22" d="M82.44,78.07c-2.71,.05-5.41,.1-8.12,.15,0,0-.23-.24-.23-.24-1.11-3.79-.49-4.45,4.34-4.7,1.42,.01,2.86-.05,4.05,.94,1,1.31,.9,2.61-.08,3.88l.04-.04Z"/>
      <path class="cls-12" d="M66.18,87.05c1.47,0,2.96,.18,4.39-.02,3-.42,3.99,.95,3.69,3.71,0,0-.14,.14-.14,.14-1.09,.96-2.41,.96-3.75,.96-1.57,.02-3.16,.12-4.5-.94-.92-1.26-.95-2.53-.02-3.8l.33-.06Z"/>
      <path class="cls-20" d="M74.17,111.8c.05-1.51,.09-3.03,.14-4.54,1.48-1.23,2.95-1.05,4.43,0,1.22,.01,2.45,.02,3.67,.03-.03,1.5-.07,3.01-.1,4.51-1.06,1.01-2.4,.99-3.74,1.01-1.54,0-3.14,.2-4.4-1.01Z"/>
      <path class="cls-7" d="M86.89,123.8l-.09,4.4c-1.33,1.18-2.76,1.15-4.25,.33-1.22-1.28-1.19-2.73-.58-4.27,.15-.16,.29-.32,.44-.48,1.5,0,2.99,.01,4.49,.02Z"/>
      <path class="cls-10" d="M82.33,115.46c0,1.54,0,3.08,0,4.62-1.28,1.01-2.56,.97-3.86,.05-.97-1.55-.96-3.11-.03-4.68,1.3-.96,2.6-1.02,3.89,0Z"/>
      <path class="cls-9" d="M82.33,115.46c-1.18,0-2.37,0-3.55,0-1.2-1.17-1.03-2.4-.15-3.66,1.23,0,2.45,0,3.68,0,0,1.22,.01,2.43,.02,3.65Z"/>
      <path class="cls-9" d="M78.78,120.08c1.18,0,2.37,0,3.55,0,.03,1.24,.05,2.47,.08,3.71,0,0,.05-.04,.05-.04-1.33,.96-2.75,1.21-3.9-.1-.98-1.12-.89-2.44,.21-3.58Z"/>
      <path class="cls-1" d="M82.3,128.18c1.5,0,3,.02,4.51,.03,.04,1.27,.08,2.54,.12,3.8l-4.37,.02c-.15-.1-.29-.21-.44-.31-.59-1.01-.58-2.06-.16-3.12,.11-.14,.23-.28,.34-.42Z"/>
      <path class="cls-21" d="M103.44,87.15c-.03,1.21-.06,2.43-.1,3.64-2.71,.03-5.42,.07-8.13,.1,0,0-.15-.16-.15-.16-1.45-1.84-1.11-3.98-.88-6.05,.25-2.28,1.62-3.21,3.88-2.73,2.03,1.2,1.99,4.6,5.03,4.75,.12,.15,.24,.29,.36,.44Z"/>
      <path class="cls-5" d="M74.17,136.5c0-1.46-.01-2.93-.02-4.39,1.43-1.42,2.96-1.22,4.53-.28,1.15,1.52,1.21,3.04,.01,4.56-1.51,.03-3.02,.07-4.53,.1Z"/>
      <path class="cls-7" d="M78.7,136.4c-.05-1.48-.11-2.96-.16-4.44,.14-.13,.29-.26,.43-.39,1.16-.49,2.27-.51,3.26,.41,0,0,.33,.06,.33,.06-.04,1.49-.08,2.99-.12,4.48-1.25-.04-2.49-.08-3.74-.11Z"/>
      <path class="cls-9" d="M78.74,107.27c-1.48,0-2.95,0-4.43,0-.04-1.34,.07-2.7-.14-4.02-.6-3.69,1.02-4.85,4.45-4.12,.04,2.72,.08,5.43,.13,8.15Z"/>
      <path class="cls-22" d="M29.35,136.45c-3.75,.77-5.27-.71-4.5-4.48,0,0-.04,.04-.04,.04,1.5-1.16,3.03-1.21,4.59-.1,1.12,1.56,1.05,3.1-.11,4.61l.06-.06Z"/>
      <path class="cls-7" d="M24.84,123.8c1.5,0,2.99,0,4.49-.01,.14,.16,.29,.32,.43,.48,.61,1.52,.64,2.97-.56,4.25-1.49,.84-2.92,.87-4.26-.32-.03-1.47-.06-2.93-.09-4.4Z"/>
      <path class="cls-1" d="M24.93,128.21c1.5,0,3-.02,4.51-.03,.1,.12,.2,.25,.31,.37,.39,.93,.37,1.87,.09,2.83-.13,.3-.36,.52-.66,.66-1.46,0-2.91-.01-4.37-.02,.04-1.27,.08-2.54,.12-3.8Z"/>
      <path class="cls-21" d="M16.61,95.29c-.01-1.49-.03-2.97-.04-4.46,2.34-1.19,3.53-2.86,3.61-5.72,.09-3.2,1.35-3.69,4.68-2.54,3.5-.61,4.67,.69,4.54,4.37-.28,8.36-.08,8.37-8.34,8.36-1.48,0-2.97-.01-4.45-.02Z"/>
      <path class="cls-12" d="M32.97,98.96c.03-1.24,.24-2.5,.05-3.7-.57-3.62,.98-4.98,4.45-4.52,.13,.11,.27,.21,.4,.32,.4,2.12,1.76,3.44,3.65,4.3,.53,2.5,3.12,2.59,4.62,3.95,.69,1.39,.7,2.75-.09,4.1-4.73,.98-3.19,5.39-4.5,8.25-1.02,1.04-2.23,1.06-3.52,.7-.4-.16-.72-.43-.95-.8-.63-1.34-.54-2.78-.56-4.2-.03-.99-.09-2,.03-2.98,.31-2.61-.62-4.33-3.25-4.97-.12-.14-.23-.29-.34-.44Z"/>
      <path class="cls-4" d="M24.86,82.57c-3.16-.52-4.28,.96-3.77,3.93,.63,3.7-1.11,4.87-4.52,4.33,0,0,0,0,0,0-.7-.78-1.07-1.74-.95-2.73,.32-2.69-.92-4.45-3.13-5.74-1.05-2.65-1.12-5.28,.07-7.9,1.04-1.09,2.39-1.15,3.76-1.16,1.45-.02,2.92-.11,4.31,.46,1.73,1.17,1.2,4.19,3.81,4.65,.12,.13,.24,.26,.35,.4,.02,1.25,.04,2.51,.06,3.76Z"/>
      <path class="cls-22" d="M45.66,82.7c-1.48-.04-2.98-.27-4.43-.08-2.92,.39-4.1-.8-3.82-3.64,.15-.17,.3-.35,.44-.52,2.67-.99,5.31-1.11,7.92,.21,.98,1.24,1.09,2.51,.1,3.81l-.22,.22Z"/>
      <path class="cls-12" d="M29.29,107.27c-.02-2.73-.04-5.45-.06-8.18,1.25-.04,2.5-.08,3.75-.12,0,0,.15,.16,.15,.16,1.59,2.7,1.37,5.45,.19,8.22-1.34,1.03-2.67,.98-3.99-.04l-.03-.03Z"/>
      <path class="cls-4" d="M33.05,74.3c-1.22,.04-2.44,.08-3.65,.12-.16-.14-.31-.28-.47-.42-.67-1.16-.59-2.45-.62-3.71,0-1.53-.11-3.1,1.02-4.37,1.27-.83,2.55-.85,3.84-.04,1.43,2.58,1.18,5.24,.35,7.92-.16,.17-.31,.33-.47,.5Z"/>
      <path class="cls-12" d="M37.47,90.74c-.3-2.77,.7-4.13,3.69-3.71,1.44,.2,2.93,.02,4.39,.02,0,0,.33,.06,.33,.06,.92,1.26,.89,2.52,0,3.78-1.34,1.09-2.93,.98-4.5,.97-1.34,0-2.68,0-3.77-.97l-.14-.14Z"/>
      <path class="cls-4" d="M29.4,74.42c.59,3.69-1.01,5.09-4.6,4.39,0,0,.05,.05,.05,.05-1.17-1.48-1.24-3.02-.26-4.62,1.54-1.07,3.08-1.16,4.62,0l.19,.19Z"/>
      <path class="cls-22" d="M37.41,78.97c-3.59,.44-5.03-1.12-4.36-4.67,0,0-.04,.04-.04,.04,1.48-1.13,3-1.2,4.55-.16,1.12,1.5,1.21,3.01,.07,4.55l-.23,.24Z"/>
      <path class="cls-8" d="M12.84,33.15c1.23,0,2.46,0,3.69-.01,2.52-1,3.96-2.66,3.58-5.58-.13-.98,.28-1.93,.94-2.71l-.04,.04c1.18-.87,2.4-1,3.69-.24,.81,.7,1.16,1.69,1.06,2.66-.31,3.02,1.03,4.88,3.78,5.89,.89,1.39,.88,2.81,.13,4.25-4.63,1.06-3.34,5.36-4.54,8.31-.96,1.02-2.15,1.06-3.4,.76-.37-.12-.68-.34-.94-.63-.32-2.51-2.1-3.66-4.22-4.48h.01c-.81-1.63-2.02-2.9-3.6-3.8-.04-1.49-.08-2.98-.13-4.47Z"/>
      <path class="cls-8" d="M16.66,66.09c-.03-1.22-.06-2.44-.09-3.66-1.51-2.5-1.13-4.43,1.71-5.59,1.35-.55,1.73-1.63,1.74-2.96,0-1.56-.09-3.13,.94-4.46,1.33-.83,2.64-.82,3.92,.1,1.65,2.47,.9,5.24,1,7.91,.06,2.54,0,4.99-2.79,6.33-.92,.44-1.09,1.63-1.72,2.39-1.33,1.05-2.76,1.05-4.25,.41-.16-.15-.31-.3-.47-.45Z"/>
      <path class="cls-21" d="M8.29,87.15c-1.21-.03-2.43-.06-3.64-.09,0-5.48,0-10.96,0-16.44,1.21-.03,2.43-.06,3.64-.1,.16,.14,.31,.29,.47,.43,.67,1.17,.59,2.46,.63,3.73,.07,2.54,.08,5.08,.01,7.62-.04,1.5,.14,3.02-.64,4.41-.16,.15-.32,.29-.48,.44Z"/>
      <path class="cls-25" d="M21.07,54.09c.06,2,.35,3.81-2.8,3.92-2.94,.11-1.15,2.9-1.71,4.42-2.49,.21-4.18-.21-3.78-3.45,.32-2.53-.76-5.74,3.74-4.96,1.53-1.05,3.04-1.09,4.54,.07Z"/>
      <path class="cls-21" d="M21.07,54.09c-1.51-.02-3.02-.05-4.54-.07,.05-2.73,.1-5.45,.16-8.17,1.48-1.18,2.94-1.06,4.39,.04h0c1,1.25,1,2.52,.04,3.79-.02,1.47-.04,2.94-.06,4.41Z"/>
      <path class="cls-21" d="M8.29,70.52c-.63-3.83,1.2-4.97,4.72-4.44,1.19,.18,2.43,.02,3.65,.01,0,0-.06-.04-.06-.04,1.04,1.25,1.04,2.64,.56,4.1-.18,.39-.45,.7-.82,.92-1.18,.56-2.44,.51-3.7,.54-1.47,0-2.96,.12-4.2-.93l-.16-.15Z"/>
      <path class="cls-4" d="M21.09,45.89c-1.46-.01-2.93-.03-4.39-.04-.04-1.48-.09-2.95-.13-4.43,3.66-.69,5.19,.77,4.52,4.47Z"/>
      <path class="cls-4" d="M12.97,37.61c2.99-.43,4.12,.91,3.6,3.81-2.96,.39-4.41-.64-3.6-3.81Z"/>
      <path class="cls-20" d="M29.33,107.3c1.22-.01,2.45-.02,3.67-.03,1.47-1.06,2.95-1.23,4.43,0,.05,1.51,.09,3.03,.14,4.54-1.26,1.22-2.86,1-4.4,1.02-1.33,0-2.68,0-3.74-1.01-.03-1.5-.07-3.01-.1-4.51Z"/>
      <path class="cls-10" d="M29.41,120.08c0-1.54,0-3.08,0-4.62,1.28-1.01,2.56-.97,3.86-.05,.97,1.55,.96,3.11,.03,4.68-1.3,.96-2.6,1.02-3.89,0Z"/>
      <path class="cls-9" d="M32.96,115.46c-1.18,0-2.37,0-3.55,0,0-1.22,.01-2.43,.02-3.65,1.23,0,2.45,0,3.68,0,.88,1.26,1.05,2.49-.15,3.66Z"/>
      <path class="cls-9" d="M29.41,120.08h3.55c1.1,1.13,1.19,2.46,.21,3.57-1.15,1.31-2.57,1.05-3.9,.1,0,0,.05,.04,.05,.04,.03-1.24,.05-2.47,.08-3.71Z"/>
      <path class="cls-21" d="M12.85,82.58c3.12-.52,4.14,.92,3.77,3.88-.18,1.44-.04,2.92-.05,4.38-2.73-.01-5.46-.03-8.19-.04-.03-1.22-.06-2.43-.1-3.65,0,0,.16-.15,.16-.15,1.93-.78,3.77-1.66,4.03-4.09,.12-.11,.25-.22,.37-.33Z"/>
      <path class="cls-7" d="M70.43,29.54c2.72-.04,5.45,.11,8.14-.17,3-.31,4.29,.53,3.9,3.76-.27,2.3-.86,5.16,3.31,4.62,1.5-.19,1.08,1.35,1.1,2.23,.08,4.7,.09,9.4,.13,14.1,1.51,2.58,1.22,5.25,.42,7.94-4.27,1.29-3.8,5.24-4.7,8.42-1,1.08-2.23,1.11-3.53,.75-.41-.17-.73-.44-.97-.81-.66-1.39-.54-2.89-.57-4.37-.06-1.24-.03-2.48-.02-3.72-.03-1.41-.07-2.82,.55-4.14,1.06-1.34,3.73-1.39,3.23-4,.62-2.61-1.36-3.53-3.04-4.65-.63-1.06-.63-2.14-.14-3.24,.13-.21,.27-.41,.47-.54q3.3-2.14-.21-4.28c-.62-2.27-2.61-2.84-4.47-3.57-.68-2.1-1.78-3.87-3.88-4.84-.65-1.22-.67-2.38,.27-3.47Z"/>
      <path class="cls-4" d="M74.22,8.42c1.47,.04,2.95,.09,4.42,.13,1.01,1.68,1.73,3.63,3.87,4.29l-.08,.12c1.63,2.39,1.09,4.97,.67,7.54-.16,.42-.43,.76-.78,1.04-1.3,.67-2.53,.56-3.68-.35-1.46,.02-2.92,.05-4.38,.07-1.98-4.28-1.92-8.56-.04-12.85Z"/>
      <path class="cls-8" d="M74.22,8.42c.01,4.28,.02,8.56,.04,12.85,.18,2.36-.07,4.12-3.29,3.72-2.58-.32-5.84,.76-5.14-3.81,.13-.14,.27-.28,.4-.42,2.6-.6,3.39-2.3,3.27-4.86-.11-2.3-.33-4.65,.37-6.93,.17-.39,.44-.7,.79-.93,1.27-.59,2.47-.49,3.57,.4h0Z"/>
      <path class="cls-22" d="M86.8,62.31c.07-2.75,.15-5.49,.22-8.24,1.16,.02,2.31,.04,3.47,.05,.15,.09,.3,.19,.44,.28,.74,1.09,.71,2.36,.63,3.57-.15,2.25,.8,3.49,3.03,3.77,.36,.15,.65,.38,.89,.68,.57,1.11,.57,2.23,.13,3.37-.18,.34-.44,.61-.78,.79-3.09-.12-3.04,3.04-4.66,4.47-1.32,.47-2.54,.43-3.59-.65-1.13-2.74-1.3-5.45,.2-8.12Z"/>
      <path class="cls-8" d="M32.97,16.63c-.37-3.01,.84-4.1,3.93-3.75,2.91,.33,5.89,.14,8.83,.18,1.67,2.67,1.67,5.34,0,8.01-1.48,.09-2.97,.17-4.45,.26-.14-.13-.27-.26-.41-.39-.62-2.32-1.98-3.5-4.51-3.28-1.19,.1-2.49,.08-3.38-1.02Z"/>
      <path class="cls-4" d="M45.73,21.06c0-2.67,0-5.34,0-8.01,1.27-.04,2.55-.07,3.82-.11,.12,.12,.23,.23,.35,.34,.36,2.11,2.04,2.57,3.74,3,.12,.12,.23,.24,.34,.35,0,1.98-.03,3.95,.01,5.93,.03,1.4-.2,2.45-1.97,2.36-1.25-.06-2.56,.14-2.53-1.77,.06-3.04-2.42-1.56-3.78-2.09Z"/>
      <path class="cls-21" d="M103.35,62.38l.1,8.14c-.14,.16-.29,.31-.43,.47-1.38,.76-2.89,.59-4.38,.62-1.34,0-2.67-.04-3.73-1.07-.95-1.54-.89-3.03,.25-4.45l-.04,.04c1.34-.92,2.92-1.59,3.36-3.41,.13-.11,.25-.23,.38-.34,1.49,0,2.99,0,4.48,0Z"/>
      <path class="cls-22" d="M95.13,49.64c2.72-.39,4.09,.41,3.81,3.53-.28,3.05-.07,6.14-.07,9.21,0,0,.04-.04,.04-.04-1.17,.91-2.37,1.13-3.63,.15l-.23-.23c-1.7-2.51-.82-5.34-.97-8.04,.03-1.6-.23-3.28,1.06-4.59Z"/>
      <path class="cls-8" d="M57.85,21.14c-.05-1.46-.09-2.93-.14-4.39-.94-1.33-1.05-2.66,.03-3.98,4.07-1.34,5.03-.69,5.54,3.71,.05,1.66,.15,3.34-1.01,4.74l-.05-.05c-1.46,1.13-2.92,1.21-4.36-.03Z"/>
      <path class="cls-21" d="M90.61,33.17c1.42,.21,3.46-.78,4.15,.7,.93,2,.57,4.42,.17,6.61-.23,1.27-1.6,.84-2.54,.89-1.3,.06-1.73-.7-1.72-1.88,.01-2.12,0-4.24,0-6.36,0,0-.05,.05-.05,.05Z"/>
      <path class="cls-21" d="M37.64,25.03c-.02,1.49-.05,2.98-.07,4.48-.16,.13-.31,.26-.46,.39-1.4,.56-2.75,.56-4.05-.29-1.03-1.18-.97-2.54-.67-3.94,.12-.37,.32-.7,.6-.98,1.22-.72,2.51-.68,3.83-.35,.35,.15,.63,.38,.83,.71Z"/>
      <path class="cls-4" d="M90.64,24.93c1.5,0,2.99,0,4.49,0,.71,3.68-.8,5.15-4.45,4.52-1.27-1.49-1.26-3-.03-4.51Z"/>
      <path class="cls-1" d="M95.13,49.64c-.03,1.51-.06,3.02-.1,4.53-1.41,1.08-2.81,1.12-4.2-.06,0,0-.34,.01-.34,.01,.08-1.47,.16-2.94,.24-4.42,1.45-1.29,2.91-1.22,4.4-.07h0Z"/>
      <path class="cls-22" d="M95.13,49.64c-1.47,.02-2.93,.05-4.4,.07,.18-1.51-1.07-3.65,1.94-3.84,3.2-.2,2.33,2.07,2.46,3.77Z"/>
      <path class="cls-11" d="M70.43,29.54c0,1.21,0,2.42,.01,3.63-.16,.14-.31,.29-.47,.43-1.49,.61-2.92,.64-4.22-.49-.77-1.25-.77-2.44,.23-3.58,1.48,0,2.96,0,4.45,0Z"/>
      <path class="cls-11" d="M57.76,29.54c1.48,0,2.96,0,4.44,0,1.04,1.23,1.02,2.48,.06,3.75-1.51,1.03-3.02,1.02-4.55,.03-.99-1.27-1.02-2.53,.04-3.78Z"/>
      <path class="cls-11" d="M49.53,29.54c1.48,0,2.96,0,4.44,0,1.04,1.23,1.02,2.48,.06,3.75-1.51,1.03-3.02,1.02-4.55,.03-.99-1.27-1.02-2.53,.04-3.78Z"/>
      <path class="cls-11" d="M41.3,29.54c1.48,0,2.96,0,4.44,0,1.04,1.23,1.02,2.48,.06,3.75-1.51,1.03-3.02,1.02-4.55,.03-.99-1.27-1.02-2.53,.04-3.78Z"/>
      <path class="cls-8" d="M90.64,24.93c.01,1.5,.02,3.01,.03,4.51,0,0,0,0,0,0-1.23,.92-2.46,1.01-3.66-.06-.03-1.48-.06-2.97-.09-4.45,.14-.14,.28-.27,.43-.41,1.19-.58,2.3-.45,3.34,.37l-.05,.05Z"/>
      <path class="cls-4" d="M86.93,24.93c-1.51-.04-3.03-.08-4.54-.12-1.03-1.23-.88-2.44,.05-3.64l-.02,.02c1.49-1.17,2.98-1.19,4.48,0l.12-.08c.91,1.31,.91,2.59-.08,3.86,0,0,0-.03,0-.03Z"/>
      <path class="cls-4" d="M57.85,21.14c1.45,0,2.91,.02,4.36,.03-.39,1.29,1.06,3.32-1.52,3.73-3.33,.53-3.13-1.58-2.84-3.76Z"/>
      <path class="cls-21" d="M62.27,21.22c0-1.5,0-3,.01-4.49,1.25-1.04,2.54-1.11,3.88-.18,1.01,1.55,1,3.1,0,4.65,0,0-.33-.02-.33-.02-1.18,.01-2.37,.03-3.55,.04Z"/>
      <path class="cls-4" d="M87.02,29.38c1.22,.02,2.44,.04,3.66,.06-.02,1.24-.05,2.49-.07,3.74,0,0,.05-.05,.05-.05-3.04,.53-4.4-.57-3.64-3.75Z"/>
      <path class="cls-7" d="M62.23,33.17c0-1.21-.02-2.42-.03-3.63,1.26,0,2.52,0,3.78,0,0,1.21-.02,2.42-.03,3.63-.12,.12-.24,.25-.36,.37-1,.48-2,.48-3,0-.12-.12-.24-.25-.36-.37Z"/>
      <path class="cls-7" d="M54,33.17c0-1.21-.02-2.42-.03-3.63,1.26,0,2.52,0,3.78,0,0,1.21-.02,2.42-.03,3.63-.12,.12-.24,.25-.36,.37-1,.48-2,.48-3,0-.12-.12-.24-.25-.36-.37Z"/>
      <path class="cls-7" d="M45.78,33.17c0-1.21-.02-2.42-.03-3.63,1.26,0,2.52,0,3.78,0,0,1.21-.02,2.42-.03,3.63-.12,.12-.24,.25-.36,.37-1,.48-2,.48-3,0-.12-.12-.24-.25-.36-.37Z"/>
      <path class="cls-7" d="M41.3,29.54c0,1.21-.02,2.42-.03,3.63-.16,.14-.32,.28-.48,.43-1.3,.52-2.51,.49-3.55-.59-.7-1.27-.66-2.47,.36-3.57,0,0-.04,.07-.04,.07,1.24,.01,2.49,.02,3.73,.03Z"/>
      <path class="cls-8" d="M82.43,21.17c-.02,1.21-.03,2.43-.05,3.64-3.25,.88-4.09-.76-3.75-3.61,1.27,0,2.53-.02,3.8-.02Z"/>
      <path class="cls-25" d="M57.74,12.94c0,1.27-.02,2.54-.03,3.81-1.24-.04-2.48-.07-3.72-.11,0,0,.05,.05,.05,.05-.95-.91-.95-2-.64-3.17,.13-.37,.36-.67,.66-.91,1.08-.56,2.17-.59,3.28-.07,.13,.13,.27,.27,.4,.4Z"/>
      <path class="cls-21" d="M41.28,21.32c.55,2.97-.87,4-3.64,3.71,0,0-.21-.21-.21-.21-.99-1.27-.91-2.55-.03-3.84,1.3-.87,2.6-.85,3.89,.01l-.02,.33Z"/>
      <path class="cls-8" d="M49.44,8.48c-2.71-.05-5.42-.09-8.12-.14-1.02-1.17-1.02-2.34,0-3.51,4.21,0,8.43,0,12.64,0,1.06,1.25,1.05,2.52,.04,3.8-1.55,1.04-3.07,.95-4.55-.14Z"/>
      <path class="cls-8" d="M62.29,4.8c2.71,0,5.42,0,8.12,.01,1.04,1.19,1,2.4,.06,3.62l-.06,.06c-1.31,1.12-2.89,1.02-4.46,1.01-1.38,.02-2.75,0-3.91-.89-.87-1.33-.83-2.6,.25-3.81Z"/>
      <path class="cls-21" d="M62.29,4.8c-.02,1.22-.04,2.43-.06,3.65-1.45,1.26-2.96,1.12-4.49,.17-1-1.26-1.06-2.53-.04-3.82,1.53,0,3.07,0,4.6,0Z"/>
      <path class="cls-4" d="M70.47,8.43c-.02-1.21-.04-2.41-.06-3.62,1.25-.03,2.51-.06,3.76-.09,.01,1.24,.02,2.48,.04,3.71-1.25,0-2.5,0-3.75,0Z"/>
      <path class="cls-4" d="M41.32,4.82c0,1.17,0,2.34,0,3.52-3.16,.78-4.25-.6-3.77-3.62,1.26,.03,2.51,.07,3.77,.1Z"/>
      <path class="cls-4" d="M57.7,4.8c.03,1.2,.06,2.4,.08,3.6-.12,.13-.23,.26-.35,.4-1.02,.52-2.04,.52-3.06,.03-.12-.13-.24-.26-.37-.38-.01-1.21-.03-2.42-.04-3.63,1.25,0,2.49-.01,3.74-.02Z"/>
      <path class="cls-8" d="M86.89,21.18c-1.49,0-2.99,0-4.48,0,0-2.74,0-5.49,0-8.23,1.5-.01,3-.02,4.5-.03-.01,2.75-.02,5.5-.03,8.25Z"/>
      <path class="cls-21" d="M86.93,24.95c.03-1.29,.05-2.57,.08-3.86,2.93-.4,4.12,.91,3.68,3.79-1.25,.02-2.51,.05-3.76,.07Z"/>
      <path class="cls-21" d="M82.51,12.84c-3.93,.95-4.03-1.55-3.87-4.29,1.26-.03,2.51-.05,3.77-.08,.03,1.46,.07,2.92,.1,4.37Z"/>
      <path class="cls-25" d="M41.3,20.99c-1.23,.08-2.46,.16-3.69,.24-1.81,.87-3.7,1.65-4.54,3.71h0c-.95,.84-2.04,.91-3.21,.58-.34-.14-.63-.35-.88-.62-.34-2.21-1.97-2.95-3.88-3.37-.11-.13-.22-.26-.33-.4-.67-3.69,.85-5.11,4.53-4.49,1.18,.2,2.44,0,3.66-.02,1.37,.02,2.76,.22,4.09,.02,3.53-.54,4.75,1.01,4.24,4.34Z"/>
      <path class="cls-25" d="M21.05,24.84c.01,1.23-.12,2.48,.06,3.68,.57,3.69-.76,5.35-4.58,4.6,.01-2.74,.03-5.49,.04-8.23l4.48-.05Z"/>
      <path class="cls-25" d="M49.44,8.48c1.52,0,3.04-.02,4.56-.03,0,0,0,0,0,0,1.15,1.49,1.18,2.98,.02,4.48l-.06,.06c-1.51,1.17-2.99,1.11-4.45-.08,0,0,.05,.05,.05,.05-.04-1.49-.07-2.98-.11-4.47Z"/>
      <path class="cls-25" d="M24.83,24.91c-1.27,0-2.55-.02-3.82-.03-.38-2.91,.76-4.28,3.78-3.75,0,0,.06,.06,.06,.06,.85,1.01,.95,2.11,.4,3.29-.14,.14-.27,.28-.41,.42Z"/>
      <path class="cls-21" d="M107.09,87.05c-1.21,.03-2.43,.07-3.64,.1,0,0-.15-.16-.15-.16-1.14-1.32-.96-2.93-.98-4.5-.07-2.66-.08-5.32,0-7.99,.01-1.36-.02-2.73,.98-3.83,0,0,.15-.16,.15-.16,1.22,.03,2.43,.06,3.65,.1v16.44Z"/>
      <path class="cls-12" d="M29.27,123.75c2.9,.46,4.48-.41,3.69-3.67,0-1.54,0-3.08,0-4.61,.05-1.22,.1-2.44,.15-3.66,1.49,0,2.97,0,4.46,0,0,0-.05-.05-.05-.05,2.14,3.6,.73,7.55,1.11,11.33,.19,1.88-.02,3.91,2.68,4.07,1.46-.02,2.91-.04,4.36,.03,7.75-.14,7.24,1.01,7.25-7.5,0-3.15,.71-6.61-3.6-7.76-.91-1.37-.91-2.79-.28-4.25,1.64-1.5,4.23-1.91,5.03-4.39,1.15-.71,2.31-.71,3.48-.07,.91,2.34,3.23,3.04,5.05,4.33,.72,1.44,.73,2.86-.09,4.26-3.03,1.01-4.25,3.09-3.72,6.24,.1,.6,.02,1.24,.01,1.86-.02,8.28-.28,7.1,7.19,7.27,1.47-.07,2.93-.06,4.39-.03,2.09-.07,2.62-1.43,2.67-3.21,.07-2.56,0-5.13,.04-7.69,.03-1.58-.09-3.21,1.11-4.5,0,0-.05,.05-.05,.05,1.49,0,2.97,0,4.46,0,.05,1.22,.1,2.44,.15,3.66,0,1.54,0,3.08,0,4.61-.8,3.26,.78,4.13,3.69,3.67-.05,1.48-.11,2.95-.16,4.43,0,0,.1,0,.1,0-1.53,.97-2.92,2.08-3.67,3.81,0,0-.19-.03-.19-.03-1.46,.05-2.92,.1-4.38,.16-1.24,0-2.48,0-3.73,0h-4.45c-1.26,0-2.52,0-3.78,0-4.23,0-8.45,0-12.68,0-1.26,0-2.52,0-3.78,0-1.48,0-2.96,0-4.45,0-1.24,0-2.48,0-3.72,0-1.22,.89-2.55,.9-3.92,.52-.34-.13-.64-.34-.89-.6-.41-1.93-1.94-2.87-3.43-3.85,0,0,.1,0,.1,0-.05-1.48-.11-2.95-.16-4.43Z"/>
      <path class="cls-5" d="M33.19,131.96c1.46,.05,2.92,.1,4.38,.15,0,1.46-.01,2.93-.02,4.39-1.51-.03-3.02-.07-4.53-.1-1.12-1.52-1.29-3.01,.16-4.44Z"/>
      <path class="cls-7" d="M33.19,131.96c-.05,1.48-.11,2.96-.16,4.44-1.25,.04-2.49,.08-3.74,.11-.04-1.49-.08-2.99-.11-4.48,0,0,.33-.06,.33-.06,1.17-1.04,2.34-.88,3.5,.01,0,0,.19-.03,.19-.03Z"/>
      <path class="cls-4" d="M98.83,82.62c-2.95-.53-4.1,.67-3.73,3.65,.18,1.46-.01,2.98-.04,4.47-3.17,.57-4.97-.22-4.47-3.97,.26-1.96,.65-4.06-2.68-4.49-1.89-.25-.68-2.75-1.02-4.21,.11-.12,.23-.24,.34-.36,1.8-.36,2.65-1.61,3.06-3.28,.23-.3,.51-.51,.85-.67,1.3-.43,2.64-.36,3.97-.38,1.2,.01,2.41,0,3.54,.52,.37,.22,.63,.53,.81,.92,.57,2.48,.76,4.94-.17,7.39-.15,.14-.3,.29-.46,.43Z"/>
      <path class="cls-17" d="M82.4,78.11c0-1.26,0-2.52,.01-3.78,.14-.13,.27-.26,.41-.4,1.29-.58,2.59-.55,3.89-.02,.34,.21,.59,.5,.75,.87,.39,1.2,.34,2.32-.58,3.29,0,0,0,0,0,0-1.5,.01-2.99,.03-4.49,.04Z"/>
      <path class="cls-20" d="M74.22,111.75c0,4.33-.21,8.68,.04,12.99,.19,3.14-1.02,4-3.84,3.39-1.99-5.27-1.32-10.6-.41-15.94,.17-.17,.34-.33,.52-.49,1.23,.02,2.46,.03,3.69,.05Z"/>
      <path class="cls-20" d="M65.94,103.57c3.7-.72,5.15,.75,4.55,4.48-.19,1.18,.02,2.43,.04,3.65,0,0-.17,.16-.17,.16-3.99,1.51-5.03,.76-5.45-3.93,.05-1.31-.04-2.65,.59-3.88,.15-.16,.29-.32,.44-.48Z"/>
      <path class="cls-20" d="M70.41,90.93c1.24-.01,2.47-.03,3.71-.04,.36,2.74,.34,5.17-3.58,4.51-.15-.14-.31-.27-.46-.41-.69-1.42-.71-2.78,.33-4.06Z"/>
      <path class="cls-20" d="M70.54,95.39c.72,3.93-1.91,3.8-4.5,3.73-.15-.15-.31-.3-.47-.45-.59-1.31-.55-2.53,.48-3.62,1.46-.83,2.9-.93,4.29,.14l.2,.19Z"/>
      <path class="cls-20" d="M66.04,99.13c-.03,1.48-.07,2.96-.1,4.44,0,0,.05-.05,.05-.05-1.05,.94-2.23,.99-3.49,.49-.38-.22-.66-.53-.85-.93-.46-1.52-.55-2.99,.54-4.31,1.27-.73,2.5-.76,3.69,.19l.17,.16Z"/>
      <path class="cls-7" d="M45.8,90.83c.03-1.24,.05-2.48,.08-3.72,6.66,0,13.32,0,19.98,0,.03,1.24,.07,2.49,.1,3.73-.12,.12-.24,.24-.35,.37-2.33,.35-2.47,2.35-3.03,4.04-.25,.3-.54,.52-.89,.67-1.34,.44-2.71,.36-4.09,.39-1.2,.05-2.4,.03-3.6,.02-1.38,0-2.76,.05-4.06-.55-1.61-1.22-1.23-4.11-3.78-4.57-.12-.13-.23-.26-.35-.4Z"/>
      <path class="cls-7" d="M62.18,82.47c-4.21,0-8.42,0-12.62,0-1.08-1.26-1.09-2.55-.13-3.88,4.21-1.8,8.49-2.39,12.9-.73,1.09,1.57,1.12,3.11-.14,4.61Z"/>
      <path class="cls-1" d="M62.18,82.47c.03-1.45,.06-2.89,.09-4.34,.83-.98,1.88-.87,2.96-.62,.34,.15,.59,.38,.77,.7-.05,1.42-.09,2.84-.14,4.25-1.23,0-2.45,0-3.68,0Z"/>
      <path class="cls-1" d="M49.46,78.88c.03,1.2,.06,2.39,.09,3.59-1.23,0-2.46,0-3.68,0-.05-1.17-.09-2.34-.14-3.5,.13-.16,.25-.32,.38-.48,1.2-.59,2.34-.67,3.35,.39Z"/>
      <path class="cls-7" d="M78.63,74.23c-2.54,0-5.29-.25-4.54,3.75-2.7,.08-5.4,.16-8.1,.23,0,0-.06-.33-.06-.33-1.3-1.94-.93-3.54,1.25-4.3,1.71-.6,2.24-2.09,3.2-3.28,1.16-.75,2.47-.78,3.78-.76,1.57-.03,3.16-.12,4.47,1.01l.08,.08c.94,1.22,.95,2.42-.09,3.59Z"/>
      <path class="cls-1" d="M78.63,74.23c.03-1.2,.06-2.4,.09-3.59,1.2-.05,2.4-.09,3.59-.14,.15,.14,.31,.27,.47,.4,.64,1.23,.54,2.37-.37,3.43,0,0,0,0,0,0-1.26-.03-2.52-.06-3.78-.1Z"/>
      <path class="cls-18" d="M70.35,95.2c-1.45,.03-2.9,.06-4.35,.08-.15-.15-.29-.29-.44-.44-.67-1.44-.64-2.81,.43-4.07,0,0-.03,.06-.03,.06,1.49,.03,2.97,.06,4.46,.09-.02,1.43-.04,2.85-.07,4.28Z"/>
      <path class="cls-11" d="M78.73,131.98c-.84-3.26,.81-4.12,3.67-3.81-.06,1.26-.11,2.53-.17,3.79-1.17,0-2.33,0-3.5,.01Z"/>
      <path class="cls-4" d="M103.32,82.53c0,1.49-.02,2.97-.03,4.46-3.81,.91-4.87-.97-4.46-4.37,0,0,.08-.08,.08-.08,1.47-1.12,2.93-1.13,4.4,0Z"/>
      <path class="cls-11" d="M33,131.98c-1.17,0-2.33,0-3.5-.01-.06-1.26-.11-2.53-.17-3.79,2.86-.31,4.51,.55,3.67,3.81Z"/>
      <path class="cls-20" d="M41.31,128.14c-2.82,.61-4.02-.25-3.83-3.39,.26-4.32,.05-8.66,.04-12.99,1.23-.02,2.46-.03,3.69-.05,.17,.17,.34,.33,.51,.5,.92,5.34,1.58,10.67-.4,15.94Z"/>
      <path class="cls-20" d="M41.2,111.7c.03-1.22,.24-2.47,.04-3.65-.61-3.73,.85-5.2,4.55-4.48,.14,.16,.29,.32,.43,.48,.62,1.23,.52,2.56,.59,3.87-.42,4.7-1.46,5.45-5.45,3.94l-.17-.16Z"/>
      <path class="cls-9" d="M37.42,107.26c-1.48,0-2.95,0-4.43,0,.04-2.72,.08-5.43,.13-8.15,3.43-.73,5.04,.43,4.45,4.12-.21,1.31-.11,2.68-.14,4.02Z"/>
      <path class="cls-20" d="M37.61,90.88c1.23,.02,2.47,.03,3.7,.05,1.05,1.27,1.03,2.62,.35,4.04-.15,.14-.31,.27-.46,.41-3.92,.68-3.96-1.75-3.59-4.5Z"/>
      <path class="cls-20" d="M45.79,103.57c-.03-1.48-.07-2.96-.1-4.44,.14-.15,.28-.3,.42-.46,1.22-.6,2.4-.59,3.55,.19,.93,1.32,.87,2.75,.42,4.21-.18,.4-.45,.7-.82,.92-1.26,.53-2.45,.46-3.51-.48l.05,.05Z"/>
      <path class="cls-20" d="M45.69,99.13c-2.59,.06-5.23,.19-4.49-3.75,0,0,.17-.16,.17-.16,1.23-.98,2.58-.9,3.98-.46,.38,.17,.67,.44,.88,.8,.49,1.21,.49,2.36-.38,3.42l-.15,.16Z"/>
      <path class="cls-17" d="M16.7,70.49c-.03-1.48-.07-2.96-.1-4.44,1.48-.02,2.96-.04,4.45-.06,2.52-1.43,5.12-1.18,7.73-.33,.16,.16,.31,.32,.47,.48,.02,1.47,.03,2.94,.05,4.4-1.62,1.06-3.69,1.6-4.36,3.76-.03,1.52-.06,3.04-.09,4.55-4,.85-3.9-1.84-3.86-4.48-.7-2.11-2.67-2.81-4.29-3.89Z"/>
      <path class="cls-8" d="M8.41,82.53v-8.15c1.21-1.12,2.57-1.1,3.99-.48,.15,.14,.29,.28,.44,.43,0,2.75,0,5.5,0,8.24,0,0,0,0,0,0-1.49,1.16-2.97,1.19-4.44-.04Z"/>
      <path class="cls-21" d="M16.7,70.49c2.63-.02,5.29-.09,4.29,3.89-1.47-.01-2.93-.03-4.4-.04-.91-1.19-1.09-2.4-.1-3.64l.21-.21Z"/>
      <path class="cls-8" d="M16.49,70.7c.03,1.21,.07,2.42,.1,3.64-1.25,0-2.5,0-3.74,0,0,0,.02,.02,.02,.02-.98-1.24-1.02-2.48,.04-3.71,1.2,.02,2.39,.04,3.59,.06Z"/>
      <path class="cls-7" d="M37.64,78.74c-.08-1.49-.15-2.98-.23-4.46,.18-.15,.37-.3,.55-.46,1.64-.76,3.39-.67,5.1-.5,3.44,.35,4.13,1.76,2.73,5.33,0,0-.06,.33-.06,.33-2.7-.08-5.4-.16-8.1-.23Z"/>
      <path class="cls-17" d="M37.41,74.27c-1.47,.02-2.93,.05-4.4,.07-.02-2.73-.04-5.47-.05-8.2-.9-1.32-.95-2.62,.06-3.92,1.56-1.04,3.1-1.04,4.63,.05,1.62,2.56,.86,5.4,.96,8.15,.02,1.4-.02,2.79-.99,3.94l-.21-.09Z"/>
      <path class="cls-8" d="M24.94,74.3c-1.09-4.21,1.78-3.81,4.36-3.76-.03,1.23-.06,2.46-.09,3.69-1.42,.02-2.85,.04-4.27,.07Z"/>
      <path class="cls-21" d="M33.1,62.28c-.05,1.29-.1,2.58-.15,3.87-1.23,0-2.47,0-3.7,0,0,0,.04,.02,.04,.02-.9-1.16-1.03-2.38-.34-3.68,1.06-1.11,2.31-1.09,3.64-.61,.17,.14,.34,.27,.51,.41Z"/>
      <path class="cls-9" d="M45.84,95.26c-1.49-.01-2.98-.03-4.47-.04-.02-1.43-.04-2.86-.06-4.29,1.5-.03,2.99-.07,4.49-.1,0,0-.04-.05-.04-.05,1.1,1.48,1.3,2.97,.08,4.49Z"/>
      <path class="cls-25" d="M29.32,33.16c-3.79,.71-5.07-.97-4.52-4.6,.18-1.19,.03-2.43,.04-3.65,0,0-.01,.01-.01,.01,1.5-1.18,3-1.18,4.5,0h-.01c1.08,1.19,1.03,2.66,1.01,4.13-.03,1.24,.04,2.5-.57,3.65-.14,.15-.29,.3-.43,.44Z"/>
      <path class="cls-4" d="M24.78,45.84c.01-1.25,.19-2.52,.01-3.74-.53-3.62,.9-5.09,4.5-4.45,.15,.16,.3,.31,.46,.47,.86,2.58,.97,5.14-.18,7.67-1.32,1.2-2.78,1.18-4.33,.52-.16-.16-.31-.31-.47-.47Z"/>
      <path class="cls-17" d="M29.29,37.66c0-1.5,.01-3,.02-4.5,0,0,.04,.05,.04,.05,1.02-.99,2.19-.99,3.43-.51,.38,.22,.66,.52,.84,.92,.45,1.51,.52,2.97-.63,4.25-1.27,.77-2.47,.77-3.58-.3l-.12,.09Z"/>
      <path class="cls-4" d="M21.13,49.68c-.01-1.26-.03-2.53-.04-3.79,1.23-.01,2.46-.03,3.69-.04,0,0,.09,.09,.09,.09,.84,1.02,.92,2.11,.36,3.29-.14,.14-.28,.27-.42,.41-1.23,.02-2.45,.03-3.68,.05Z"/>
      <path class="cls-4" d="M29.37,62.28c-.03,1.29-.05,2.59-.08,3.88-2.75-.06-5.5-.11-8.25-.17,.09-1.76-.38-3.49,2.54-3.84,2.29-.27,.81-2.88,1.3-4.37,1.5-1.11,3-1.06,4.51-.01,1.06,1.51,1.12,3.02-.03,4.51Z"/>
      <path class="cls-17" d="M29.32,57.86c-1.48-.03-2.96-.05-4.44-.08-.03-2.72-.05-5.44-.08-8.16,0,0,.12,.09,.12,.09,1.36-1.25,2.81-1.2,4.32-.32,1.18,1.23,1.06,2.79,1.08,4.31-.03,1.26,.04,2.53-.57,3.7-.14,.15-.29,.3-.44,.45Z"/>
      <path class="cls-4" d="M8.41,82.53c1.48,.01,2.96,.03,4.44,.04,.56,3.5-.62,5.27-4.41,4.42,0-1.49-.02-2.97-.03-4.46Z"/>
      <path class="cls-4" d="M12.9,70.64c-.01,1.24-.02,2.47-.04,3.71-1.48,.01-2.97,.02-4.45,.03,0-1.24,.02-2.48,.03-3.71,1.49,0,2.97-.02,4.46-.03Z"/>
      <path class="cls-19" d="M74.16,70.55l-3.7,.05c-1.12-1.54-1.91-3.21-3.91-4.13-1.89-.87-1.72-2.74-.48-4.37,2.54-1.37,5.28-.74,7.95-.81,1.6,.02,3.25-.18,4.58,1.03,.01,1.25,.03,2.5,.04,3.75-2.15,.84-3.64,2.33-4.48,4.49Z"/>
      <path d="M78.61,45.89c.01,1.26,.02,2.52,.04,3.77-.12,.12-.24,.24-.36,.37-2.44,.21-3.39,1.81-3.72,4-.23,.31-.53,.54-.89,.68-1.18,.34-2.31,.31-3.31-.5-.55-2.63-2.7-3.69-4.76-4.86-.6-1.3-.58-2.53,.38-3.66,4.01-1.55,8.06-1.19,12.13-.29,.17,.16,.33,.32,.5,.48Z"/>
      <path class="cls-22" d="M74.16,37.53c2.56,.07,5.48-.28,4.49,3.89-.17,.15-.33,.3-.5,.45-3.95,.95-7.9,.99-11.85-.03-1.25-.96-1.29-2.24-.95-3.62,.16-.42,.43-.75,.8-1,1.4-.68,2.91-.56,4.39-.58,1.28-.02,2.54,.03,3.6,.89Z"/>
      <path class="cls-23" d="M78.59,62.32c-1.49,0-2.98,0-4.47,0-1.54-2.72-1.51-5.44-.02-8.16l.14-.07c1.23-.99,2.58-.96,3.99-.51,.38,.17,.68,.44,.89,.8,.51,1.21,.5,2.37-.36,3.44l-.18,4.52Z"/>
      <path class="cls-1" d="M86.8,62.31c.03,2.76,.06,5.52,.1,8.28-.14,.14-.29,.28-.43,.42-1.38,.62-2.71,.65-3.96-.33,0,0-.19-.18-.19-.18,.03-1.23,.26-2.49,.07-3.69-.56-3.58,.9-5.01,4.42-4.49Z"/>
      <path class="cls-11" d="M74.16,70.55c-.56-3.56,.93-5.05,4.48-4.49,0,1.5,0,2.99,0,4.49-1.5,0-2.99,0-4.49,0Z"/>
      <path class="cls-11" d="M74.16,37.53c-1.23,0-2.45,0-3.68,0-1.24-1.45-1.14-2.91-.02-4.38,0,0-.01,.01-.02,.02,3.79-.72,4.04,1.57,3.72,4.37Z"/>
      <path d="M78.64,49.67c4.07-.93,4.13,1.52,3.68,4.39-1.18,1.07-2.37,1.03-3.57,.04l-.12,.04c-1.15-1.54-1.1-3.05,.09-4.54l-.08,.08Z"/>
      <path class="cls-22" d="M78.66,41.42c1.56,.23,3.83-1.03,3.81,2.25-.02,3.3-2.35,1.9-3.86,2.23,0,0,.07,.05,.07,.05-1.16-1.53-1.18-3.06,.03-4.58l-.05,.05Z"/>
      <path class="cls-22" d="M78.75,54.1c1.19-.01,2.38-.03,3.57-.04,.64,2.99-.34,4.42-3.55,3.74,0-1.23-.01-2.47-.02-3.7Z"/>
      <path class="cls-25" d="M65.96,8.45c1.49,.01,2.97,.02,4.46,.03,.01,2.84-.22,5.71,.1,8.52,.41,3.58-1.1,4.68-4.36,4.2-.09-1.49-.18-2.98-.28-4.47-1.49-2.77-1.56-5.53,.08-8.27Z"/>
      <path class="cls-7" d="M90.83,54.11c1.4,.02,2.8,.04,4.2,.06,0,2.7,0,5.4,.01,8.09-3.52,.82-4.98-.51-4.41-4.13,.21-1.32,.14-2.68,.21-4.02Z"/>
      <path class="cls-17" d="M95.16,66.09c0,1.5-.02,3.01-.03,4.51-.13,.13-.26,.26-.38,.39-1.24,.57-2.47,.57-3.71,0-.13-.13-.26-.26-.38-.39-.71-3.71,.86-5.15,4.5-4.52Z"/>
      <path class="cls-17" d="M86.9,70.59c1.25,0,2.51,0,3.76,.01,0,0-.01-.01-.01-.01,.99,1.25,1,2.49-.01,3.74h0c-1.24,1.01-2.48,1-3.73,0h.01c-1-1.24-1.01-2.49-.01-3.75h0Z"/>
      <path class="cls-17" d="M95.27,62.5c1.21-.05,2.42-.1,3.63-.15,.48,3-.78,4.26-3.78,3.78,.05-1.21,.1-2.42,.15-3.63Z"/>
      <path class="cls-17" d="M49.5,12.89c1.49,.03,2.97,.06,4.46,.08,.03,1.24,.06,2.47,.08,3.71-2.76,.23-5.38,.29-4.54-3.8Z"/>
      <path class="cls-4" d="M103.29,70.67c.01,1.24,.02,2.47,.03,3.71-1.5,1.17-2.98,1.09-4.45-.05l.02,.02c-.96-1.22-1.05-2.46-.06-3.71,1.49,0,2.97,.02,4.46,.03Z"/>
      <path class="cls-8" d="M98.83,70.65c.02,1.24,.04,2.47,.06,3.71-1.25,0-2.5,0-3.75-.01-1-1.25-1-2.5,0-3.75,0,0,0,0,0,0,1.23,.02,2.47,.03,3.7,.05Z"/>
      <path class="cls-4" d="M65.96,8.45c-.03,2.76-.05,5.51-.08,8.27-1.2,0-2.4,0-3.6,0,.72-3.94-1.78-4.02-4.54-3.79,0,0,0,0,0,0-1.14-1.47-1.2-2.96-.04-4.45,0,0,.08-.08,.08-.08,1.48,.01,2.97,.03,4.45,.04,1.24,0,2.49,0,3.73,0Z"/>
      <path class="cls-17" d="M37.61,29.43c-.04,1.23-.08,2.46-.12,3.69-.14,.15-.29,.29-.43,.44-1.43,.67-2.78,.64-4.03-.42l.03,.03c-.9-1.01-.98-2.12-.4-3.3,.14-.14,.29-.27,.43-.41,1.51,0,3.01-.02,4.52-.03Z"/>
      <path class="cls-8" d="M29.34,29.44c-.01-1.51-.02-3.02-.03-4.53,1.26,0,2.51,.01,3.77,.02,0,1.51,.01,3.01,.02,4.52,0,0-.05-.05-.05-.05-1.23,.98-2.46,1.02-3.7,.03Z"/>
      <path class="cls-8" d="M33.07,24.94c-.79-4.06,1.77-4.02,4.54-3.71-.06,1.2-.12,2.39-.18,3.59-1.46,.04-2.91,.08-4.37,.13Z"/>
      <path class="cls-7" d="M70.46,33.15c0,1.46,.01,2.92,.02,4.38-1.5,.05-2.99,.11-4.49,.16-1.35-1.51-1.14-3.02-.02-4.54,0,0-.01,.01-.02,.02,1.5,0,3,0,4.5-.02Z"/>
      <path class="cls-7" d="M57.73,33.17c1.5,0,3,0,4.5,0,0,0-.02-.02-.02-.02,1.05,1.18,1.01,2.53,.61,3.93-.15,.38-.4,.7-.73,.94-1.36,.64-2.74,.63-4.12,.08-.36-.21-.63-.52-.81-.9-.47-1.44-.49-2.83,.58-4.05l-.02,.02Z"/>
      <path class="cls-7" d="M49.5,33.17c1.5,0,3,0,4.5,0,0,0-.02-.02-.02-.02,1.07,1.28,1.05,2.69,.52,4.17-.21,.4-.52,.69-.92,.88-1.55,.49-3.05,.56-4.34-.66-.89-1.52-.84-2.99,.27-4.39l-.02,.02Z"/>
      <path class="cls-7" d="M41.27,33.17c1.5,0,3,0,4.5,0,0,0-.02-.02-.02-.02,1.15,1.51,1.21,3.05,.09,4.6-1.56,1.09-3.13,1.09-4.73,.08-1.08-1.6-1-3.16,.17-4.68l-.02,.02Z"/>
      <path class="cls-11" d="M62.22,37.66c0-1.5,0-3.01,0-4.51,1.25,0,2.5,0,3.76,0,0,1.51,.02,3.03,.02,4.54,0,0,0-.01,0-.01-1.27,.9-2.53,1.12-3.79-.02Z"/>
      <path class="cls-11" d="M53.99,37.66c0-1.5,0-3.01,0-4.51,1.25,0,2.5,0,3.76,0,0,1.5,0,3.01,0,4.51-1.25,1.07-2.5,1.07-3.75,0Z"/>
      <path class="cls-11" d="M45.74,37.69c0-1.51,.02-3.03,.02-4.54,1.25,0,2.5,0,3.76,0,0,1.5-.01,3.01-.02,4.51-.12,.12-.24,.25-.36,.37-1,.49-2.01,.49-3.03,.02-.13-.12-.25-.24-.37-.36Z"/>
      <path class="cls-11" d="M41.29,33.15c-.01,1.46-.02,2.92-.04,4.38-1.22,1.25-2.5,1.09-3.82,.18-1.1-1.55-1.02-3.09,.08-4.61,0,0-.01,.01-.01,.01,1.27,.01,2.53,.02,3.8,.03Z"/>
      <path class="cls-8" d="M57.7,8.49c.01,1.48,.03,2.97,.04,4.45-1.24,0-2.48-.01-3.72-.02,0-1.49-.01-2.98-.02-4.48,1.23,.01,2.47,.03,3.7,.04Z"/>
      <path class="cls-8" d="M29.32,24.93c-1.5,0-3,0-4.5,0,0-1.24,.02-2.49,.03-3.73,2.76-.28,5.22-.2,4.47,3.73Z"/>
      <path class="cls-8" d="M98.87,74.33c1.48,.02,2.97,.03,4.45,.05,0,2.72,0,5.43,0,8.15-1.47,0-2.94,0-4.4,0-.02-2.74-.03-5.47-.05-8.21Z"/>
      <path class="cls-18" d="M49.53,111.72c3.76-.66,5.09,.96,4.5,4.63-.21,1.32-.03,2.71-.03,4.06q0,8.16-8.21,7.73c-2.35-4.92-1.5-10.74,2.08-14.44,.6-.62,.92-1.47,1.66-1.98Z"/>
      <path class="cls-18" d="M65.94,128.13q-8.21,.43-8.21-7.73c0-1.36,.18-2.74-.03-4.06-.59-3.66,.73-5.29,4.5-4.63,4.55,3.23,5.6,7.75,4.87,12.98-.17,1.23-.16,2.48-1.13,3.44Z"/>
      <path class="cls-9" d="M49.53,111.72c-.15,1.7,.63,3.87-2.41,3.91-1.59,.02-1.33,1.49-1.34,2.55-.02,3.32,0,6.63,0,9.95-1.49,0-2.99,0-4.48,0,.02-5.42,.04-10.85,.06-16.27,3.63,.53,5.05-1.06,4.41-4.62,1.01-.83,2.1-.92,3.28-.39,.14,.13,.28,.27,.43,.4,.02,1.48,.04,2.97,.05,4.45Z"/>
      <path class="cls-9" d="M65.94,128.13c0-2.7,.05-5.41,0-8.11-.03-2.06,.81-4.45-2.78-4.78-1.62-.15-.69-2.3-.97-3.53,.02-1.48,.04-2.96,.05-4.44,.14-.13,.28-.27,.42-.4,1.17-.55,2.26-.45,3.28,.37-.64,3.56,.78,5.15,4.41,4.62,.02,5.42,.04,10.85,.06,16.27-1.49,0-2.99,0-4.48,0Z"/>
      <path class="cls-11" d="M53.93,95.33c1.29,0,2.59,0,3.88,0,1.51,2.5,1.18,5.09,.4,7.7-.15,.16-.3,.33-.46,.49-1.25,0-2.51-.01-3.76-.02-.15-.16-.3-.33-.46-.49-.79-2.61-1.12-5.19,.39-7.69Z"/>
      <path class="cls-9" d="M53.99,103.5c.86,4.09-1.71,4.07-4.51,3.76,0,0,.05,.05,.05,.05-1.02-1.26-1.03-2.52,0-3.78l-.05,.05c1.51-1.22,3.03-1.2,4.55-.03l-.05-.05Z"/>
      <path class="cls-18" d="M62.25,107.27c-2.76,.26-5.4,.38-4.5-3.76,0,0-.05,.04-.05,.04,1.52-1.18,3.03-1.2,4.54,.03l-.05-.05c1.05,1.25,1.04,2.51,0,3.77l.06-.03Z"/>
      <path class="cls-21" d="M95.14,70.59c0,1.25,0,2.5,0,3.75-1.5,0-3.01,0-4.51-.01,0-1.25,0-2.49,.01-3.74,1.5,0,3,0,4.5,0Z"/>
      <path class="cls-21" d="M86.9,74.33c1.24,0,2.49,0,3.73-.01,.52,3.02-.73,4.27-3.74,3.75,0-1.25,0-2.49,.01-3.73Z"/>
      <path class="cls-22" d="M86.9,70.59c0,1.25,0,2.51,.01,3.76-1.5,0-3,0-4.51-.01,.03-1.22,.06-2.44,.1-3.65,1.47-.03,2.93-.06,4.4-.1Z"/>
      <path class="cls-12" d="M62.19,107.3c0-1.26,0-2.51,0-3.77,1.27,0,2.53,0,3.8-.01-.01,1.24-.02,2.48-.03,3.72-1.25,.02-2.51,.04-3.76,.06Z"/>
      <path class="cls-9" d="M65.88,98.96c-1.18,.02-2.36,.04-3.54,.06-1.28-1.22-1.01-2.48-.1-3.76l-.05,.05c1.25-.99,2.51-1.04,3.78-.04,0,0,.03,0,.03,0-.04,1.23-.08,2.45-.12,3.68Z"/>
      <path class="cls-12" d="M62.24,95.27c.03,1.25,.07,2.5,.1,3.76-.03,1.52-.07,3.04-.11,4.56-1.51-.01-3.02-.02-4.54-.03,.04-2.74,.07-5.49,.11-8.23,1.48-.02,2.95-.04,4.43-.06Z"/>
      <path class="cls-12" d="M54.04,103.55c-1.52,.01-3.03,.02-4.55,.03-.03-1.52-.07-3.04-.1-4.56-.77-1.03-.84-2.12-.31-3.27,.13-.14,.27-.28,.4-.42,1.48,0,2.96,0,4.44,0,.04,2.74,.08,5.48,.12,8.22Z"/>
      <path class="cls-12" d="M45.84,95.26c-.03-1.5-.06-2.99-.08-4.49,4.1-.82,4.02,1.78,3.73,4.56,0,0,.04-.04,.04-.04-1.26,1-2.5,1.04-3.73-.05,0,0,.05,.02,.05,.02Z"/>
      <path class="cls-12" d="M65.96,95.28c-1.26,.01-2.52,.03-3.78,.04-.19-2.73-.3-5.4,3.8-4.54,0,1.5-.01,3-.02,4.5Z"/>
      <path class="cls-11" d="M66.1,62.43c-.36,2.15-.31,3.65,2.68,3.81,2.91,.15,1.17,2.85,1.67,4.36,.12,2.1,.22,3.93-2.9,3.85-2.38-.06-1.3,2.17-1.62,3.45-1.22,.08-2.45,.16-3.67,.24-4.3-.37-8.55,.23-12.8,.75-1.22-.08-2.45-.16-3.67-.24,.57-3.61-1.04-4.87-4.51-4.33-1.2,.19-2.45,.04-3.67,.05,.02-1.26,.03-2.52,.05-3.78,2.5-2.91,5.53-5.31,7.96-8.29,2.26-.73,2.95-2.78,3.89-4.62,3.32-1.86,4.89,.22,6.31,3.4,1.36-2.71,2.64-5.07,5.87-3.74,1.81,.98,1.05,4.08,3.66,4.4,.31,.16,.56,.4,.75,.7Z"/>
      <path class="cls-12" d="M49.54,103.53c0,1.26,0,2.52,0,3.78-1.25-.02-2.5-.04-3.75-.06-.01-1.24-.02-2.48-.03-3.72,1.26,0,2.53,0,3.79,0Z"/>
      <path class="cls-9" d="M45.79,95.24c1.24,.02,2.49,.03,3.73,.05-.04,1.24-.09,2.49-.13,3.73-1.18-.02-2.37-.03-3.55-.05-.02-1.24-.03-2.49-.05-3.73Z"/>
      <path class="cls-19" d="M45.86,62.45c-.04,1.99,.1,4.06-2.94,3.71-1-.11-1.68,.53-1.58,1.55,.3,2.98-1.55,3.07-3.68,2.87-.05-2.74-.09-5.47-.14-8.21,.14-.14,.28-.28,.42-.42,2.31-.87,4.66-.65,7.01-.24,.38,.15,.69,.39,.91,.74Z"/>
      <path class="cls-23" d="M37.52,62.37c-1.47-.03-2.95-.06-4.42-.09,0,0,.04,.06,.04,.06-1.22-1.15-1.09-2.66-1.1-4.14,.02-1.28-.03-2.57,.52-3.78,.23-.4,.55-.68,.97-.87,1.6-.46,3.13-.54,4.39,.83,.98,2.7,1.3,5.38-.39,7.96v.04Z"/>
      <path class="cls-17" d="M32.93,57.9c.07,1.48,.14,2.95,.21,4.43-1.26-.02-2.52-.03-3.77-.05-.02-1.47-.03-2.95-.05-4.42,0,0-.01,.01-.01,.01,1.22-.95,2.43-1.03,3.63,.03Z"/>
      <path class="cls-4" d="M29.34,29.44c1.23-.01,2.47-.02,3.7-.03,0,1.25,.01,2.51,.02,3.76-1.24,.01-2.47,.02-3.71,.04,0-1.26-.01-2.51-.02-3.77Z"/>
      <path class="cls-21" d="M29.41,37.57c1.24,.02,2.49,.03,3.73,.05,.14,.17,.28,.34,.42,.5,.75,2.57,.9,5.12-.22,7.64-1.09,1.08-2.32,1.12-3.65,.52-.15-.16-.3-.32-.46-.48,.06-2.75,.12-5.49,.18-8.24Z"/>
      <path class="cls-21" d="M29.33,49.63c-1.47,.03-2.93,.05-4.4,.08-.02-1.26-.04-2.53-.06-3.79,1.46-.04,2.91-.08,4.37-.12,0,0,.15,.16,.15,.16,.82,1.01,.87,2.1,.34,3.25-.13,.14-.27,.28-.4,.42Z"/>
      <path class="cls-7" d="M37.51,33.11c0,1.46,.01,2.91,.02,4.37-.13,.17-.25,.34-.38,.5-1.45,.76-2.82,.76-4.08-.4,0,0,.07,.04,.07,.04-.03-1.49-.07-2.98-.11-4.47,1.49-.01,2.98-.02,4.47-.04Z"/>
      <path d="M29.33,54.11c0-1.49,0-2.98,0-4.47,0,0-.01,.01-.01,.01,1.26-.99,2.55-1.06,3.85-.08,1.08,1.54,1.04,3.06-.06,4.57l-.12-.05c-1.21,1.04-2.43,1.01-3.65,.02Z"/>
      <path class="cls-22" d="M29.33,54.11c1.22,0,2.44-.01,3.65-.02-.02,1.27-.04,2.54-.05,3.82-1.21-.01-2.42-.02-3.63-.03,0-1.26,.02-2.51,.03-3.77Z"/>
      <path class="cls-14" d="M74.1,54.15c0,2.72,.02,5.44,.02,8.17-2.68,.04-5.35,.08-8.02,.12,0,0-.16-.21-.16-.21-1.07-1.21-1.02-2.57-.51-3.97,1.21-1.63,4.16-1.15,4.59-3.75,.13-.12,.26-.24,.39-.36,1.23,0,2.46,0,3.69,.01Z"/>
      <path class="cls-7" d="M62.02,57.85c-2.15,.04-4.74-.6-4.37,3.1,.11,1.11-.84,1.38-1.79,1.38s-1.9-.27-1.79-1.38c.37-3.7-2.22-3.06-4.37-3.1-.16-.1-.32-.2-.48-.3-.6-.83-.77-1.81-.66-2.76,.27-2.48-.73-4.15-2.97-5.15-.74-1.05-.76-2.17-.3-3.33,1.43-1.36,3.67-2.06,3.68-4.57,.16-.31,.39-.57,.67-.77,2.06-.32,3.48-1.47,4.36-3.34,0,0-.01,.01-.02,.02,1.25,0,2.5,0,3.75,0,0,0-.02-.02-.02-.02,.89,1.66,1.93,3.13,4.07,3.2,.31,.15,.57,.37,.79,.64,.53,1.68,.76,3.59,3,4,.12,.12,.23,.25,.35,.37v3.81c-.1,.12-.22,.25-.33,.37-1.65,.6-2.6,1.63-2.47,3.53,.08,1.2,.1,2.43-.35,3.6-.17,.32-.42,.54-.75,.68Z"/>
      <path class="cls-7" d="M78.71,41.37c-.01,1.53-.02,3.05-.03,4.58-4.25-.03-8.5-.06-12.75-.1,0,0,.06,.06,.06,.06-1.07-1.24-1.09-2.6-.47-4.04,.14-.15,.28-.3,.42-.45,4.26-.02,8.51-.03,12.77-.05Z"/>
      <path class="cls-23" d="M65.94,49.66c3.73-.75,5.31,.66,4.47,4.48,0,0,.06-.07,.06-.07-1.42,1.14-3.03,1.42-4.38,.19-1.52-1.38-1.25-3.08-.05-4.65l-.09,.05Z"/>
      <path class="cls-6" d="M78.72,49.59c-.03,1.51-.06,3.03-.09,4.54-1.46-.02-2.93-.04-4.39-.06-.88-3.87,.9-5.08,4.48-4.48Z"/>
      <path class="cls-7" d="M62.22,37.66c1.26,0,2.53,.01,3.79,.02-.02,1.25-.04,2.49-.07,3.74,0,0,.05-.05,.05-.05-1.2,.95-2.43,1.11-3.69,.11l-.19-.19c-.99-1.25-.79-2.45,.12-3.64l-.02,.02Z"/>
      <path class="cls-11" d="M62.23,37.64c-.04,1.21-.08,2.43-.12,3.64-2.89,.51-5.02,.1-4.38-3.64,1.5,0,3,0,4.5,0Z"/>
      <path class="cls-11" d="M54,37.64c.64,3.75-1.51,4.13-4.38,3.64-1.25-1.18-1-2.4-.11-3.64,0,0-.01,.01-.02,.02,1.5,0,3,0,4.5-.02Z"/>
      <path class="cls-22" d="M37.53,37.48c1.24,.02,2.48,.04,3.73,.05,1.49,.05,2.99,.11,4.48,.16,0,0,0-.01,0-.01,.98,1.09,1.01,2.29,.42,3.57-.26,.36-.6,.63-1.02,.8-2.62,.49-5.24,.88-7.75-.49-.84-1.29-.9-2.56,.17-3.77l-.02-.32Z"/>
      <path class="cls-7" d="M45.74,41.42c0-1.25-.01-2.49-.02-3.74,1.26-.01,2.53-.02,3.79-.04,.04,1.22,.07,2.43,.11,3.65,0,0-.19,.19-.19,.19-1.24,.93-2.47,.99-3.69-.06Z"/>
      <path class="cls-22" d="M65.97,57.99c0,1.41-.02,2.82-.03,4.23-4.32,1.25-3.61-2.01-3.92-4.37,0,0,.18-.09,.18-.09l.17,.11c1.24-.98,2.44-1.08,3.61,.12Z"/>
      <path class="cls-22" d="M49.71,57.85c-.25,2.4,.31,5.47-3.85,4.6,0,0-.12-.2-.12-.2-1.17-1.45-1.12-2.96-.19-4.5,1.3-.9,2.57-.96,3.81,.11l.17-.11,.18,.09Z"/>
      <path class="cls-14" d="M45.76,57.99c0,1.42-.01,2.84-.02,4.26-2.74,.03-5.48,.05-8.21,.08l-.09-8.01c.12-.17,.24-.33,.36-.5,1.17-.66,2.32-.62,3.44,.1,.73,2.21,2.8,2.95,4.52,4.08Z"/>
      <path class="cls-6" d="M33.11,54.14c.01-1.5,.02-2.99,.03-4.49,.17-.16,.34-.31,.51-.47,4.41-.7,5.5,.62,4.05,4.92,0,0-.26,.22-.26,.22-1.45-.06-2.89-.12-4.34-.18Z"/>
      <path class="cls-17" d="M37.55,37.8c.02,1.23,.04,2.45,.07,3.68,1.06,1.33,1.01,2.74,.35,4.21-1.14,1.3-2.59,1.17-4.07,.85-.4-.15-.72-.4-.95-.77,.04-2.73,.08-5.46,.12-8.19,1.49,.07,2.99,.15,4.48,.22Z"/>
      <path class="cls-17" d="M33.14,49.65c-1.27,0-2.55,0-3.82,0,.02-1.23,.05-2.46,.07-3.68,1.19-.06,2.37-.13,3.56-.19,0,0,.21,.22,.21,.22,1.02,1.26,.8,2.49-.09,3.71l.07-.05Z"/>
      <path d="M65.97,57.99c-1.2-.04-2.4-.08-3.61-.12-.05-1.45,.05-2.93-.17-4.36-.49-3.13,.59-4.54,3.83-3.9-.85,3.81,.63,5.29,4.44,4.46,.92,4.09-1.78,4.01-4.49,3.92Z"/>
      <path d="M33.07,49.7c.03-1.24,.06-2.47,.09-3.71,1.48-.06,2.96-.13,4.43-.19,2.48-1.47,5.04-1.16,7.63-.36,.16,.15,.32,.31,.48,.46,0,1.26,.02,2.52,.03,3.78-.12,.12-.24,.24-.36,.36-2.2,.28-3.38,1.57-3.69,3.72-.12,.12-.24,.23-.37,.35-1.2,0-2.4,0-3.61,0,.46-3.58-.84-5.31-4.63-4.4Z"/>
      <path d="M45.76,57.99c-2.58-.04-5.49,.3-4.46-3.89,0,0-.04,.05-.04,.05,2.19-.85,3.65-2.42,4.55-4.55,0,0-.09,.09-.09,.09,2.83-.56,4.36,.2,3.82,3.47-.25,1.54-.13,3.14-.18,4.72-1.2,.04-2.4,.08-3.61,.12Z"/>
      <path class="cls-22" d="M62.3,41.47c1.23-.04,2.46-.07,3.69-.11,0,1.51,0,3.03,0,4.54-3.91,.76-4.14-1.55-3.68-4.43Z"/>
      <path class="cls-22" d="M45.74,41.42c1.23,.02,2.46,.04,3.69,.06,.5,2.95,.16,5.19-3.74,4.42,0,0,.07,.05,.07,.05-1.16-1.53-1.18-3.06,.03-4.58l-.05,.05Z"/>
      <path class="cls-7" d="M45.79,41.37c-.01,1.53-.02,3.05-.03,4.58-2.72-.05-5.45-.1-8.18-.15,0-1.44,.02-2.88,.03-4.32,2.73-.04,5.45-.07,8.18-.11Z"/>
      <path class="cls-23" d="M45.81,49.59c.63,3.67-.8,5.27-4.55,4.55-.71-3.75,.88-5.19,4.55-4.55Z"/>
    </g>
  </g>
</svg>