<?xml version="1.0" encoding="UTF-8"?>
<svg id="Ebene_2" data-name="Ebene 2" xmlns="http://www.w3.org/2000/svg" viewBox="0 0 93.77 105.78">
  <defs>
    <style>
      .cls-1 {
        fill: #fad785;
      }

      .cls-2 {
        fill: #b6e1f6;
      }
    </style>
  </defs>
  <g id="Ebene_1-2" data-name="Ebene 1">
    <path class="cls-1" d="M11.82,81.61c-1.09,2.84-2.18,5.67-3.27,8.51C5.7,90.4,2.85,90.68,0,90.96c2.11,1.98,4.22,3.96,6.33,5.93-.61,2.95-1.21,5.9-1.82,8.86,2.41-1.43,4.82-2.87,7.24-4.3,2.49,1.44,4.99,2.89,7.48,4.33-.63-2.94-1.25-5.89-1.88-8.83,2.03-1.96,4.05-3.93,6.08-5.89-2.72-.32-5.44-.65-8.15-.97-1.15-2.82-2.3-5.65-3.45-8.47Z"/>
    <path class="cls-1" d="M45.08,81.61c-1.09,2.84-2.18,5.67-3.27,8.51-2.85,.28-5.7,.55-8.56,.83,2.11,1.98,4.22,3.96,6.33,5.93-.61,2.95-1.21,5.9-1.82,8.86,2.41-1.43,4.82-2.87,7.24-4.3,2.49,1.44,4.99,2.89,7.48,4.33-.63-2.94-1.25-5.89-1.88-8.83,2.03-1.96,4.05-3.93,6.08-5.89-2.72-.32-5.44-.65-8.15-.97-1.15-2.82-2.3-5.65-3.45-8.47Z"/>
    <path class="cls-1" d="M78.34,81.61c-1.09,2.84-2.18,5.67-3.27,8.51-2.85,.28-5.7,.55-8.56,.83,2.11,1.98,4.22,3.96,6.33,5.93-.61,2.95-1.21,5.9-1.82,8.86,2.41-1.43,4.82-2.87,7.24-4.3,2.49,1.44,4.99,2.89,7.48,4.33-.63-2.94-1.25-5.89-1.88-8.83,2.03-1.96,4.05-3.93,6.08-5.89-2.72-.32-5.44-.65-8.15-.97-1.15-2.82-2.3-5.65-3.45-8.47Z"/>
    <path class="cls-2" d="M71.75,30.14c-.15-.51-.44-1.35-1.02-2.26-.83-1.29-1.8-2.02-2.12-2.29-1.57-1.26-4.49-3.78-8.41-7.13-7.35-6.15-14.7-12.31-22.06-18.46-.39,.38-.79,.76-1.18,1.15-.69,.71-1.38,1.42-2.07,2.12-.23,.23-1.66,1.67-2.66,2.88-.19,.22-.47,.58-.6,1.12-.06,.24-.08,.49-.03,1.12,.04,.45,.11,1.06,.27,1.78,.39,1.7,.78,3.4,1.17,5.1,.89,3.86,1.79,7.72,2.7,11.58,.07,.3,.12,.77-.13,1.14-.33,.5-1.04,.57-1.41,.59-1.37,.09-6.65,.14-13.8,.1-4.57-.05-9.13-.1-13.7-.15-.8,.2-1.88,.58-2.99,1.33-2.31,1.56-3.29,3.74-3.65,4.69-.02,1.46-.04,2.92-.06,4.37-.01,.58,0,1.47,.15,2.54,.36,2.57,1.27,4.39,1.63,5.12,2.16,4.38,5.21,11.49,11.52,21.59,.42,.67,1.27,1.99,2.86,3.02,2.02,1.32,4.13,1.41,5.09,1.44,3.84,.13,19.95,.19,41.96-.06,.99-.19,3.36-.79,5.5-2.82,1.81-1.72,2.57-3.62,2.88-4.58-.01-1.75-.02-3.51-.04-5.26,.06-9.92,.12-19.85,.19-29.77Zm-9.44,34.33c-.3,.12-.6,.24-.9,.36-13.3,0-26.61,.02-39.91,.03-4.09-7.98-8.19-15.96-12.28-23.93,0-1.62-.02-3.23-.03-4.85,9.4-.07,18.81-.13,28.21-.19,.74-.04,1.98-.2,3.27-.93,.78-.44,1.26-.9,1.85-1.47,1.15-1.11,2.16-2.09,2.53-3.62,.19-.8,.15-1.5,.11-2.26-.06-1.1-.27-1.91-.38-2.31-.87-3.29-1.5-6.64-2.31-9.94-.05-.2-.17-.68-.03-.75,.06-.03,.15,.03,.2,.07,6.61,5.51,13.23,11.02,19.84,16.53,0,10.86,.02,21.73,.03,32.59-.07,.22-.13,.45-.19,.67Z"/>
    <path class="cls-2" d="M93.75,27.81c0,14.86,.01,29.73,.02,44.59-2.95-.05-5.9-.09-8.85-.14-.42-.09-1.3-.35-2.11-1.1-.64-.59-.96-1.23-1.12-1.6,0-13.01,0-26.03-.01-39.04,.17-.38,.51-1.02,1.18-1.6,.89-.77,1.84-.99,2.26-1.06,2.88-.01,5.76-.03,8.64-.04Z"/>
  </g>
</svg>