<svg width="7856" height="3944" viewBox="0 0 7856 3944" fill="none" xmlns="http://www.w3.org/2000/svg">
<g filter="url(#filter0_d_204_2)">
<path d="M7043.92 3935.44H6711.91C6711.91 2390.17 5461.07 1122.82 3911.4 1122.82C2372.79 1122.82 1110.91 2379.05 1110.91 3935.44H778.841C778.841 2201.18 2184.62 800.429 3900.33 800.429C5616.04 800.429 7043.92 2212.3 7043.92 3935.44Z" fill="#FC7A08"/>
<path d="M6213.77 3935.43H5472.14C5472.14 3079.42 4774.78 2379.05 3922.47 2379.05C3070.14 2379.05 2372.79 3079.42 2372.79 3935.43H1631.16C1631.16 2668.09 2660.58 1645.32 3911.39 1645.32C5162.21 1645.32 6213.77 2679.21 6213.77 3935.43Z" fill="#FC7A08"/>
<path d="M5040.44 3935.44H4708.38C4708.38 3501.87 4354.16 3146.12 3922.47 3146.12C3490.77 3146.12 3136.56 3501.87 3136.56 3935.44H2804.48C2804.48 3324 3302.59 2823.73 3911.4 2823.73C4520.2 2823.73 5040.44 3324 5040.44 3935.44Z" fill="#FC7A08"/>
<path d="M7852 3935.44H7519.92C7519.92 1945.48 5903.83 333.512 3922.47 333.512C1941.09 333.512 336.073 1945.48 336.073 3935.44H4C4 1767.61 1763.99 0 3922.47 0C6080.94 0 7852 1767.61 7852 3935.44Z" fill="#FC7A08"/>
</g>
<defs>
<filter id="filter0_d_204_2" x="0" y="0" width="7856" height="3943.44" filterUnits="userSpaceOnUse" color-interpolation-filters="sRGB">
<feFlood flood-opacity="0" result="BackgroundImageFix"/>
<feColorMatrix in="SourceAlpha" type="matrix" values="0 0 0 0 0 0 0 0 0 0 0 0 0 0 0 0 0 0 127 0" result="hardAlpha"/>
<feOffset dy="4"/>
<feGaussianBlur stdDeviation="2"/>
<feComposite in2="hardAlpha" operator="out"/>
<feColorMatrix type="matrix" values="0 0 0 0 0 0 0 0 0 0 0 0 0 0 0 0 0 0 0.25 0"/>
<feBlend mode="normal" in2="BackgroundImageFix" result="effect1_dropShadow_204_2"/>
<feBlend mode="normal" in="SourceGraphic" in2="effect1_dropShadow_204_2" result="shape"/>
</filter>
</defs>
</svg>
