<?xml version="1.0" encoding="UTF-8"?>
<svg id="Ebene_2" data-name="Ebene 2" xmlns="http://www.w3.org/2000/svg" viewBox="0 0 238.98 348.04">
  <defs>
    <style>
      .cls-1, .cls-2 {
        stroke-width: 0px;
      }

      .cls-2 {
               fill: #ffff66

      }
    </style>
  </defs>
  <g id="Ebene_1-2" data-name="Ebene 1">
    <path class="cls-1" d="m55.56,198.7c-.33-.24-.72-.29-1.09-.38-5.89-1.49-11.73-3.16-17.42-5.31-2.8-1.05-5.54-2.22-8.16-3.66-1.4-.77-2.75-1.63-4-2.63-1.88-1.5-3.25-3.36-4.09-5.62-.71-1.91-1.15-3.88-1.46-5.88-.68-4.48-.78-8.99-.7-13.51.05-2.95.17-5.9.32-8.84.09-1.88.25-3.76.45-5.63.07-.66-.07-1.14-.5-1.64-2.65-3.06-5.19-6.22-7.62-9.47-2.84-3.79-5.54-7.66-7.81-11.82-1.11-2.03-2.09-4.12-2.77-6.34-.38-1.23-.62-2.49-.68-3.77-.06-1.25.14-2.48.45-3.69.5-1.94,1.29-3.76,2.2-5.54,1.36-2.67,2.95-5.19,4.64-7.65,3.57-5.19,7.53-10.08,11.66-14.83.16-.19.32-.38.5-.56.33-.32.42-.69.38-1.16-.38-4.61-.6-9.22-.62-13.85-.01-2.95.16-5.9.28-8.84.08-2.03.35-4.03.7-6.03.29-1.68.7-3.33,1.27-4.95.9-2.56,2.44-4.63,4.62-6.25,1.37-1.02,2.83-1.9,4.35-2.68,3.17-1.62,6.49-2.9,9.85-4.03,5.56-1.88,11.22-3.38,16.94-4.69.1-.02.21-.04.31-.06.56-.09.94-.38,1.24-.88,1.25-2.03,2.52-4.04,3.82-6.03,2.99-4.55,6.15-8.97,9.7-13.1,1.6-1.86,3.29-3.64,5.15-5.24,1.03-.88,2.11-1.69,3.27-2.38,1.88-1.11,3.92-1.65,6.08-1.74,2.11-.08,4.19.15,6.26.52,4.95.87,9.73,2.37,14.46,4.03,3.89,1.37,7.72,2.88,11.51,4.51.13.06.27.1.39.17.47.27.91.24,1.42.02,1.57-.66,3.16-1.29,4.75-1.91,5.04-1.95,10.14-3.72,15.36-5.1,2.47-.65,4.97-1.2,7.51-1.55,1.73-.24,3.47-.35,5.21-.25,2.09.12,4.06.66,5.87,1.74,1.41.85,2.69,1.86,3.9,2.97,1.94,1.78,3.69,3.75,5.35,5.79,3.53,4.34,6.66,8.95,9.64,13.67.91,1.44,1.79,2.9,2.68,4.36.61,1,.6,1.01,1.68,1.26,3.53.83,7.02,1.78,10.49,2.82,4.26,1.28,8.46,2.7,12.54,4.48,1.99.87,3.94,1.81,5.78,2.97.84.53,1.66,1.11,2.44,1.71,2.03,1.56,3.43,3.57,4.27,5.99.57,1.65.98,3.34,1.25,5.06.84,5.43.94,10.9.75,16.38-.07,1.95-.16,3.91-.28,5.86-.12,1.92-.27,3.83-.43,5.74-.11,1.41-.12,1.41.79,2.48,4,4.72,7.83,9.57,11.3,14.71,1.63,2.42,3.17,4.89,4.49,7.5,1,1.97,1.86,3.99,2.4,6.14.56,2.23.5,4.43-.13,6.63-.48,1.68-1.14,3.29-1.92,4.85-1.65,3.32-3.66,6.42-5.81,9.43-3.32,4.67-6.92,9.12-10.68,13.43q-.99,1.13-.87,2.66c.46,5.64.68,11.28.55,16.94-.08,3.45-.29,6.89-.84,10.3-.28,1.75-.69,3.48-1.25,5.17-.94,2.83-2.61,5.1-5.04,6.83-1.57,1.12-3.23,2.07-4.96,2.91-3.59,1.74-7.33,3.09-11.13,4.3-4.94,1.57-9.96,2.89-15.02,4.03-.61.14-1.03.39-1.32.94-.27.5-.57.98-.9,1.45-.29.42-.32.83-.18,1.31.36,1.15.68,2.32,1.02,3.48,4.32,14.72,8.65,29.44,12.97,44.17,5.3,18.06,10.6,36.13,15.89,54.19,1.55,5.28,3.09,10.57,4.65,15.85.21.73.32,1.45.2,2.21-.28,1.73-1.76,3.1-3.5,3.18-.56.03-1.14-.04-1.68-.17-7.47-1.75-14.94-3.51-22.4-5.27-3.63-.86-7.26-1.72-10.89-2.58-.1-.02-.21-.05-.31-.08-.45-.12-.81-.03-1.14.34-.59.67-1.22,1.29-1.83,1.94-7.09,7.44-14.18,14.87-21.27,22.31-.22.23-.45.46-.67.69-2.2,2.34-5.9,1.3-6.72-1.62-.71-2.53-1.48-5.04-2.22-7.56-6.19-21.1-12.38-42.19-18.57-63.29-1.81-6.17-3.61-12.34-5.43-18.51-.11-.39-.09-.86-.57-1.17-.12.37-.24.7-.34,1.03-3.67,12.51-7.35,25.01-11.02,37.52-4.81,16.39-9.61,32.79-14.42,49.18-.55,1.87-1.1,3.75-1.65,5.62-.1.34-.21.68-.35,1-1.09,2.38-4.09,3.07-6.1,1.39-.3-.25-.56-.54-.83-.82-7.66-8.03-15.31-16.05-22.97-24.08-.87-.91-.71-.92-2.01-.61-10.4,2.46-20.81,4.91-31.21,7.37-.66.16-1.31.33-1.97.47-.42.08-.84.15-1.27.15-2.29,0-4.04-1.88-3.87-4.16.04-.49.16-.98.3-1.46,1.93-6.61,3.87-13.23,5.81-19.84,3.61-12.3,7.22-24.61,10.83-36.91,4.29-14.62,8.58-29.24,12.87-43.86,2.28-7.77,4.56-15.54,6.84-23.31.13-.43.35-.86.29-1.36ZM212.51,68.32c.05-4.61,0-8.77-.57-12.9-.2-1.48-.5-2.94-.96-4.36-.39-1.2-1.06-2.17-2.09-2.88-.79-.54-1.59-1.08-2.42-1.56-1.91-1.1-3.94-1.98-5.99-2.78-6.93-2.72-14.08-4.71-21.32-6.35-1.77-.4-2.96-1.26-3.87-2.84-3.36-5.86-7.03-11.53-11.15-16.9-1.62-2.12-3.33-4.17-5.23-6.04-.94-.93-1.92-1.8-3.02-2.53-.66-.43-1.36-.78-2.17-.82-.81-.04-1.64-.1-2.44-.04-2.24.17-4.43.59-6.61,1.11-4.43,1.07-8.76,2.46-13.01,4.06-3.22,1.21-6.42,2.5-9.61,3.82-1.34.55-2.61.62-3.9-.05-.06-.03-.13-.05-.2-.08-4.09-1.82-8.24-3.49-12.46-4.99-4.39-1.56-8.81-3-13.41-3.83-1.29-.23-2.6-.37-3.91-.48-1.61-.13-3.11.24-4.39,1.29-.58.47-1.19.9-1.72,1.43-1.14,1.12-2.28,2.25-3.34,3.44-2.38,2.65-4.5,5.5-6.55,8.41-2.75,3.89-5.34,7.89-7.76,11.99-.72,1.21-1.73,1.9-3.1,2.2-3.02.67-6.03,1.37-9.02,2.15-4.71,1.23-9.37,2.64-13.9,4.44-2.18.87-4.32,1.82-6.32,3.07-2.36,1.47-2.95,2.29-3.66,4.97-.56,2.1-.82,4.25-1.02,6.41-.25,2.76-.28,5.54-.3,8.31-.02,5.37.28,10.73.75,16.08.13,1.45-.26,2.64-1.24,3.7-1.23,1.33-2.41,2.71-3.58,4.09-3.47,4.1-6.8,8.31-9.8,12.77-1.41,2.1-2.74,4.24-3.84,6.51-.51,1.06-.97,2.13-1.28,3.27-.26.95-.26,1.89,0,2.84.4,1.49,1.03,2.87,1.72,4.24,1.18,2.32,2.55,4.52,4.01,6.67,3.71,5.48,7.84,10.64,12.18,15.64.23.27.48.53.69.81.64.86.89,1.83.79,2.91-.26,2.8-.53,5.59-.71,8.39-.19,3.05-.31,6.11-.3,9.17,0,3.74.1,7.46.68,11.16.2,1.27.47,2.51.87,3.73.37,1.11.98,2.05,1.95,2.73.76.53,1.52,1.05,2.31,1.52,1.84,1.09,3.79,1.94,5.77,2.74,5.18,2.09,10.52,3.69,15.92,5.11,2.13.56,4.27,1.06,6.42,1.56,1.12.26,2.06.77,2.7,1.74.14.21.25.43.38.64,1.33,2.19,2.62,4.39,3.99,6.56,2.71,4.3,5.59,8.49,8.79,12.45,1.3,1.6,2.66,3.15,4.15,4.58.85.81,1.73,1.58,2.72,2.22.73.47,1.51.76,2.39.82,1.25.09,2.49.02,3.72-.14,2.47-.31,4.89-.87,7.3-1.52,5.12-1.39,10.1-3.16,15.03-5.09,1.85-.73,3.69-1.49,5.52-2.27,1.22-.52,2.41-.54,3.6.03.22.11.45.21.68.31,4.23,1.86,8.52,3.58,12.88,5.11,4.26,1.49,8.56,2.85,13.02,3.64,1.61.29,3.24.44,4.88.36.77-.04,1.49-.21,2.11-.65.82-.56,1.66-1.11,2.38-1.78,1.25-1.16,2.44-2.38,3.59-3.64,1.82-2,3.46-4.15,5.06-6.33,3.33-4.53,6.39-9.23,9.26-14.07.72-1.21,1.7-1.92,3.08-2.23,3.19-.72,6.37-1.47,9.53-2.3,4.68-1.22,9.29-2.64,13.78-4.46,2.18-.88,4.29-1.89,6.3-3.12,1.7-1.04,2.76-2.48,3.25-4.42.48-1.9.81-3.82,1-5.77.31-3.22.46-6.45.42-9.69-.06-5.08-.27-10.16-.76-15.23-.04-.42-.05-.85-.06-1.28-.01-.89.29-1.67.84-2.36.2-.25.42-.48.63-.72,3.34-3.74,6.55-7.59,9.57-11.6,2.29-3.04,4.48-6.15,6.35-9.47.77-1.36,1.45-2.77,2.03-4.22.68-1.7.77-3.38.03-5.07-.53-1.2-1.02-2.42-1.61-3.59-1.11-2.19-2.43-4.26-3.81-6.29-3.05-4.51-6.4-8.79-9.9-12.96-.87-1.03-1.74-2.06-2.64-3.07-.8-.9-1.18-1.93-1.08-3.13.04-.46.07-.92.11-1.38.19-2.23.41-4.46.55-6.69.16-2.55.24-5.11.34-7.22ZM83.42,336.36c.17-.53.28-.86.38-1.2,1.77-6.03,3.54-12.06,5.31-18.09,5.65-19.25,11.3-38.51,16.95-57.76,2.11-7.19,4.21-14.38,6.33-21.57.17-.57.17-1.09,0-1.66-1.17-3.91-2.31-7.84-3.46-11.75-.08-.27-.19-.52-.29-.78-.51-.09-.88.16-1.27.29-5.11,1.75-10.26,3.35-15.61,4.24-1.86.31-3.73.51-5.62.49-2.93-.03-5.61-.84-7.97-2.6-.54-.4-1.08-.81-1.6-1.24-1.62-1.34-3.07-2.85-4.46-4.43-3.25-3.69-6.11-7.67-8.85-11.75-.4-.59-.78-1.19-1.18-1.78-.1-.14-.2-.3-.48-.21-.1.29-.22.62-.32.95-.68,2.32-1.36,4.63-2.04,6.95-5.3,18.06-10.6,36.12-15.89,54.18-4.52,15.4-9.04,30.8-13.56,46.21-.44,1.5-.89,3-1.31,4.5-.07.25-.25.53.04.82.19-.03.4-.06.6-.11,8.12-1.92,16.24-3.84,24.37-5.75,1.73-.41,3.45-.82,5.19-1.19,1.35-.29,2.53.12,3.52,1.07.18.17.35.35.52.53,2.38,2.5,4.76,4.99,7.14,7.49,4.22,4.42,8.44,8.85,12.66,13.27.24.25.5.48.9.87Zm32.66-115.78c.13.5.22.88.33,1.25,5.83,19.87,11.65,39.73,17.48,59.6,4.21,14.35,8.42,28.69,12.63,43.04.74,2.52,1.48,5.04,2.22,7.57.1.33.15.67.4.96.44-.17.66-.51.92-.79,5.5-5.76,11-11.52,16.49-17.28,1.2-1.26,2.41-2.51,3.61-3.78.69-.73,1.52-1.15,2.5-1.3.65-.11,1.28.07,1.89.21,6.43,1.52,12.85,3.05,19.28,4.57,3.21.76,6.43,1.51,9.65,2.26.19.05.4.05.65.08.05-.59-.17-1.04-.3-1.51-3.78-12.92-7.57-25.83-11.37-38.75-4.94-16.83-9.88-33.67-14.82-50.5-1.35-4.6-2.7-9.2-4.05-13.8-.1-.33-.16-.67-.39-.96-.41.16-.55.51-.75.78-1.52,1.97-2.99,3.98-4.55,5.92-1.94,2.41-4.03,4.69-6.38,6.72-1,.86-2.05,1.65-3.18,2.32-1.65.97-3.41,1.54-5.32,1.72-2.22.21-4.4-.02-6.58-.36-2.81-.44-5.56-1.14-8.29-1.94-5.97-1.76-11.78-3.97-17.51-6.38-.59-.25-1.18-.5-1.8-.76-.88.36-1.76.72-2.76,1.13Z"/>
    <path class="cls-2" d="m212.51,68.32c-.1,2.11-.18,4.67-.34,7.22-.14,2.23-.36,4.46-.55,6.69-.04.46-.07.92-.11,1.38-.1,1.2.27,2.23,1.08,3.13.9,1.01,1.78,2.04,2.64,3.07,3.5,4.17,6.85,8.45,9.9,12.96,1.37,2.03,2.7,4.1,3.81,6.29.59,1.17,1.09,2.39,1.61,3.59.74,1.69.65,3.37-.03,5.07-.58,1.45-1.27,2.86-2.03,4.22-1.87,3.32-4.06,6.43-6.35,9.47-3.02,4-6.23,7.86-9.57,11.6-.21.24-.43.47-.63.72-.54.69-.85,1.47-.84,2.36,0,.43.02.85.06,1.28.49,5.06.7,10.14.76,15.23.04,3.24-.11,6.47-.42,9.69-.19,1.94-.53,3.87-1,5.77-.49,1.94-1.55,3.37-3.25,4.42-2.01,1.23-4.12,2.24-6.3,3.12-4.49,1.82-9.1,3.24-13.78,4.46-3.16.82-6.34,1.58-9.53,2.3-1.38.31-2.36,1.02-3.08,2.23-2.87,4.83-5.94,9.53-9.26,14.07-1.6,2.18-3.24,4.33-5.06,6.33-1.15,1.26-2.35,2.48-3.59,3.64-.72.67-1.57,1.22-2.38,1.78-.63.43-1.35.61-2.11.65-1.64.08-3.27-.07-4.88-.36-4.46-.79-8.76-2.15-13.02-3.64-4.36-1.53-8.65-3.25-12.88-5.11-.23-.1-.46-.2-.68-.31-1.2-.57-2.38-.56-3.6-.03-1.83.79-3.67,1.55-5.52,2.27-4.93,1.94-9.91,3.71-15.03,5.09-2.4.65-4.83,1.21-7.3,1.52-1.23.16-2.47.23-3.72.14-.88-.06-1.66-.35-2.39-.82-.99-.64-1.88-1.41-2.72-2.22-1.49-1.43-2.85-2.98-4.15-4.58-3.21-3.96-6.08-8.15-8.79-12.45-1.36-2.16-2.66-4.37-3.99-6.56-.13-.21-.25-.43-.38-.64-.65-.98-1.59-1.48-2.7-1.74-2.14-.5-4.29-1-6.42-1.56-5.4-1.42-10.74-3.02-15.92-5.11-1.98-.8-3.93-1.65-5.77-2.74-.79-.47-1.55-1-2.31-1.52-.97-.67-1.58-1.61-1.95-2.73-.4-1.22-.68-2.47-.87-3.73-.58-3.7-.67-7.43-.68-11.16,0-3.06.11-6.12.3-9.17.18-2.8.46-5.6.71-8.39.1-1.08-.14-2.04-.79-2.91-.21-.28-.46-.54-.69-.81-4.34-5-8.47-10.16-12.18-15.64-1.46-2.15-2.83-4.35-4.01-6.67-.69-1.36-1.32-2.75-1.72-4.24-.26-.95-.26-1.89,0-2.84.31-1.14.77-2.21,1.28-3.27,1.1-2.28,2.43-4.42,3.84-6.51,3-4.46,6.33-8.67,9.8-12.77,1.17-1.38,2.35-2.76,3.58-4.09.99-1.07,1.37-2.26,1.24-3.7-.48-5.35-.77-10.71-.75-16.08.01-2.77.04-5.55.3-8.31.2-2.16.46-4.31,1.02-6.41.71-2.68,1.3-3.5,3.66-4.97,2-1.24,4.14-2.2,6.32-3.07,4.53-1.8,9.19-3.22,13.9-4.44,2.99-.78,6-1.48,9.02-2.15,1.37-.31,2.39-.99,3.1-2.2,2.42-4.1,5.01-8.1,7.76-11.99,2.05-2.91,4.18-5.76,6.55-8.41,1.07-1.19,2.2-2.32,3.34-3.44.53-.52,1.15-.95,1.72-1.43,1.28-1.05,2.77-1.42,4.39-1.29,1.31.11,2.62.25,3.91.48,4.59.83,9.02,2.27,13.41,3.83,4.22,1.5,8.37,3.18,12.46,4.99.06.03.13.05.2.08,1.29.66,2.56.6,3.9.05,3.18-1.32,6.38-2.6,9.61-3.82,4.26-1.6,8.59-2.99,13.01-4.06,2.18-.52,4.38-.95,6.61-1.11.81-.06,1.63,0,2.44.04.81.04,1.51.38,2.17.82,1.1.73,2.08,1.6,3.02,2.53,1.9,1.88,3.61,3.93,5.23,6.04,4.11,5.37,7.79,11.03,11.15,16.9.9,1.58,2.1,2.44,3.87,2.84,7.25,1.64,14.4,3.63,21.32,6.35,2.05.81,4.07,1.68,5.99,2.78.83.48,1.63,1.01,2.42,1.56,1.03.71,1.7,1.68,2.09,2.88.46,1.43.76,2.89.96,4.36.56,4.13.62,8.29.57,12.9Zm-30.01,17.2c-.09-1.97-.14-4.03-.29-6.08-.12-1.63-.39-3.24-.82-4.83-.67-2.47-2.01-4.46-4.16-5.86-.98-.64-2-1.23-3.04-1.77-1.64-.85-3.37-1.51-5.11-2.13-3.25-1.16-6.56-2.1-9.91-2.92-.62-.15-.98-.45-1.29-.97-.81-1.34-1.64-2.66-2.5-3.97-1.84-2.79-3.77-5.52-6-8.02-1.09-1.22-2.25-2.37-3.56-3.36-1.85-1.41-3.93-2.09-6.25-2.07-1.54.01-3.05.23-4.55.52-2.83.55-5.59,1.37-8.3,2.33-2.04.72-4.06,1.5-6.08,2.29-.5.19-.93.25-1.42,0-.47-.24-.98-.42-1.47-.62-3.93-1.58-7.89-3.04-12.02-4-2.01-.47-4.04-.82-6.12-.75-1.59.05-3.08.45-4.46,1.26-1.11.65-2.13,1.43-3.03,2.34-1.12,1.14-2.22,2.3-3.25,3.53-2.63,3.14-4.91,6.54-7.05,10.02-.35.56-.77.84-1.4,1-2.38.6-4.75,1.21-7.1,1.9-2.87.83-5.68,1.83-8.36,3.16-1.25.62-2.44,1.32-3.53,2.19-1.28,1.02-2.23,2.28-2.84,3.8-.51,1.26-.83,2.57-1.05,3.9-.44,2.64-.57,5.3-.6,7.97-.03,2.84.09,5.69.34,8.52.06.65-.1,1.14-.53,1.64-1.21,1.39-2.39,2.82-3.54,4.27-2.05,2.59-3.99,5.27-5.61,8.16-.77,1.37-1.43,2.78-1.88,4.28-.56,1.86-.57,3.71-.03,5.57.33,1.13.78,2.21,1.3,3.26.82,1.66,1.79,3.23,2.81,4.77,1.87,2.81,3.94,5.48,6.1,8.09.29.36.58.72.89,1.06.23.26.29.55.26.89-.08.85-.12,1.7-.19,2.55-.29,3.66-.31,7.32-.14,10.98.08,1.67.32,3.32.65,4.96.67,3.29,2.41,5.8,5.35,7.46.15.09.3.19.46.28,1.36.78,2.77,1.44,4.22,2.03,3.86,1.58,7.84,2.75,11.88,3.75,1.02.25,1.65.72,2.18,1.61,2.1,3.51,4.38,6.9,6.97,10.07,1.28,1.57,2.66,3.05,4.22,4.36,2.24,1.89,4.8,2.66,7.71,2.46,2.39-.16,4.71-.65,7.01-1.28,3.67-1,7.24-2.3,10.77-3.71,1.09-.44.85-.44,1.91,0,2.72,1.14,5.47,2.2,8.28,3.11,3.08,1,6.19,1.85,9.44,2.13,2.57.22,4.96-.29,7.05-1.85.77-.57,1.51-1.19,2.21-1.84,1.49-1.38,2.79-2.94,4.04-4.53,2.24-2.86,4.27-5.86,6.18-8.94.32-.52.71-.79,1.31-.95,2.58-.65,5.16-1.33,7.71-2.08,2.66-.78,5.26-1.74,7.75-2.97,1.21-.6,2.38-1.28,3.45-2.11,1.44-1.12,2.49-2.53,3.09-4.25.25-.7.47-1.42.64-2.14.57-2.43.76-4.91.84-7.4.11-3.56,0-7.11-.27-10.66-.04-.59.11-1.01.49-1.44.93-1.07,1.85-2.16,2.74-3.27,2.21-2.74,4.31-5.56,6.09-8.61.88-1.51,1.66-3.06,2.18-4.73.5-1.59.69-3.2.28-4.83-.2-.83-.45-1.64-.75-2.44-.64-1.7-1.54-3.28-2.49-4.82-2.16-3.48-4.66-6.71-7.26-9.87-.34-.41-.8-.79-.95-1.27-.16-.51-.04-1.12-.01-1.69.14-2.45.28-4.9.43-7.44Z"/>
    <path class="cls-2" d="m83.42,336.36c-.4-.39-.66-.62-.9-.87-4.22-4.42-8.44-8.85-12.66-13.27-2.38-2.5-4.76-4.99-7.14-7.49-.17-.18-.34-.36-.52-.53-.99-.95-2.17-1.35-3.52-1.07-1.74.37-3.46.78-5.19,1.19-8.12,1.92-16.24,3.83-24.37,5.75-.2.05-.41.07-.6.11-.28-.29-.11-.57-.04-.82.43-1.5.87-3,1.31-4.5,4.52-15.4,9.04-30.8,13.56-46.21,5.3-18.06,10.6-36.12,15.89-54.18.68-2.32,1.36-4.63,2.04-6.95.1-.33.22-.66.32-.95.29-.09.39.07.48.21.4.59.78,1.19,1.18,1.78,2.73,4.08,5.59,8.06,8.85,11.75,1.39,1.57,2.84,3.08,4.46,4.43.52.43,1.06.84,1.6,1.24,2.36,1.76,5.04,2.57,7.97,2.6,1.89.02,3.76-.18,5.62-.49,5.35-.89,10.5-2.49,15.61-4.24.39-.13.76-.38,1.27-.29.1.26.21.51.29.78,1.15,3.92,2.29,7.84,3.46,11.75.17.57.17,1.09,0,1.66-2.12,7.19-4.22,14.38-6.33,21.57-5.65,19.25-11.3,38.51-16.95,57.76-1.77,6.03-3.54,12.06-5.31,18.09-.1.34-.21.67-.38,1.2Z"/>
    <path class="cls-2" d="m116.07,220.57c1-.41,1.88-.77,2.76-1.13.62.26,1.21.51,1.8.76,5.73,2.41,11.54,4.62,17.51,6.38,2.73.8,5.48,1.51,8.29,1.94,2.18.34,4.36.57,6.58.36,1.92-.18,3.68-.75,5.32-1.72,1.14-.67,2.18-1.46,3.18-2.32,2.36-2.02,4.45-4.3,6.38-6.72,1.56-1.94,3.03-3.94,4.55-5.92.21-.27.34-.63.75-.78.23.29.29.63.39.96,1.35,4.6,2.7,9.2,4.05,13.8,4.94,16.83,9.88,33.67,14.82,50.5,3.79,12.91,7.58,25.83,11.37,38.75.14.46.35.92.3,1.51-.25-.03-.46-.04-.65-.08-3.22-.75-6.43-1.5-9.65-2.26-6.43-1.52-12.85-3.05-19.28-4.57-.62-.15-1.24-.32-1.89-.21-.98.16-1.82.58-2.5,1.3-1.19,1.27-2.4,2.52-3.61,3.78-5.5,5.76-10.99,11.52-16.49,17.28-.26.27-.48.61-.92.79-.25-.28-.3-.63-.4-.96-.74-2.52-1.48-5.04-2.22-7.57-4.21-14.35-8.42-28.69-12.63-43.04-5.83-19.87-11.66-39.73-17.48-59.6-.11-.37-.2-.75-.33-1.25Z"/>
    <path class="cls-1" d="m182.5,85.52c-.15,2.54-.3,4.99-.43,7.44-.03.56-.15,1.17.01,1.69.15.47.61.86.95,1.27,2.6,3.16,5.1,6.39,7.26,9.87.96,1.54,1.85,3.12,2.49,4.82.3.8.55,1.61.75,2.44.4,1.63.21,3.25-.28,4.83-.52,1.67-1.3,3.23-2.18,4.73-1.78,3.05-3.89,5.86-6.09,8.61-.89,1.11-1.8,2.2-2.74,3.27-.37.43-.53.85-.49,1.44.27,3.55.38,7.1.27,10.66-.08,2.49-.27,4.97-.84,7.4-.17.72-.39,1.44-.64,2.14-.61,1.72-1.65,3.13-3.09,4.25-1.07.83-2.24,1.51-3.45,2.11-2.49,1.23-5.09,2.19-7.75,2.97-2.56.75-5.13,1.43-7.71,2.08-.61.15-.99.43-1.31.95-1.91,3.08-3.94,6.09-6.18,8.94-1.25,1.6-2.55,3.15-4.04,4.53-.7.65-1.44,1.27-2.21,1.84-2.1,1.56-4.48,2.07-7.05,1.85-3.25-.27-6.36-1.13-9.44-2.13-2.81-.91-5.56-1.97-8.28-3.11-1.06-.44-.82-.43-1.91,0-3.53,1.42-7.1,2.71-10.77,3.71-2.3.63-4.62,1.11-7.01,1.28-2.91.2-5.47-.57-7.71-2.46-1.56-1.31-2.94-2.79-4.22-4.36-2.59-3.17-4.88-6.56-6.97-10.07-.53-.89-1.16-1.36-2.18-1.61-4.04-.99-8.02-2.17-11.88-3.75-1.45-.59-2.87-1.25-4.22-2.03-.15-.09-.3-.19-.46-.28-2.94-1.66-4.68-4.17-5.35-7.46-.33-1.64-.57-3.29-.65-4.96-.17-3.66-.15-7.32.14-10.98.07-.85.11-1.7.19-2.55.03-.34-.03-.63-.26-.89-.3-.35-.59-.71-.89-1.06-2.15-2.6-4.22-5.27-6.1-8.09-1.03-1.54-1.99-3.11-2.81-4.77-.52-1.05-.97-2.13-1.3-3.26-.53-1.86-.52-3.71.03-5.57.45-1.51,1.12-2.92,1.88-4.28,1.62-2.89,3.56-5.57,5.61-8.16,1.15-1.45,2.32-2.88,3.54-4.27.44-.5.59-.99.53-1.64-.25-2.83-.37-5.68-.34-8.52.03-2.67.15-5.33.6-7.97.22-1.33.55-2.64,1.05-3.9.61-1.52,1.56-2.78,2.84-3.8,1.09-.87,2.28-1.57,3.53-2.19,2.68-1.33,5.49-2.33,8.36-3.16,2.35-.68,4.72-1.3,7.1-1.9.63-.16,1.06-.43,1.4-1,2.15-3.48,4.43-6.87,7.05-10.02,1.02-1.23,2.13-2.39,3.25-3.53.9-.91,1.92-1.69,3.03-2.34,1.38-.81,2.87-1.21,4.46-1.26,2.08-.07,4.11.28,6.12.75,4.13.97,8.09,2.43,12.02,4,.49.2,1,.38,1.47.62.49.25.92.19,1.42,0,2.02-.79,4.04-1.56,6.08-2.29,2.71-.96,5.47-1.78,8.3-2.33,1.5-.29,3.01-.5,4.55-.52,2.32-.02,4.4.66,6.25,2.07,1.31,1,2.47,2.14,3.56,3.36,2.23,2.5,4.16,5.22,6,8.02.86,1.31,1.69,2.63,2.5,3.97.31.52.68.82,1.29.97,3.35.82,6.66,1.76,9.91,2.92,1.74.62,3.47,1.28,5.11,2.13,1.04.54,2.06,1.13,3.04,1.77,2.15,1.4,3.49,3.39,4.16,5.86.43,1.58.7,3.2.82,4.83.15,2.05.2,4.12.29,6.08Zm-7.92-.41c-.06-2.22-.03-4.81-.55-7.37-.41-2.01-.5-2.08-2.23-3.11-1.38-.82-2.86-1.42-4.36-1.98-3.93-1.48-7.97-2.6-12.06-3.52-1.46-.33-2.48-1.08-3.23-2.37-1.13-1.93-2.32-3.83-3.54-5.71-1.43-2.21-2.96-4.35-4.69-6.34-.72-.83-1.52-1.59-2.3-2.37-.78-.79-1.72-1.02-2.83-.9-2.06.23-4.06.7-6.04,1.28-3.69,1.08-7.28,2.41-10.8,3.95-1.44.63-2.8.64-4.21-.04-1.02-.49-2.08-.91-3.14-1.34-3.3-1.33-6.63-2.57-10.08-3.42-1.17-.29-2.37-.45-3.56-.67-1.05-.19-1.97.08-2.74.82-.57.54-1.17,1.04-1.69,1.63-1.03,1.17-2.05,2.36-3,3.6-2.23,2.91-4.24,5.97-6.1,9.13-.73,1.24-1.73,1.99-3.16,2.29-3.03.62-6.02,1.4-8.97,2.31-1.97.61-3.93,1.26-5.8,2.12-.87.4-1.7.88-2.55,1.33-.73.39-1.17,1.02-1.34,1.83-.17.8-.35,1.6-.46,2.41-.31,2.33-.36,4.68-.33,7.02.04,2.99.13,5.97.47,8.94.14,1.27-.22,2.39-1.1,3.33-.14.16-.29.32-.43.48-1.98,2.24-3.91,4.52-5.67,6.93-1.13,1.55-2.2,3.14-3.23,4.76-.55.87-.96,1.82-1.41,2.74-.38.78-.4,1.57-.03,2.37.31.68.58,1.38.96,2.02.73,1.26,1.47,2.52,2.29,3.72,2.09,3.1,4.43,6,6.87,8.83.21.24.43.48.63.73.72.91,1.01,1.94.87,3.09-.12,1.02-.23,2.05-.31,3.08-.26,3.33-.36,6.67-.25,10.02.04,1.1.13,2.2.26,3.29.09.77.29,1.53.46,2.3.14.62.49,1.1,1.03,1.43.48.3.95.63,1.46.88.96.47,1.92.93,2.91,1.33,4.1,1.64,8.33,2.85,12.64,3.8,1.73.38,2.91,1.23,3.79,2.78,2.03,3.59,4.3,7.03,6.85,10.29,1.01,1.29,2.05,2.55,3.29,3.63,1.4,1.22,1.43,1.12,2.97,1.06,1.46-.05,2.88-.4,4.29-.77,4.24-1.1,8.35-2.58,12.35-4.34,1.62-.71,3.08-.7,4.7.04,3.98,1.81,8.07,3.35,12.3,4.49,1.51.41,3.03.74,4.6.85.87.06,1.61-.14,2.26-.72.37-.33.77-.64,1.11-1,.73-.77,1.47-1.55,2.15-2.36,2.15-2.57,4.04-5.32,5.84-8.14.67-1.05,1.32-2.11,1.96-3.18.64-1.07,1.53-1.76,2.76-1.99.28-.05.55-.12.83-.19,3.85-.87,7.66-1.86,11.38-3.19,1.57-.56,3.14-1.16,4.59-1.99,1.78-1.03,1.87-1.07,2.32-3.18.45-2.13.55-4.3.6-6.47.09-3.63-.14-7.25-.45-10.86-.13-1.49.31-2.68,1.3-3.79,1.56-1.75,3.06-3.56,4.53-5.38,1.65-2.05,3.21-4.17,4.53-6.45.53-.92.98-1.89,1.44-2.85.36-.74.38-1.5.03-2.26-.27-.58-.48-1.19-.79-1.75-.55-1-1.09-2-1.73-2.94-1.25-1.82-2.52-3.62-3.86-5.36-1.32-1.72-2.73-3.37-4.14-5.02-.81-.95-1.21-1.99-1.09-3.23.04-.39.04-.78.09-1.17.33-2.93.42-5.88.53-9.21Z"/>
    <path class="cls-2" d="m174.58,85.11c-.11,3.33-.2,6.28-.53,9.21-.04.39-.05.78-.09,1.17-.12,1.24.28,2.28,1.09,3.23,1.41,1.65,2.82,3.3,4.14,5.02,1.34,1.74,2.61,3.55,3.86,5.36.64.93,1.19,1.94,1.73,2.94.31.56.52,1.16.79,1.75.35.76.33,1.52-.03,2.26-.47.96-.91,1.93-1.44,2.85-1.32,2.28-2.88,4.4-4.53,6.45-1.47,1.82-2.97,3.64-4.53,5.38-.99,1.11-1.43,2.3-1.3,3.79.31,3.61.54,7.23.45,10.86-.05,2.17-.15,4.34-.6,6.47-.45,2.11-.54,2.15-2.32,3.18-1.45.84-3.01,1.43-4.59,1.99-3.72,1.33-7.53,2.32-11.38,3.19-.28.06-.55.13-.83.19-1.23.24-2.12.93-2.76,1.99-.64,1.07-1.29,2.13-1.96,3.18-1.8,2.82-3.69,5.57-5.84,8.14-.68.82-1.42,1.59-2.15,2.36-.34.36-.74.66-1.11,1-.64.59-1.39.79-2.26.72-1.57-.11-3.09-.45-4.6-.85-4.23-1.14-8.32-2.69-12.3-4.49-1.62-.73-3.08-.75-4.7-.04-4,1.76-8.11,3.25-12.35,4.34-1.41.36-2.83.71-4.29.77-1.54.06-1.58.17-2.97-1.06-1.23-1.08-2.28-2.34-3.29-3.63-2.54-3.25-4.82-6.7-6.85-10.29-.87-1.55-2.06-2.4-3.79-2.78-4.31-.94-8.54-2.16-12.64-3.8-.99-.4-1.95-.86-2.91-1.33-.51-.25-.98-.58-1.46-.88-.54-.34-.89-.82-1.03-1.43-.17-.76-.37-1.52-.46-2.3-.13-1.09-.22-2.19-.26-3.29-.11-3.34,0-6.68.25-10.02.08-1.03.19-2.05.31-3.08.13-1.16-.16-2.18-.87-3.09-.2-.25-.42-.49-.63-.73-2.44-2.83-4.78-5.73-6.87-8.83-.81-1.21-1.56-2.46-2.29-3.72-.37-.64-.64-1.34-.96-2.02-.37-.79-.35-1.59.03-2.37.45-.92.86-1.88,1.41-2.74,1.03-1.62,2.1-3.21,3.23-4.76,1.76-2.42,3.69-4.7,5.67-6.93.14-.16.28-.32.43-.48.87-.94,1.24-2.06,1.1-3.33-.34-2.97-.43-5.96-.47-8.94-.03-2.35.02-4.69.33-7.02.11-.81.29-1.61.46-2.41.17-.81.6-1.44,1.34-1.83.84-.45,1.68-.93,2.55-1.33,1.87-.86,3.83-1.51,5.8-2.12,2.96-.91,5.95-1.69,8.97-2.31,1.43-.29,2.43-1.04,3.16-2.29,1.86-3.16,3.87-6.22,6.1-9.13.95-1.24,1.97-2.43,3-3.6.51-.59,1.12-1.09,1.69-1.63.78-.74,1.69-1.01,2.74-.82,1.19.22,2.39.39,3.56.67,3.46.85,6.79,2.09,10.08,3.42,1.05.43,2.11.84,3.14,1.34,1.41.68,2.77.67,4.21.04,3.52-1.54,7.12-2.87,10.8-3.95,1.98-.58,3.98-1.05,6.04-1.28,1.11-.12,2.04.11,2.83.9.77.78,1.57,1.54,2.3,2.37,1.74,1.98,3.26,4.13,4.69,6.34,1.22,1.88,2.41,3.77,3.54,5.71.75,1.29,1.77,2.04,3.23,2.37,4.09.92,8.13,2.04,12.06,3.52,1.5.56,2.98,1.16,4.36,1.98,1.74,1.03,1.82,1.1,2.23,3.11.52,2.56.49,5.16.55,7.37Z"/>
  </g>
</svg>